<?xml version="1.0" encoding="utf-8"?>
<!-- Generator: Adobe Illustrator 26.2.1, SVG Export Plug-In . SVG Version: 6.00 Build 0)  -->
<svg version="1.1" id="Layer_1" xmlns="http://www.w3.org/2000/svg" xmlns:xlink="http://www.w3.org/1999/xlink" x="0px" y="0px"
	 viewBox="0 0 708.7 171" style="enable-background:new 0 0 708.7 171;" xml:space="preserve">
<style type="text/css">
	.st0{fill:#CC1517;}
</style>
<g>
	<path class="st0" d="M66.7,34.4c17.1-0.4,19.8-2.6,17.9,16.7c-4,3.6,1.1-0.1,0.1,3.5c-2.3,0.9-4.2,2.1-7.6,1.8
		c-4.1-0.1-8.8,0.3-10.6-3.2c-0.8,5.7-5.8-0.8-9.2,1.4c1.7,2.9-5,9-3.5,15.4c0.4,3.5-6.3-3-5.4,1.1c0,0,0.7,0.4,0.7,0.4
		c6.7,0.5,2.9,7.8,4.4,12.3c0.1,2.2,0.1,10.8,0,12.8c-1,0.4-2-0.3-2.5,1.1c-0.1,0.6-0.9,2.1,0,2.5c6.2-2,0.5,12.5,4.5,17.4
		c-2.2-0.1-22.6,0.9-14.4,3c5.7-0.7,14.5-2.6,19.2,0.8c6-3.3,13.3,7,16.4,0c-6.3,2.1-3.5-11.3-4.2-16.2c-1.7-0.7-4.1-0.6-6.1-0.4
		c-0.3-2.8-5.3-10.2,0.3-10c0.7-0.1,0.7,1,0.8,1.4c2,0.4,2-1.5,3.5-2c-0.1,1.8,0.5,7.7-2.4,7.9c-3.3,2.5,6.3,1.6,5.5-1.7
		c-1.7-0.3-0.1-4.3-0.1-5.2c-3.4-0.6,0.7-2.6,0.6-0.3c0.1,3.9,4.4,8.1,2.1,1.7c0,0,1.6,0.1,1.6,0.1c-0.5-1.8,1.1-2.4,1.4-4
		c0.9-2.5,1.1-0.4,1.4,1c-0.7,0.3-1.6,0.8-1.8,1.6c0.7,2.5,1.6,4.9-1.6,5.9c-2.6,5.2,4.8-0.8,3.2-5.8c1.6-0.7,0.5,2.4,0.7,3
		c3.2-1,10.5-6.5,5.6-0.3c0,1.7-1.6,2.1-3,1.7c-0.5,1.1,0.7,1.1,1.4,0.8c0.8-0.7,2.3,2.2,2.8,0.1c0,0,0.7,2.1,0.7,2.1
		c-0.3,3.3,0.7,19-1.4,21c2.1-3.3,0.8,6.6,1.1,6.8c-2.6,1.1-0.9-1.9-1-3.1c-0.5-2.3-1.6,3-1.6,3.8c2.6-0.7,2.5,2.5,2.8,4.4
		c0.1,3.7-0.4,8.8-3.4,3.2c-0.2,2.9-4.2,2.8-2.3-0.3c1.3-1.3,3.9-1.3,3.4-3.5c-1.5-6.1-6.9,10.2-9.6,4.7c-6-2.1-8.1,3.8-14,2.5
		c-2.4,0.2-4.3-1.6-7.1-0.4c-1.2-1.1,8.1-4.8,2.5-3.4c-7.7,7.4-20.6-0.3-26.4-8.3c-4.8-8.8-9.3-28-4.2-34.9
		c-3-0.4-2.4-17.6,0.3-16.2c-1.4,2.8,1,2.5-0.8,4.8c0.8,2.7,5.4,1.8,3-0.4c0.3-2.4,0.5-6.5,0.1-8c-2.3,0.2,1-4.2,0.3-6.6
		c-1.9,0.3-4,2.2-2.4,4.1c-1.6,1.6,0.1,2.4-0.4,4.1c-4,2.9-0.3-6.8-1.8-8.9c0.1-1.5,0.2-1.5,1.4-0.6c2.3,0,5,0.4,4.2-2.7
		c4.7,4.3,4.6-1.9,1.1-4.1c1-1.3,1.3-6.8,1.4-8.5c-0.6-3.9-1.3,2.5-1.8,4c-1.4-0.8-0.7-11.2-0.4-7.6c1.5-1.5,0.5-4.5,4-4.4
		c-1.2-1.9,0.4-1.7,1.8-1.8c-1.2-1.3,0.5-2.1,1.7-2.7c0.5,0.9,1,2.4,2.1,2.3c0.3-2.3,0.4-4.6,3.2-5.6c15.3-4.4,19.5-0.9,32.2,6.2
		C79.9,40.3,68,37.2,66.7,34.4z M26.9,62.6c1.4-0.4,1.2,1.8-0.1,1.6C26.7,64.2,26.9,62.6,26.9,62.6z M30.4,50.6
		c0.2,2.3,1.3,8.6-2.3,8.6C27.5,56.7,29,52.8,30.4,50.6z M29,107.7l0.1,1.4C30.9,109.5,30.6,107.8,29,107.7z M29,111.2
		c0,0.3,0.2,0.6,0.4,0.8C29.4,111.7,29.2,111.4,29,111.2z M29,115.4c0,0.4,0.2,0.8,0.4,1.1C29.4,116.2,29.2,115.8,29,115.4z
		 M29.1,102.4c-0.3,1.2,0.7,1,1.6,0.8C31.1,102.1,29.8,102.5,29.1,102.4z M30,117.8c-0.7,1.7,0.4,2.9,1.6,4.1
		C34.5,130.5,34,119.5,30,117.8z M32.2,71.5c-0.7,2,2.8,2.6,4.4,2.7c1.3,0.2,7.7,5.5,8.5,3.7C44.6,75.3,35.3,72.1,32.2,71.5z
		 M32.2,74.6c-0.7,3.2,3,22.3,3.4,13.7c-0.2-0.9-0.6-3.2,1-2.7c0.5-2-1.5-3.5-2.4-5.1C33.5,79.5,33.5,74.4,32.2,74.6z M32.5,57.1
		c0.6,0.3,0.2,1.2,0.1,1.7C32.6,58.3,32.5,57.7,32.5,57.1z M34.5,115c-1,1.2,1.1,1.3,1.4,0.3C35.9,115.3,34.5,115,34.5,115z
		 M34.6,48.9c0.2,0.3,0.4,0.4,0.7,0.4C35.2,49.1,34.9,49,34.6,48.9z M34.9,103.3c-1.3,2.9,2.6,2.7,4.2,3.8
		C39.7,105.8,36.2,104,34.9,103.3z M35.3,78.2c-0.3,1.1,0.7,0.5,1.3,0.6C36.3,78.4,35.9,78.2,35.3,78.2z M35.8,60
		c0.3,1.4,1.3,2.7,3,2.7C38.6,60.9,37.7,59.9,35.8,60z M35.9,130.4c0,0.6,0.4,0.9,1,1C36.9,130.8,36.5,130.5,35.9,130.4z M36,54.6
		c0.5,2.4-0.4,5.5,2.7,2.4c2.7,0.3,2.5,1.1,1.6-2C38.9,55.4,37.4,55.2,36,54.6z M36.3,96c0.1,1.3,0,3.4,0.7,4.5
		C36.8,100.2,37.5,95.2,36.3,96z M37.2,116.7c-0.6,1.1,0,2.2,1.3,1.7C38.9,117,38.6,116.6,37.2,116.7z M39.4,63.3
		c-1.5,3.2-2.7,5.4,1.4,7.2C42,68.8,40.4,65.1,39.4,63.3z M37.6,112c0,0.3,0,0.3,0.3,0.1C37.9,112.2,37.6,112,37.6,112z M39.9,44
		c-2-0.3-1.6,2.3-1.7,3.5c1.3-0.2,3,0.5,2,2c-3,0.5-2.7,4.8,0.4,3.1C41,50.5,43.4,43.6,39.9,44z M38.4,123.1
		c-0.2,0.7-0.5,2.4-0.4,3.1C39.6,126,39.9,123.8,38.4,123.1z M38.3,83.4c0.6,1.3-0.2,3.9,0.3,4.7C46.4,83.6,45.8,85.3,38.3,83.4z
		 M38.2,90.2c0,0.2,0.1,0.3,0.3,0.4C38.4,90.4,38.3,90.3,38.2,90.2z M38.9,127.7c-0.1,2-1.1,5.9,0.6,7.5
		C39.8,133.7,41.1,128.3,38.9,127.7z M39.3,45.4c0.6,0,0.9,0.3,1,0.8C39.8,46.2,39.5,45.9,39.3,45.4z M40.7,80.7
		c-0.2,0.2-0.3,0.4-0.4,0.7C40.9,81.5,41.2,81.3,40.7,80.7z M40.6,87.3c-0.4,1,0.3,2.9,1.6,2.1C42.8,88.2,41.7,87.8,40.6,87.3z
		 M40.8,90.4c0.3,1.6,1.7,1.4,2.1,0C43,90.4,40.8,90.4,40.8,90.4z M42.3,104.1l-0.8,0.1C41.4,105.1,42.2,104.8,42.3,104.1z
		 M42.3,58.3c-1,0.6,0,2,1,2.1C43.5,59.4,43.8,58.1,42.3,58.3z M42.7,101.7c-0.5,0.6-0.9,1.7,0.3,1.8
		C43.7,102.9,43.6,102.2,42.7,101.7z M42.1,110.2l0.1,1.4C43.6,111.8,43.5,109.8,42.1,110.2z M43.4,41.3c-0.2,0.7-0.1,1.2,0.7,0.8
		C44.5,41.3,44.2,41.3,43.4,41.3z M43.5,46.5c0.2,0.3,0.6,0.5,1,0.6C44.3,46.9,43.9,46.7,43.5,46.5z M43.8,51.5l0.1,1.4
		C45,52.7,45.2,51.1,43.8,51.5z M43.8,80.6c0.1,0.5,0.3,0.9,0.7,1.3C44.5,81.3,44.8,80.3,43.8,80.6z M44.9,61.2
		C43,64,47.4,63,47.5,65.5C51,62.9,47.4,61.6,44.9,61.2z M45.6,85.8l-0.8,1C45.9,87.9,47.8,86.1,45.6,85.8z M44.9,88.6l0.1,0.8
		C45.7,89.1,45.8,88.6,44.9,88.6z M47.8,38.4c-9.5,1.9,20.8,14,6.9,5.6c-1.6-2.1-4.5-2.8-6.1-4.5C48.8,38.6,48.8,38.2,47.8,38.4z
		 M45.8,47.1c0,1.3,2.2,1.5,3.1,2.1C48.5,48,46.9,47.6,45.8,47.1z M47.8,82.7c-0.3,0.7-0.9,1.7,0.1,2.3
		C47.9,84.4,48.9,82.5,47.8,82.7z M47.3,59.3l0.3,0.4C47.6,59.5,47.5,59.3,47.3,59.3z M48.2,90.4L48,91.2
		C48.7,91.3,48.4,90.8,48.2,90.4z M48.9,79.4c-1.7,1.4,1,2.1,2.3,2.5C52.7,81.4,49.9,79.7,48.9,79.4z M48.3,54.6
		c0.5,1.2,1.5,2.6,2.8,3.2C51.8,55.4,50.7,54.6,48.3,54.6z M48.3,77c0,0.5,0.1,1,0.3,1.6C48.5,78.3,48.8,77.1,48.3,77z M49.2,58.8
		c-1.2,1.3,2.1,1.8,2.7,3C56,63.3,51.3,58.4,49.2,58.8z M49.5,68.1L49,68.8C49.7,68.9,50,68.7,49.5,68.1z M49.6,137.6
		c-1.2,1.2,1.2,1.7,1,0C50.6,137.6,49.6,137.6,49.6,137.6z M49.9,61.8V64C51.9,65.1,51.3,62.2,49.9,61.8z M51.9,65.6
		c0.2,0.3,0.6,0.5,1,0.6C52.6,65.9,52.3,65.7,51.9,65.6z M53.3,56.6c-0.6,1.4,1.1,2.5,2.3,1.6C57.1,55.9,54.4,56.9,53.3,56.6z
		 M56.7,37.2l-1.8,0.3C55.3,39.3,58.6,39.3,56.7,37.2z M55.7,121.8c-0.1,1.3,0,1.8,1.4,1.4C57.1,122.1,56.9,121.5,55.7,121.8z
		 M58.4,51.1c-1.2,0.6-1.3,1.5,0,2.1C59.3,52.7,59.4,51.6,58.4,51.1z M57.6,48.4c-0.2,0.6-0.5,1,0.4,0.8
		C58.1,49.2,57.6,48.4,57.6,48.4z M60.9,55.3c0.3,0.2,0.5,0.5,0.7,0.8C60.7,56.2,59.8,56.3,60.9,55.3z M60.6,51.5
		c0.3,0.9,0.9,1,0.8,0C61.5,51.5,60.6,51.5,60.6,51.5z M64,133.9c-4.8,0.6-1.5,2.9,1.4,2.4C67.2,135.2,65.6,133.6,64,133.9z
		 M61.6,129.8c0,0.5-0.4,3,0.6,2.1C62.2,131.3,63,129.5,61.6,129.8z M62.4,139.3c0.1,0.3-1.6,2.6-0.3,2.1
		C63.5,140.3,69.4,139.7,62.4,139.3z M62.6,126.2c-0.3,0.6-1,1.7,0.1,1.8C62.8,127.4,63.7,125.9,62.6,126.2z M62.4,122.9
		c0.1,0.3,0.3,0.4,0.6,0.4L62.4,122.9z M64.3,82.3c4.3,0,20.4,0.3,25,0.3c0,0-0.3,8.2-0.3,8.2c-1.6-0.3-1.4-4-1.7-5.1
		c-3.9,1.8,1.4,5.5-6.5,3c0,0-1.1-0.4-1.1-0.4c-0.5,5.7-3.4-4.1-6.1-4.2c-1.4,1.4-1.4,3.6-1.4,5.6c-3.4-2.5-1.7,0.2-1.6,2.5
		c-1.8,1.1-2.6,1.5-2.3-1C62.6,93.9,64.4,85.6,64.3,82.3z M64.3,92c1,0.2,2.7-0.3,3.1,1.3C65.9,93.2,64.2,94.4,64.3,92z M66,52.1
		c0,0.2,0.2,0.4,0.4,0.6C66.3,52.4,66.2,52.2,66,52.1z M66.7,140.1c-0.5,1.9,0.5,2,2,1.6C69.6,140.2,67.6,140.4,66.7,140.1z
		 M67.2,97.4c0.1,0.6-0.1,2.1,0.8,2.1C68.1,98.6,68.6,97.3,67.2,97.4z M67.7,134.5v1.7C69.3,136.2,69.6,134,67.7,134.5z M69.1,127.7
		c0.1,0.6-0.3,1.8,0.7,1.4C69.7,128.6,70.1,127.4,69.1,127.7z M69.2,50.4l0.1,1.1C71,51.6,70.6,50.7,69.2,50.4z M69.8,125
		c0.2,1.4,1,2.3,2.5,2.3C71.9,126.2,71.2,125,69.8,125z M70.5,134.6c-0.4,0.1-0.5,0.8-0.6,1.1C70.5,136.2,70.4,135,70.5,134.6z
		 M71.5,98.8c1.2-0.2,0.7,1,0.7,1.7C71.8,100,71.6,99.4,71.5,98.8z M71.5,101.6c0.8-0.2,0.7,0.4,0.7,1
		C71.3,102.8,71.5,102.2,71.5,101.6z M71.6,133.9c-0.1,0.7,0.1,0.5,0.6,0.3C72.2,134.2,71.6,133.9,71.6,133.9z M72.8,49.1
		c-0.6,1.5,0.8,1.7,2,1.4C74.9,49,74,49,72.8,49.1z M73.7,113.6c-0.5,0.3-0.1,1.3,0,1.7C74.6,115.3,75,113.1,73.7,113.6z
		 M74.4,107.4c-4.3,2.5,5.2,9.3,0.7,4C75.3,110.2,76.7,107.4,74.4,107.4z M74,117.1c0.1,0.4,0.3,0.6,0.7,0.8
		C74.8,117.4,74.8,117,74,117.1z M74.4,51.6l0.1,1.3C76.1,53,75.7,52,74.4,51.6z M76.6,53.2c-1.1,1.8,2.8,2.3,4.1,1.8
		C78.2,53.6,82,53.1,76.6,53.2z M76.7,94.1h1.4C78.1,95.3,76.4,95.7,76.7,94.1z M76.7,133.1l0.3,0.7C77,133.4,77.3,132.9,76.7,133.1
		z M77,114.6c0.4,0.3-0.9,6.1,0.8,4.5C77.2,118.1,77.8,115.1,77,114.6z M78.4,46.4c-1.7,1.5-0.5,2.6,1.4,2.1
		C81.8,47.6,80,46.3,78.4,46.4z M78.5,104.6l-0.4,1.1C78.8,105.9,79.3,104.8,78.5,104.6z M81.8,46.8c-0.4,0.7-0.1,0.8,0.6,1
		C82.9,47.4,82.5,46.6,81.8,46.8z M81.8,142h1.1C82.8,142.9,80.9,143.3,81.8,142z M81.6,133.5c-0.2,1.3,0.3,1.3,1.4,1.1
		C83.5,133.3,82.6,133.5,81.6,133.5z M81.9,86.6v0.8C82.1,87.1,82.7,86.7,81.9,86.6z M82.8,113.7l-0.8,0.4
		C82.5,115.3,84,114.9,82.8,113.7z M82.9,122.5c-1.1,0.5-1.1,1.4,0.1,1.7C83.9,123.8,84.2,122.5,82.9,122.5z M81.9,130.1
		c-0.2,1,0.4,0.7,0.8,0C82.8,130.1,81.9,130.1,81.9,130.1z M82.4,100.8c-0.3,1-0.6,2.9,1,2.3C83.7,101.9,84.1,100.7,82.4,100.8z
		 M82.6,128l-0.4,1.4C82.9,129.5,83.7,127.9,82.6,128z M82.5,90.4c0.3,0.1,0.7,0.1,1.1,0.1C83.4,91.7,82.9,91.3,82.5,90.4z
		 M82.5,92.1c0.9,0,3.5,1.3,2.1,2.1C82.5,95,82.5,93.9,82.5,92.1z M82.8,115.7c-0.2,0.3,0,1.4,0,1.7C84.6,117.8,84,116.3,82.8,115.7
		z M82.8,105.1l0.6,3.4C84.5,108,84.2,105.4,82.8,105.1z M83.5,120.7c-0.2,0.5-0.7,1.1,0.1,1.3C84.2,121.5,84.7,120.3,83.5,120.7z
		 M86,103.3c-0.4,0.7-0.8,1.8-1,2.7C85.8,105.7,87.5,103.2,86,103.3z M85.6,141.8c1-0.2,0.9,0.4,0.8,1.1
		C85.3,143.4,84.9,142.9,85.6,141.8z M86.3,109.6c0,0.2,0.2,0.4,0.6,0.6C86.8,110,86.6,109.8,86.3,109.6z M88.6,98.5
		c0.2,0.5,0.4,1.2,0.4,1.8C88.8,99.8,88.7,99.2,88.6,98.5z"/>
	<path class="st0" d="M127.8,30.8c3,0.3,1.1,1.4-0.6,2c2.9,2,3.5-1,6.1-0.8c-0.2,1.1-1.1,2.1,0.4,1c-0.2-3.3,3.6,0.2,4.9,1
		c0.1-3.8,5.5-2.1,7.8-1c1-0.9,3.2-1.1,4.5-0.8c3.2,0.6,5.6,1.6,4,4.7c1.9,1.5,2,4.9,2,7.1c3.6,6.3,3.8,19.8,0,4.4
		c0.1-1.1-0.1-2.4-1.6-2.3c0,0.9-0.2,2.1-0.7,2.8c1.2-0.1,0.9,1.7,1,2.4c1.2,2,1.7,6,5.1,6.4c-0.5,0.3,2.6,7.3,1,6.2
		c-0.5,0-2.7,0.2-2.3-0.7c3.3-6.5-5-4.8-5.1-2.1c6.8-1.3,3,0.4,5.5,4.4c0.8,0.2,1.9-0.1,2.7-0.1c0.3,2.3-3.5,0.9-2.5,3
		c5,0.9-0.2,0.9,4,5.9c-3.9-0.5,1.8,2.9-0.4,4.9c-0.4,3.9,6.3,9.2,1.6,11.2c1,1,2.5,0.1,2,2.1c1.6,4.2,13.2,41.4,5.8,39.9
		c-1.5-0.7-1,2-1,2.8c3-2,3,1.9,3.1,4.1c0.1,4.2-7.7-0.4-7.1,2c-3,0.6-2.6-1.1-4.7-1.3c-1.1,2.8-7.9,0.7-10.2,1
		c-3.7,1-7.6-2.1-4.8-4.9c2.8-1,1.8-5.6,0-1.4c-2.5,1.6-2.5-10.9-1.8-10.9c-1.7-1.9-2.3-5.9-2.7-8.3c-1.5-0.5-9.4,1.4-9.5-1.7
		c0-0.6-1.1-8-1-8.3c1.2-0.1,2.6,0.4,2-1.4c-3.3,2.3-2.3-1.9-3.2,1.3c0,0,0.8,10,0.8,10c-1.5-0.1-4.1-0.3-5.5,0.4
		c-0.6,1.2-1.2,13.9-3.2,14c-1.5-1.6-10.9,3.9-7.3,4c5.1,2.7-1.7,5-4.8,4.4c-2.4-2-1.9-10-2.4-12.7c-2.1,1.4-3-4.4-3.8-5.6
		c-0.6-4.8-1.8-2.4-1,0.8c0.4,4.8,8,15.1,1.1,17.5c-0.5-1.8-0.7-12.9-2.5-11.3c-1,3.3,4.2,12.2-1.7,11.4c-0.5-1.6,0.5-4.2-1.1-5.4
		c-0.2,3.7,1.1,7.6-4.4,4.5c-2.6,4.8-2.6-4.5-0.6-6.8c0-1.5,0.4-3,1.4-4.2c0.3-0.1,0.6,3.4,0.8,1.6c-0.4-5.3,1.5-23,5.1-26.1
		c0.1-2.1,0.3-4.8,0.4-6.9c2.5,1.7,0.8,9.1,4.2,5.1c-3.9-4.2-1.6-10.1-1.1-14.7c-1.3,0.6,2.1-22.7,4.4-19.6c2.3,0,3.5-15.6,4.7-19.2
		c-0.2-3.6-0.5-8.7,2.5-11.3c1.8,2.8,9.6-1.8,4.9-1.6C123.4,31.3,126.6,32.7,127.8,30.8z M95.9,134.7c0.2,0.2,0.4,0.4,0.7,0.4
		C96.4,134.9,96.2,134.8,95.9,134.7z M97.7,129.5c-1.2,0.8-0.5,2.1,0.8,2C98.5,130.8,98.4,130.1,97.7,129.5z M98.3,133.5
		c-0.1,1.1-0.3,2.6,0.3,3.7C98.5,136.1,98.7,134.5,98.3,133.5z M99.1,118.9c-0.2,1.5-0.2,3.6,0.6,4.9c0.2,2.7-1.2,6.2,1.7,7.1
		C100.6,129.1,101.6,118.9,99.1,118.9z M99.4,116.1c0,0.3,0,0.3,0.3,0.1C99.7,116.2,99.4,116.1,99.4,116.1z M107.9,102
		c-1.8,0.7-2.3,1.5-1.6,3.5C107.6,105.1,108.7,103.2,107.9,102z M107.5,90l-0.7,0.1C107,92.2,107.1,92.1,107.5,90z M106.9,106.1
		c-0.4,1.3,0.1,2.8,1,3.8c1,2.6,1.4,9.6,1.6,12.4C111.3,118.5,111.1,108.6,106.9,106.1z M108.3,81c0.1,0.6,1.1,2,0.1,2.3
		C107.6,88.3,112.2,80.7,108.3,81z M110.4,70.2l-1.4,2.4C110,73.1,112.2,70.5,110.4,70.2z M109.3,78.3c0.1,0.8,0.6,1.2,1.4,1.4
		C110.7,78.7,110.4,78,109.3,78.3z M109.7,95.1c-0.2,0.5-0.9,1.6,0.1,1.1C109.9,95.8,110.8,94.8,109.7,95.1z M109.4,97.9
		c0,0.6,0.6,0.4,0.8,0C110.3,97.9,109.4,97.9,109.4,97.9z M109.4,104.5v1.8C111.1,106.7,110.3,105.3,109.4,104.5z M110,74.5
		c-0.6,0.4-0.3,0.7,0.3,0.8C110.5,74.8,110.7,74.5,110,74.5z M110.3,61.8c1.2-0.4,0.5,2.7-0.1,1.8C110.1,63.6,110.3,61.8,110.3,61.8
		z M111.8,67c-1.2-0.3-2.5,2.2-1.3,2.4C110.7,68.9,113.4,66.9,111.8,67z M112,55.4c0.3,0.4,0.8,0.9,0.1,1.3
		C112.1,56.7,112,55.4,112,55.4z M112.8,50.9c0.8-0.2,0.7,0.4,0.7,1C112.7,52.1,112.8,51.5,112.8,50.9z M115.4,126.8
		c0.1,0.8-0.1,1.9,1.1,1.6C116.5,127.4,116.7,126.5,115.4,126.8z M117.2,82.1c-2.3,0.4,0.7,2.3,1.3,3.2
		C120.5,85.5,118.2,82.7,117.2,82.1z M116.2,90.1c0,0.6,0.1,1.2,0.3,1.7C116.4,91.4,117,90.2,116.2,90.1z M121.3,52.4
		c-1.7-0.1-0.2,2.8-1.1,3.8c-1.1-0.4-1.7-1.9-3.1-1.1C118.7,60.5,125.5,55.2,121.3,52.4z M117.2,76.9c-0.3,0.7,0,1.5,0.8,1.1
		C118.2,77.1,118.3,76.7,117.2,76.9z M117.1,121.2c0,0.5,0.1,0.9,0.3,1.4C117.4,122.1,117.6,121.4,117.1,121.2z M117.8,52.7
		c-0.1,0.5,0.5,0.2,0.7,0.1C118.5,52.9,117.8,52.7,117.8,52.7z M119.5,103.7c0.4,5.2-1.7,16.7,0,20.5
		C119.1,118,121.1,109,119.5,103.7z M119.7,94.4l-0.3,4.9C120.8,98.8,120.4,95.6,119.7,94.4z M119.6,101.6c0,0.4,0.2,0.9,0.4,1.3
		C120,102.4,119.9,102,119.6,101.6z M120.5,85.3c-0.5,1.9-1,5.1-0.4,7.1C120.4,90.5,120.7,87.3,120.5,85.3z M120.5,80.8l-0.3,1.8
		C120.8,85,121.8,81.5,120.5,80.8z M121,33.4c1.2-0.1,1.2,0.8,0.1,1.3C120.5,34.2,120,33.7,121,33.4z M120.5,30.4c0.9,0,1.5-0.2,1,1
		C120.3,31.9,120.4,31.4,120.5,30.4z M123.1,56.7c-0.7,1.8,1.8,4.7,3.1,3.7C125.9,58.8,124.6,57.2,123.1,56.7z M123.7,42.1
		c0.2,2.4,1.7,4.5,1.6,0.7C125.6,41.7,124.3,42.2,123.7,42.1z M124.3,48.1c0.1,1.1,1.4,1.5,1.4,0.1
		C125.7,48.2,124.3,48.1,124.3,48.1z M127.5,71.8c-1,0.2-0.6,0.8-0.3,1.6C127.9,73,127.8,72.4,127.5,71.8z M127.9,105.9
		c-0.6,0.1-0.9,1.1-0.3,1.3C128.1,107.2,128.3,106,127.9,105.9z M128.2,94.5l-0.1,1.7C129.4,97.5,129.9,94.5,128.2,94.5z
		 M128.2,108.8v1.6C130.3,110.5,130.1,109.4,128.2,108.8z M128.5,35.5c0.4,1.4,1.6,2.1,3.1,2.1C131.4,36,130.1,35.5,128.5,35.5z
		 M129.1,73.3l-0.3,1.1C129.6,74.5,130.3,73,129.1,73.3z M130.3,75.7c-0.8,0.3-2.4,1.5-0.6,1.6C130.4,77,131.8,75.5,130.3,75.7z
		 M135.1,53.6c0.3,5.8-7.2,40.9-1.7,44.2c4.9-1.7-2.2-2.3,0.7-4.4c4.1,3.5,6.1-2.2,10.4-0.6c2.4-0.9-1-2.1-1.7-2.5
		c-0.3,0-1.9-2.7-1.8-1.1C138.2,92.1,138.3,52.4,135.1,53.6z M132.2,29.6c1.1-0.1,1.8-0.1,1.6,1.3C132.7,31,132.2,30.6,132.2,29.6z
		 M133.3,98.7c-1.6,1.3-0.6,2.7-0.1,4.4C134.1,101.8,134,100.3,133.3,98.7z M133.2,37.9v0.7C134.7,38.5,134.7,38.4,133.2,37.9z
		 M135,34.4c-0.1,1.7,3,2,1.8,0.1C136.8,34.5,135,34.4,135,34.4z M136.1,97.2c-0.5,0.9-0.1,1.9,1,1.3
		C137.8,97.3,137.4,97,136.1,97.2z M136,110.6c0,0.3,0.2,0.5,0.4,0.7C136.4,111.1,136.2,110.8,136,110.6z M136.4,30
		c0.4,0.1,1.7,0.7,0.6,0.6C136.1,30.9,136.1,30.9,136.4,30z M137.4,110.6c0.1,0.3,0.3,0.6,0.6,0.8
		C137.9,111.1,137.7,110.8,137.4,110.6z M139.1,29.6c1.1,0,3-0.4,3.1,1.3C141.3,30.4,137.1,31.9,139.1,29.6z M138.5,35.6
		c0.1,0.4,0.3,0.7,0.6,1C139,36.3,138.8,35.9,138.5,35.6z M138.9,39.7c0,0.4,0.2,0.8,0.6,1.1C139.5,40.3,139.9,39.5,138.9,39.7z
		 M140.2,67.3c-0.2,0.1-0.3,0.3-0.4,0.6C140,67.7,140.2,67.5,140.2,67.3z M140.2,58.9c0,0.3,0.2,0.5,0.4,0.7
		C140.6,59.4,140.5,59.1,140.2,58.9z M140.4,90.4c0.8,0.1,1.3,0.1,1,1.1C140.8,91.4,140.5,91,140.4,90.4z M141.5,96.1
		c-0.1,0.6-1,2.2,0.3,1.7C142.1,97.1,142.5,96.2,141.5,96.1z M141.6,40.9l-0.3,1.1C142.3,42.1,143,40.5,141.6,40.9z M141.9,33
		c0,0.6,0.6,0.4,0.8,0C142.8,33,141.9,33,141.9,33z M142.8,93.7c0.2,0.9,0.5,2,1.7,1.8C144.6,94.3,143.9,93.6,142.8,93.7z
		 M144.3,67.8c-0.6,0-1.7,1.3-0.6,0.8C144.2,68.5,145.5,67.7,144.3,67.8z M143.5,87.7c-0.1,1.5,2,2.2,3.1,2.7
		C146.3,88.9,144.5,88.8,143.5,87.7z M143.6,65.3c0.3,0.2,0.5,0.4,0.8,0.4C144.2,65.5,143.9,65.4,143.6,65.3z M158.7,102.7
		c-2.4-0.2-21.2,13.5-10.2,7.3C151.8,107.8,156.9,106.3,158.7,102.7z M145.7,29.6c1-0.2,6.5,0.9,3.5,1.4
		C148.1,31.2,143,30.9,145.7,29.6z M145.2,42.4c0.1,0.2,0.2,0.3,0.4,0.3L145.2,42.4z M145.7,55.8c0.2,0.2,0.4,0.3,0.7,0.3
		L145.7,55.8z M148.4,65.8c-0.9,0.3-2.5,0.4-2.5,1.7C147.5,67.8,148.5,67.9,148.4,65.8z M146.1,94.4l-0.1,1
		C146.7,96.1,146.4,94.8,146.1,94.4z M146,119.9c0.1,0.3,0.2,0.5,0.4,0.7C146.4,120.4,146.2,120.1,146,119.9z M146.1,62.5l0.1,1.4
		C148,63.9,147.1,63.2,146.1,62.5z M149,120.6c-3.7,0.1-1.2,1.5-0.7,3.5C151.2,128.1,149.3,122.5,149,120.6z M147.1,96.3
		c0.3,0.9,0.1,3,1.4,3.1C148.9,98.1,148.5,96.9,147.1,96.3z M150.1,76.2c0.1,1.7-4.7,3.4-2.1,4.9c2.3-1.1,2,2.3,4,1.8
		c-2-2.1,0.5-2.5-1.3-3.7C149.6,77.4,154.7,78,150.1,76.2z M148.3,90.3c-1.8-0.2-0.8,4.8,0.4,4.8C148.8,93.9,148.5,91.5,148.3,90.3z
		 M147.6,43.1c0.1,0.7,1.6,2,1.8,1C149.4,43,148.4,43.1,147.6,43.1z M147.8,73c0,0.4,0.1,0.9,0.3,1.4
		C148.1,74.2,148.3,73.1,147.8,73z M148,105.1c0,0.3,0.2,0.5,0.4,0.7C148.4,105.5,148.2,105.3,148,105.1z M148.1,115.1l0.1,3.8
		C150.6,119.2,148.6,116.2,148.1,115.1z M149,111.4c-0.1,0.6-1.6,2.1,0.1,1C150.1,111.6,150.6,111.5,149,111.4z M148.4,127
		c0.1,0.6-0.1,1.8,0.8,1.4C149.2,127.7,149.5,126.7,148.4,127z M148.7,33.8c0.1,0.3,0.3,0.6,0.6,0.8C149.2,34.3,149,34.1,148.7,33.8
		z M148.7,130.1c0.1,0.3,0.3,0.6,0.6,0.8C149.2,130.6,149,130.3,148.7,130.1z M149.1,94.6c0.1,1.1,0.6,1.2,1.6,1
		C150.4,95,149.9,94.7,149.1,94.6z M149.2,50c-0.2,1.4,1,2.3,1.7,1C151.1,49.8,150.1,50,149.2,50z M149.4,137.8c0.1,1.3,0.9,1.1,1,0
		C150.4,137.8,149.4,137.8,149.4,137.8z M154,62.9c-0.7,0.2-5.4,2.2-3.8,2.8C150.9,65.4,157.9,63.3,154,62.9z M151.2,43.7
		c-2,0.8,1.5,3,2.7,2.4C155,43.8,152.9,44.6,151.2,43.7z M151.1,116.4c-1.4,0.2,0.6,1.9,1.4,2C153.2,117.1,152.3,116.7,151.1,116.4z
		 M151.6,113.1c-0.1,0.4-0.7,1.6,0.1,1.4C151.8,114.2,152.4,113.2,151.6,113.1z M151.6,123.6c0.2,0.2,0.4,0.4,0.7,0.4
		C152.2,123.8,152,123.7,151.6,123.6z M152.1,29.6c1.3-0.3,3.5,0.4,2.1,1.8C153,31.2,151.4,31.2,152.1,29.6z M152.9,110.6
		c-1.7,0.6-0.6,3.1,0.4,1C153.3,111.1,153.8,110.4,152.9,110.6z M152.4,124.9c0,0.3-0.8,1.4,0,1.4C152.3,126,152.9,125,152.4,124.9z
		 M153.2,128l-0.4,1C153.1,128.8,153.8,128.2,153.2,128z M153.1,124.6l0.8,0.4C153.6,124.8,153.4,124.7,153.1,124.6z M153.5,98.5
		c0.1,1,0.8,1.9,1.7,2.3C155,99.7,154.7,98.5,153.5,98.5z M153.8,117.8c-0.2,0.5-0.4,0.8,0.3,0.8C154,118.6,153.8,117.8,153.8,117.8
		z M153.9,86.6l-0.1,0.8C154.5,88.3,154.4,87.1,153.9,86.6z M154.3,129.8c0.3,0.6,0.8,0.9,1.6,1C155.5,130.4,154.9,130,154.3,129.8z
		 M154.5,113.4c0.1,0.2,0,1.6,0.4,1.6C156.5,115,155.8,113.4,154.5,113.4z M154.5,136.1l0.3,0.6C154.8,136.3,155,136,154.5,136.1z
		 M155.6,118.9l-0.3,0.8C155.9,119.8,156.6,119,155.6,118.9z M155.7,138.8c0.1,1.6,3.8,2.1,1.8,0.1
		C157.6,139,155.7,138.8,155.7,138.8z M157.9,108.8c-1.1,1-2.5,1.1-1.7,3C157.1,111.6,160.3,108.5,157.9,108.8z M155.9,116.1v2
		C159.6,117.5,160.4,116.8,155.9,116.1z M158.6,118.9c0.8,5.2-6.3,3.6,2,5.9C158.5,122.3,160.9,118.6,158.6,118.9z M158,128.8
		c0,0.4,0.2,0.7,0.4,1C158.4,129.3,158.9,128.6,158,128.8z M159,106.4l-0.1,0.8C158.9,107.1,159.4,106.3,159,106.4z M159.7,126.8
		c0,1.1,0,2.5,1.4,2.7C160.9,128.6,160.7,127.2,159.7,126.8z M159.8,112.3v1.3C160.3,114.7,160,112.8,159.8,112.3z M160.5,97.8
		c-0.2,1,0.3,0.6,0.8,0.1C161.4,97.9,160.5,97.8,160.5,97.8z M160.5,102.8c0.1,0.9-0.2,2,1.1,1.3
		C162.1,102.8,161.8,102.7,160.5,102.8z M160.7,115.8l-0.1,1.4C161.5,117.4,160.9,116.5,160.7,115.8z M160.7,109.8
		c0.3,0.3,0.7,0.4,1.1,0.4L160.7,109.8z M162.4,134.6c-0.4,0.2-0.8,0.4-1.3,0.7C161.1,137.3,164.8,135.2,162.4,134.6z M161.4,117.2
		c0.1,0.3,0.3,0.6,0.6,0.8C161.8,117.8,161.6,117.5,161.4,117.2z M162.4,100c-0.3,0.3-0.4,0.6-0.6,1
		C162.1,100.8,162.3,100.4,162.4,100z M164.6,102c-1.7,0.5-1.9,2,0.1,1.4c0.1-0.8,0.5-0.9,1.3-0.7
		C166.4,101.6,165.2,102.1,164.6,102z M163.6,118.2c0.1,0.5,0.3,0.9,0.7,1.3C164.3,118.9,164.6,117.9,163.6,118.2z M164.8,86.6
		c0.1,0.3,0.4,0.6,0.7,0.7C165.4,87,165.1,86.7,164.8,86.6z M165.1,122.2l0.1,0.4C165.2,122.4,165.5,122.1,165.1,122.2z
		 M166.2,132.6c-0.4,0.3-0.8,0.6-1.1,1C166.1,134.3,168.1,133.2,166.2,132.6z M168.3,109.5c-0.6,0-1,0.3-1.3,0.8
		C168.4,111.1,171,109.8,168.3,109.5z M167.3,137v0.7C168.3,137.6,168.2,137.4,167.3,137z M168.2,107.4c0.3,0.4,0.6,0.8,1,1.1
		C169.1,107.9,168.8,107.5,168.2,107.4z M169.3,131.1c-0.3,0.7-0.5,1.2,0.4,1C169.8,131.5,170.3,130.9,169.3,131.1z M172.1,129.4
		c-0.5,0.3-1.4,0.8-1.6,1.4C171.5,131.5,173.4,129.9,172.1,129.4z M171,126c-0.1,0.8,0.3,0.4,0.7,0C171.7,126,171,126,171,126z
		 M171.7,138.5l-0.4,0.4C172.1,140,172.6,139.6,171.7,138.5z M175.1,133.3c2.8-0.1,2.5,8.4,0.6,5.2
		C175.8,136.9,175.4,134.9,175.1,133.3z"/>
	<path class="st0" d="M182.8,38.1c0.7,0.1,11.4,0.1,12,0.4c-1.9,4,2.3,3.5,4.5,4.7c2.3,3.6,3.9-2.1,3.5-4.2
		c-8.7,0.9-1.1-1.6,2.5-0.8c0.4,2.6,8.4,17.7,5.6,19.8c-0.3,1.3,2.2,0.3,2.7,1.7c2.7,5-2.2,0.7-4.8,2.7c5.8,0.7,8,3.3,9,9
		c0.5,1.3,4.1,7.4,2.4,7.6c-0.8,0.1-3.7,1.1-1.1,1c4.6-0.4,3.1,5.4,6.4,7.2c0.9,2.4,8-20.6,8.3-20.3c2.4,0.2,7.9,0.2,10.2-0.8
		c3.3-1.3-7.7,0-8.9-0.4c-1.1-1.9,2.1-5.9,3.1-7.9c0.3-1.1,1.4-6,2.1-6.9c3.6-2.4,1.2-9.7,6.2-11.2c4.1,1.7,25.5-4.3,20.7,6.1
		c-0.8-2.8-2.9-3.7-3.2-0.1c0.6,2-4.2,0.5-5.2,0.4c-8.8,3.6-8.7-11-9.5,8.3c3.4,0.1,1.3,5.1,2.8,7.2c0.1-2,0.7-6-0.6-7.5
		c-2.1-2.8,3.1-2.6,4.8-2.4c-0.3,0.7,0.2,1.9,0.6,2.5c-0.2,0.7-0.2,1.3,0.6,1.4c2.5,1.2,9.3-4,9.3-1.8c-1,0.1-0.2,1.5-1.3,2.1
		c1,2.4-7,0.5-5.6,4.1c3.1,0.5,1.5-4.4,7.6-0.4c-0.8,0.2,1.5,82.2-0.8,80.9c-18.9,1.7-5.7-5.3-13.7-4.1c-4.1,2.1-5.5,2.9,0.1,1.6
		c-8.6,10-6.6-6.7-6.8-11.9c2.9-5.9-0.5-13.5,1.4-19.1c-1.1-2.3,1.6-1,2.5-2.3c-1.5-5.1-1.7-2.6-1.7,0.6c-3.6-2.2,1.2-8.2-0.1-11.6
		c-1.2-1.4-1.1-3.7,0.1-5.1c2.2-1,1,1.3,1.3,2.5c1.2,4.9,2.5,4.8,2.3-0.1c0.9-1.8-1.1-2.5-1.1-4.2c2.1-2.2,3.3,2.8,4.5,2.3
		c-1.2-2-0.2-4.1-1.1-6.1c-2.2-10.1-2.6-2-1.1,2.4c-4,1.6-3.3-6.6-5.5-7.1c0,5.6-2.1,0.6-6.4,1.7c0.2,4.8,7.3-4.1,0.4,7.5
		c-1.3,3.3-2.1,12.9-9,13.7c-1.2,0.6-4.3-0.5-4.4,1.3c1.7-0.3,5-0.3,6.5,0.6c-0.3-1.5,0-1.7,1.4-1.6c1.1,4.1-10.8,1.8-6.2,3.4
		c0,0,4.5,0,4.5,0c0,1.3-2.1,8-3.1,5.1c-2.4-2.8-1.5,1.2-1.1,2.4c2.7,6-10.6,4.7-1.4,5.6c1.6,2.7-7.6,0.6-8,1
		c0.1-5.5-1.4-2.2-2.7-7.3c1.2-1-0.5-2.3-1.4-3c-1.7-3.3,0-5-3.2-7.9c-0.2-5.1-13.1-19.2,1.6-13.8c4.4-0.9-7.4-2.7-8.2-3
		c-7.7-1.9,1.2,24-3.7,23.3c-9.8,0.5-10.4-0.4-1,3.1c-2-2.2,3.5-2.8,3.1,0.3c-2.4,0.3,0.1,1.6,0,3c0.6,1.9-1.7,3.5,0,5.1
		c-0.4,0.3,0.7,18.1-0.8,17.4c-0.6,1-1.9,1.3-3,1c-0.9,0.2-1.5,1.4-2.7,1.3c-0.3-1.4-0.5,1.1-0.4,1.7c0,0-16.1-0.8-16.1-0.8
		c-0.1-1.7,0.1-5.5,0.3-7.2c0.7,3.9,2.7,5,3.7,0.4c1.4-0.2,4.7,0.4,6.1,0.7c1.1-2.1,1.7-2.2,3-0.1c2.7-1.2,2.6,2.4,3.2,4
		c2.1-1.7,3.6-4.4,0.4-6.1c-3.2-0.6,7.4-3.6-4.1-3.5c-3.1,1.2,0.2-4.9-4.5-4.2c-2.5,0.5-5.3,3.1-8,2.5c3.7-4.6,0-3.2,7.8-5.4
		c1-1.3-1-2.2-1.8-1.4c-0.1,2.6-2.5,1.7-4.2,1.3C179.7,121.4,183.5,39.8,182.8,38.1z M184.6,39.4c-0.8,1.5,0.2,3.3,0,4.9
		C187.4,46.5,187.2,39.1,184.6,39.4z M184.2,111.4c0.1,0.8,0.4,0.5,0.8,0C185,111.4,184.2,111.4,184.2,111.4z M187.7,114.6
		c-2.8,1-4.2,5.7-0.7,2c0-1,2.1-0.3,2.5-0.4C189.4,115.2,188.8,114.6,187.7,114.6z M185.7,46l-0.7,0.4C185,49.3,187.8,46.3,185.7,46
		z M185.7,90.9l0.4,2C188.4,94.9,187.8,90.8,185.7,90.9z M185.7,95c0.1,1.3,1.2,4.2,1.7,5.4c2.9,1.8,0.9-3.8,1.3-5.1
		C188.2,95.1,186.3,95,185.7,95z M186,86.8c0.1,0.7-0.3,1.8,0.8,1.3C186.8,87.5,187,86.5,186,86.8z M188.4,126.9
		c0.6,0.2,1.1,0.7,1.3,1.4C190,130.6,184.6,127.7,188.4,126.9z M187.9,104.2c0.2,1.8,1.8,2,1.6,0
		C189.4,104.2,187.9,104.2,187.9,104.2z M188.8,130c0.3,0.1,0.6,0.4,0.8,0.8C188.8,130.8,187.4,131.1,188.8,130z M188.8,106.6
		c-0.2,1.3,0.4,0.8,1.3,0.6C190.1,107.1,188.8,106.6,188.8,106.6z M189.3,134.4c0.2,0,0.9,0.2,1.1,0
		C190.4,134.4,189.3,134.4,189.3,134.4z M190.7,123.8c1.8,0.1,1.4,2.1-0.3,2C190.4,125.8,190.7,123.8,190.7,123.8z M190.5,69.9
		c0.2,0.3,0.9,0.7,1,0C191.5,69.9,190.5,69.9,190.5,69.9z M191.4,43.2c-0.8,1.3-0.3,1.4,1,1.4C193.6,43.6,192.5,43.1,191.4,43.2z
		 M191.2,73.7c-0.9,1.7,0.7,1.9,2,2C193.2,74.5,192.5,73.8,191.2,73.7z M191.8,94.2c-1.6,0.8-0.7,4,1.1,3.8
		C192.6,97.5,193.3,93.3,191.8,94.2z M191.8,64.8c-0.2,1.1-0.1,1.2,1,0.8C193.5,64.7,192.5,64.8,191.8,64.8z M192.9,127.6
		c-0.1,1.1,0.7,2.6-1.1,2C191.6,128.5,191.5,127.6,192.9,127.6z M192.5,71c-1.5,0.2-0.3,1.3,0.7,0.8C194.6,70.8,193.6,71,192.5,71z
		 M195.9,118.3c-1.8,0.4-3.6,1.6-3.7,3.7C193.2,120.9,197.2,120,195.9,118.3z M192.5,50.7c0,0.3,0.2,0.5,0.4,0.7
		C192.9,51.1,192.8,50.8,192.5,50.7z M192.5,68c0.5,0.4,1.1,0.5,1.8,0.6C193.8,68.3,193.2,68.2,192.5,68z M193.1,45.9l-0.4,0.7
		C193.1,46.4,193.9,46.4,193.1,45.9z M192.9,76.5l-0.1,0.7C193.4,77.3,193.2,76.9,192.9,76.5z M193.1,79.9c-0.3,1.6,0.6,4.4,1.7,5.6
		C195.2,83.7,194.4,80.4,193.1,79.9z M195.1,115.6l-1,0.4C194.3,117.2,196.2,116.4,195.1,115.6z M194.2,65.5c0,0.9,0.5,1.1,1.3,0.8
		C195.2,65.8,194.8,65.5,194.2,65.5z M194.4,73.8c-1.3,2.3,3.2,1.7,1.7,0.1C196,74,194.4,73.8,194.4,73.8z M194.9,49.1
		c0.9,2.2,0.8,2.3-0.6,4.1c1.4,2,14.2,0.8,7.5,0c-1.4-0.3-3.5-0.6-4.7,0.4C197.2,51.6,198,48.6,194.9,49.1z M194.5,86.7v1.4
		C195.1,87.8,195.6,86.3,194.5,86.7z M194.5,89.8c0.1,0.3,0.3,0.5,0.6,0.7C194.9,90.2,194.8,90,194.5,89.8z M194.8,93
		c0.1,0.5,0.4,2.1,0.7,2.5C197.4,95.2,196.4,93.2,194.8,93z M195.2,102.5c0.3,0.2,0.7,0.4,1.1,0.4L195.2,102.5z M195.2,124.9
		c0,1.1,0.2,1.5,1.3,1C197,124.8,195.9,125.1,195.2,124.9z M195.5,122c0.5,1,2,1.1,3,1C197.8,122.3,196.4,122.1,195.5,122z
		 M196.5,56.2c-0.2,1.4,1.5,1.2,1.4,0C197.9,56.2,196.5,56.2,196.5,56.2z M197.5,47.9c0.4,0.8,1.4,1.4,2.1,2.1
		C199.1,49.2,198.6,47.8,197.5,47.9z M197.6,40.2c0.8,0.2,1.3,0.6,0.3,0.8C197.9,41.1,197.6,40.2,197.6,40.2z M197.7,89.1
		c0.2,0.8,0.5,1.3,1.4,1C199.4,88.9,198.6,89.1,197.7,89.1z M198.6,64.9l-0.4,0.4C198.8,65.7,199.3,65.6,198.6,64.9z M198.6,115.6
		l-0.4,0.8C198.9,116.6,199.3,116.2,198.6,115.6z M198.3,125.1l0.1,0.6C200.2,125.6,199.8,125.3,198.3,125.1z M198.9,83.6
		c0,0.4,0.2,0.7,0.4,1C199.2,84.2,199.1,83.9,198.9,83.6z M201.4,117.4c-0.9,0.4-2.3,0.9-2.3,2.1
		C200.2,119.3,201.4,118.7,201.4,117.4z M199.9,45.3c-1.4,0.9,1.3,3,2.7,2.3C201.3,47.3,200.6,46.5,199.9,45.3z M199.3,75.5l0.1,1
		C200.4,76.5,199.8,75.9,199.3,75.5z M199.4,113.2l0.3,0.7C201.6,113.8,200.9,113.6,199.4,113.2z M199.9,42.1h0.8
		C200.3,42.6,199.7,43.1,199.9,42.1z M200,111.1c0.2,0.2,0.4,0.4,0.7,0.4C200.5,111.3,200.3,111.2,200,111.1z M200.4,62l-0.1,0.8
		C201.8,62.8,202.2,62.6,200.4,62z M200.7,138.6c0.6,0.2,3,0.1,2,1.3C201.4,140.4,200.9,140,200.7,138.6z M201.3,66.6l0.6,1.4
		C203.4,67.7,202.4,66.9,201.3,66.6z M201.5,82.6c0,0.2,0.2,0.4,0.4,0.6C202,82.9,201.8,82.7,201.5,82.6z M201.7,48.7
		c0.2,0.3,0.5,0.5,0.8,0.6C202.3,49,202,48.8,201.7,48.7z M202.8,72.4c-2-0.1-0.8,3.1-0.3,4.4C204.3,76.8,202.9,73.7,202.8,72.4z
		 M201.8,91.6c0.2,1.3,1.3,1.4,1.3,0C203.1,91.6,201.8,91.6,201.8,91.6z M202,89.2v0.7C202.5,89.6,202.7,89.5,202,89.2z M203.4,78.1
		l-0.4,1.8C204.3,81,205.1,78,203.4,78.1z M203.1,94.6c0.3,0.6,0.8,1.2,0.8,0.1C203.9,94.7,203.1,94.6,203.1,94.6z M204.4,39.2
		c0,0.5,0.2,1,0.6,1.4C204.8,40.2,204.7,39.7,204.4,39.2z M204.4,62.5l0.1,1.7C205.5,63.9,205.6,62.3,204.4,62.5z M205.4,51.8
		l0.1,0.4C205.5,52,205.8,51.7,205.4,51.8z M205.9,61c-0.6,1.3,1.1,1.3,2,1.1C208,61,206.7,61,205.9,61z M205.9,77.2v1
		C206.9,78.2,206.6,77.6,205.9,77.2z M206.2,43.6c0,0.2-0.4,0.9,0.1,0.7C206.4,44.2,206.2,43.7,206.2,43.6z M209.3,64.4
		c-5.7,1-0.9,0.5,1.7,1.8C213.7,65.2,210.8,64.2,209.3,64.4z M206.1,79.9c-0.1,5.1,6.3,0,9.9,2.1C220.4,81,208,79.8,206.1,79.9z
		 M207.2,55.6l-0.4,1.1C208.2,57.2,208.2,56.5,207.2,55.6z M207.1,58.4l-0.1,1C208,59.5,208.2,58.8,207.1,58.4z M209.9,70.6
		c-4.3,2.3-1.6,12.5,0.6,1.6C210.4,71.4,211.2,70.2,209.9,70.6z M209.7,55.6c0.1,0.6,0.5,1.1,1.1,1.3
		C211,55.9,210.9,55.4,209.7,55.6z M210.4,66.9c-0.3,0.7-0.6,1.7-0.3,2.5C212,69.7,211.1,67.9,210.4,66.9z M215.2,76.5
		c-0.9,0.3-2.8,0.4-3.2,1.4C212.8,78,217.2,77.6,215.2,76.5z M212,91.8c-0.1,1,0.2,0.6,0.7,0C212.7,91.8,212,91.8,212,91.8z
		 M216.7,95c-0.6,0.2-1.2,0.7-1,1.4C216.8,96.4,218.8,95.5,216.7,95z M216.2,91.2c0,0.3,0.2,0.5,0.4,0.7
		C216.6,91.6,216.5,91.4,216.2,91.2z M217.9,107.4c0.1,0.2,0.2,0.3,0.4,0.3L217.9,107.4z M219.5,104.2c0.1,0.3,0.3,0.9,0.7,0.8
		C225.6,104.7,223.7,104,219.5,104.2z M227.2,102.3c-0.4,0.1-0.8,0.2-1,0.4C226.7,102.7,227,102.6,227.2,102.3z M226.4,113.9
		c0.4,0.7,1.1,1,1.8,0.7C227.7,114.3,227.1,114.1,226.4,113.9z M227.4,88.2c0,0.8,0.5,0.9,1.1,0.6C228.5,88.8,227.4,88.2,227.4,88.2
		z M228.1,95.6c-1.3,3.8,1.2,3.9,3.5,1.7C231,96.1,229.4,95.7,228.1,95.6z M229.6,106c0,0.3-0.1,1.4-0.3,1.7
		C230,108,230.3,106.1,229.6,106z M230.3,82.7c-0.1,0.6-0.9,1.7,0,2.1C232.1,84.6,232.4,82.6,230.3,82.7z M231.6,80
		c0.3,0.6,1.2,0.2,1.7,0.1L231.6,80z M231.9,85.8c0,0.3,0.2,0.5,0.4,0.7C232.3,86.2,232.1,86,231.9,85.8z M237.4,73
		c-1.1,0.6-5.5,2-4.7,3.2C233.3,75.7,237.8,74.2,237.4,73z M233.5,93.3c0,1.3,2,2.4,1.8,0.4C235.2,93.3,233.7,93.4,233.5,93.3z
		 M234.4,81.4c0.1,0.4,0.4,0.7,0.7,1C235,82.1,234.8,81.7,234.4,81.4z M238.3,84c-1.2,0.3-4.8,1.4-3.1,3.1
		C235.8,85.5,240.1,85.5,238.3,84z M236.6,75.7c-0.5,0.3-0.1,1.3,0,1.7C237.8,78.4,238.3,74.9,236.6,75.7z M237.1,79
		c-0.6,1.1-0.8,2.1,0.8,2.4C238.5,80.4,238.6,79.3,237.1,79z M242.5,71.3c-0.9,0.3-3.2,0.3-3.4,1.6C240.2,72.6,242,72.5,242.5,71.3z
		 M242.6,76.8c-0.9,1-0.4,1.3,0.7,1.1C244.2,77.4,243.3,77,242.6,76.8z M244.9,48.6l0.1,0.8C246.2,49.5,245.9,48.6,244.9,48.6z
		 M245,69.6c0.1,0.4,0.4,0.7,1,0.7C245.9,69.8,245.6,69.6,245,69.6z M245.5,72.3l-0.4,2C245.5,77.3,246.6,73.4,245.5,72.3z
		 M246.2,53.5l-0.4,1.4C246.5,55.1,247.4,53.1,246.2,53.5z M246.3,64.7c-0.2,1.2-0.3,2.8,0.6,4C247.1,67.3,247,65.8,246.3,64.7z
		 M246.3,58.6c0.1,0.3-0.1,4.1,0.4,4.1C246.7,61.5,246.9,59.7,246.3,58.6z M247.3,70.6c0.1,1.5-0.7,6.1,1.4,6.4
		C248.9,75,249.8,71.3,247.3,70.6z M249,57.2c0.1,0.4,0.4,0.6,0.8,0.7C249.6,57.5,249.4,57.3,249,57.2z M249.4,58.9
		c-0.1,0.4-0.5,1.3,0.1,1.4C249.6,59.9,250.2,58.9,249.4,58.9z M249.4,63.9c0.1,0.6,0.4,0.9,1,1C250.4,64.4,250,64,249.4,63.9z
		 M250.4,69c0.2,1.9,2.9,3.1,3.2,0.7C253.1,69,251.1,69.1,250.4,69z M251.2,110.5l-0.6,1.4C251.3,112.3,252.1,110.6,251.2,110.5z
		 M251.9,113.1c-2.3,2.8,1.7,6.6,1.3,9.9c-2.4,3.2-1.6,9.4,2.3,10c-2.2-2.4-1.5-2.2-0.4-4.8c-2.5-1.9,1.4-0.9,1.1-3
		c-2.4-1.4-2.6-4.5-2-6.9C251.8,117.5,253.8,114.1,251.9,113.1z M251.1,107.8c-0.3,1.9,1.4,2.1,1.6,0.1
		C252.7,108,251.1,107.8,251.1,107.8z M251.2,49.5h0.7C251.9,50.9,251.6,50.9,251.2,49.5z M252.2,64.7c-0.1,0.7-0.4,2.2,0,2.8
		C253.6,67.2,253.5,65.2,252.2,64.7z M252.2,96.4c0,0.6,0.1,1.2,0.3,1.8C252.5,97.9,252.7,96.6,252.2,96.4z M252.4,73.8
		c0.5,0.8,1.1,1.7,2,2.1C254.4,74.6,253.8,73.7,252.4,73.8z M254.3,103c-1.1-0.1-0.8,0.7-0.7,1.4C254.7,106.3,257.6,102.7,254.3,103
		z M253.9,52.4c-0.7,1.2,0.6,1.4,1.3,0.7C255.3,52.2,254.5,52.4,253.9,52.4z M253.8,56c0.2,0.3,0.5,0.4,0.8,0.6
		C254.4,56.3,254.1,56.2,253.8,56z M257.6,56.7c-0.7,0.8-4.7,2-3.2,3.2C255.7,59.7,259,58.5,257.6,56.7z M255.2,91.3
		c-0.6,0.5-0.3,0.9,0.3,1.1C255.6,92,256.1,91.3,255.2,91.3z M255.3,93.2c-0.3,0.6-1,1.7,0.1,1.4C255.6,94,256.3,92.9,255.3,93.2z
		 M255.1,115.3v0.8C255.5,115.7,256.1,115.2,255.1,115.3z M255.6,62l-0.4,0.8C255.8,63,256.4,62.2,255.6,62z M255.3,95.6
		c0.3,1,1.6,1.5,1.1,3C258,98.4,256.6,95.6,255.3,95.6z M255.6,109.7v0.7C257.9,110.9,258.1,110.3,255.6,109.7z M257.2,106.7
		l-1.4,0.6C256.6,108.1,259.6,107.4,257.2,106.7z M256.9,102.9c0.1,1.4,2.3,3.2,2.1,0.7C259,103,257.3,103,256.9,102.9z
		 M256.9,112.9c0,0.8,0.9,1.2,1.6,0.8C258.8,112.6,257.6,113,256.9,112.9z M256.9,132.3c0.1,0.4,0.5,0.3,0.7,0
		C257.6,132.3,256.9,132.3,256.9,132.3z M257.2,134.1c-1.1,1.6,1.9,1.8,2.3,0.4C259.3,134.1,257.5,134.2,257.2,134.1z M257,101.2
		c0,0.3,0.2,0.5,0.4,0.7C257.4,101.6,257.3,101.4,257,101.2z M257.2,48.8c1.9-0.5,1.9,2.2,0,2.1C257.2,51,257.2,48.8,257.2,48.8z
		 M257.3,127.2c0,0.3,0.2,0.5,0.4,0.7C257.7,127.6,257.5,127.4,257.3,127.2z M257.5,80.6c-0.1,1.1,0.2,2.9,0.1,4
		C259.7,84.9,259.5,80.5,257.5,80.6z M258.6,52.9c0.7,0,1.4-0.1,1.1,0.8C259.4,55.9,257.7,54.4,258.6,52.9z M258.7,108.3
		c0.2,0.1,0.5,0.2,0.8,0.3L258.7,108.3z M259.6,43.9c0.1,0.7,0.7,0.3,1.1,0.1C260.7,44,259.6,43.9,259.6,43.9z M260.4,71.1
		c-1.2,1,1.1,1.3,1,0C261.4,71.1,260.4,71.1,260.4,71.1z M260.4,47.9h1.6C262.1,48.9,260.2,49.1,260.4,47.9z M260.4,49.5
		c1.1,0.1,2.9,0.2,3.1,1.7C261.6,51.5,260.3,52.4,260.4,49.5z M265.2,60.3c-1.6,0.8-2.3,2.9-4.5,2.1C260.8,66,266.5,61.7,265.2,60.3
		z M260.8,72.8l0.1,1.7C263,74.7,262.4,73.3,260.8,72.8z M261.7,77.9c-1.7,2-0.2,6.9,3,5.5C264.1,82.3,263.5,77.9,261.7,77.9z
		 M262.7,85c0,1.3,0,2.9,1.8,2.7C264.4,86.5,264.1,85.2,262.7,85z M263.8,90.3c-0.7,0.4-0.4,1.1,0.1,1.6
		C263.9,91.5,264.6,90.3,263.8,90.3z M263.7,131c0.1,1.2-0.1,2.1,1.4,1.4C265.5,131.3,264.7,130.8,263.7,131z M264.4,133.4
		c-2.7,2.5,2.4,9.5,1.3,2.8C265.7,135.2,265.5,133.8,264.4,133.4z M265.2,66.6l0.1,0.8C266.1,67.2,265.8,66.9,265.2,66.6z"/>
	<path class="st0" d="M290,36c8.4,1.3,34.8-2.5,41.2,1.8c0.5,15.8,4.4,20.9-14.3,19.6c0.1-2-0.7-4.8,2-2.5c0.3-1.9-2.2-2.4-2.4-0.1
		c-0.6,5.6-9.9,1.2-13.6,2.4c-2.1,0.7,0.2,3.6-1.4,4.8c-0.8,0.4-1.8,1.3-1.7,2.3c1.6,0.4,2.5-1.2,2.3,1.7c-0.1,3.1-4.3,0.8-5.4,3.8
		c0.3,0.3,3.6-0.5,4-0.6c1.6,1.2,1.9,3.7,1.7,5.5c7.4,0,14.8-3.8,13.8,6.9c2.7-1.9-1.8-5.8,4.8-6.4c10.1-5.4,7.4,15.2,6.2,19.2
		c-17.6,5.3-4.6-7.5-9.3-8.8c0.3,3.5-1.9,6.6-2.1,9.5c-6.7,0.7-16.4-3.4-13.7,7.5c-2.6,0.1-2.6,2.4,0.1,2c0,0.2-0.1,5.2,0.1,5.2
		c0.3,1.2-1.2,6.3-0.1,6.5c5.2-0.2,16.3-3.6,14.1,5.4c1.3-7.7-0.8-5.2,11.6-5.9c5.6-4,2.9,21.5,4,23.3c-0.6-1.5-57.1,2.9-53.9-2.1
		c1.4-0.6-2.9-60.8,1.7-55.6c0.7-1.9,0.2-1.9-1.5-1.7c0.3-0.8-0.8-13.8,1.6-5.2c0.1,2.3,1-1.4,0.6-2.1c-0.2-2.9-2.8,0.2-2.3-3.2
		c2-0.8,2.5,1.5,4,2.1c1.3-2.3-0.8-5.8-0.3-8.5c-2.4,1.8,1.7,9.9-3.7,3.5c0.1-4.4,0-13.6,0-18.1c2.4-3.7,1.5,5.5,4.1,2
		c-3-2.9,1.8-7.1,1.4-1.6c2.9,0.7-1-5.6,2.5-5.5c0.1,1.8,1.6,5.2,2.1,5.5c0.5-2.9-1.6-5.8,0.1-7.8C285.4,38.8,286.2,35.6,290,36z
		 M278,36.2c0.9,0.5,8.4-1,7.5,1.6c-0.8,1.8,2,4.9-1.1,4.2c-0.1-8-2.3-3.5-0.8,1.3C273.3,50.5,279.7,41,278,36.2z M278.6,37.8
		l0.3,1.6C279.8,39.3,279.6,37.5,278.6,37.8z M279,40.5c-0.3,1.1-0.6,3.7,1.3,3C280.8,42.1,280.2,41,279,40.5z M286.3,83.1
		c0,3.9-8.3,1.5-7.5,6.6C279,86.4,289.1,87.7,286.3,83.1z M279.7,76.3l-0.3,0.8C280,77.1,280.1,76.8,279.7,76.3z M280.4,83.4
		l-0.8,0.7C279.9,85.4,280.2,84.1,280.4,83.4z M283.2,88.5c-0.6,0.1-4.5,1.2-2.3,1.1C282,90,284.2,90.1,283.2,88.5z M280.7,54
		c-0.3,1.4-0.3,3.2-0.1,4.7C282.9,59,281.8,55.1,280.7,54z M280.8,122.9c0.1,1.7,2.1,0.8,3.1,1.1
		C283.1,123.6,281.7,123.2,280.8,122.9z M281.2,93.3l-0.1,1.1C281.8,95.2,281.4,93.8,281.2,93.3z M281.4,96.2l0.1,1.8
		C281.4,98,281.7,96,281.4,96.2z M282.1,82.1c-0.6,1.2,0.1,2,1.1,2.8C283.4,83.8,283.6,82.4,282.1,82.1z M282.4,74.8
		c-0.3,0.4-0.7,1.3-0.1,1.6C282.3,76,282.9,75,282.4,74.8z M283.1,91.9v1.3C284.3,93.2,284.5,91.5,283.1,91.9z M284.1,49.9
		c-0.1,1.3,1.2,15.1,2,14.5c0.8-2.6,0.2-4.5-0.7-6.9C285.1,56.4,285.1,50.8,284.1,49.9z M283.9,95.8c0,0.3,0.1,0.7,0.3,1
		C284.2,96.6,284.3,95.8,283.9,95.8z M283.9,101.7v2C284.7,103.2,285.5,101.5,283.9,101.7z M284.3,106c-0.4,0.8-0.4,1.9,0.4,2.5
		C284.9,107.7,285.3,106.5,284.3,106z M284.9,126.6c0.3,0.3,0.8,0.5,1.3,0.6C285.8,126.9,285.4,126.7,284.9,126.6z M285.5,66.7
		c-0.6,4.4,0.3,9.8,0.7,14.3c0.8,0.4,2.4-0.3,2.7,0.8c-0.2,3.7,0.8,7.8,2.5,11c0.5,1.1,0.4,9.3,2,5.9c0.3-2.7-0.2-7-1-9.6
		c-0.7,1.8-1.8-1.1-1.8-2.3C288.3,78.8,288.7,73.4,285.5,66.7z M286.5,87.8c-1.8,2.1,0.6,12.4,2.3,12.7
		C287.6,96.2,289.3,91.4,286.5,87.8z M285.8,114.4c-0.2,0.7,0.2,0.8,0.8,0.7C286.4,114.8,286.1,114.6,285.8,114.4z M286.2,49.8
		c0,0.4,0.2,0.6,0.6,0.8C286.7,50.3,286.5,50,286.2,49.8z M286.6,52.5c-0.3,5.6,3.8,13.4,2.1,17.6C292,69.9,289.2,53.2,286.6,52.5z
		 M287.4,75.8c0.5,1.3,0.9,3,0.8,4.7C286.4,80.2,286.9,77.3,287.4,75.8z M287.4,103l-0.3,1.3C288.4,104.5,287.9,103.8,287.4,103z
		 M288.4,110.6c-1.3,1.1-1.1,2.3,0,3.4C290.2,114,289.5,111.4,288.4,110.6z M289.7,102.2c-0.6,2.9-4.7,7.8,1,6.9c0,0,0-1.3,0-1.3
		C288,106.8,291.2,102.3,289.7,102.2z M288.4,115.6c-0.1,3.1-0.2,8.1,2.1,10.4c0,0.8,0,2.9,0.1,3.7c-0.8,0-1.2,0.5-1.1,1.3
		C295.2,130.4,289.4,119.1,288.4,115.6z M288.4,49.9c0.2,0.6,0,2,0.8,1.8C289.2,51.1,289.7,49.5,288.4,49.9z M290.1,132.9
		c-0.1,0.4-0.4,1,0,1.3C290.1,133.9,290.7,133,290.1,132.9z M291,113.5c0.1,1.2,1.3,1.3,1,0C292,113.5,291,113.5,291,113.5z
		 M291.5,72.4c0,1.1,0.1,13.7,2,11.3c0.1-2.4-1.8-7.6-1.3-10C293.4,72.4,292.9,72.5,291.5,72.4z M291.4,85.9c0,0.6,0.1,1.2,0.4,1.8
		C291.8,87.2,291.7,86.5,291.4,85.9z M291.8,117.8c-0.2,1.1-0.5,2.8,0.3,3.8C291.8,120.7,292.4,118.6,291.8,117.8z M292.5,100.9
		c-0.2,2-1,5.5,1,6.8C293.6,105.6,294.3,102.5,292.5,100.9z M292.4,70.1c0.1,0.3,0.3,0.4,0.6,0.6C292.8,70.5,292.6,70.3,292.4,70.1z
		 M293.2,57.4c-0.4,0.4-0.2,0.9,0.1,1.3C293.4,58.4,293.8,57.5,293.2,57.4z M294.2,109.2c-0.2,1.2-0.4,3.1-0.1,4.5
		C294.5,111.9,298.4,108.9,294.2,109.2z M294.1,67.9l0.1,1.1C295.6,68.8,295.1,68.4,294.1,67.9z M294.4,115.6c-0.1,2-1.1,8.9,1,9.9
		C296,122.3,295.9,118.6,294.4,115.6z M294.9,70.3c-0.6,0.9-0.7,2,0.7,1.3C296.7,70.4,296.1,70.5,294.9,70.3z M295.1,126.7
		c-0.4,2.6,0.2,7.2,0.7,1.8C297,126.8,297.4,127.2,295.1,126.7z M295.1,86.8v1C295.9,87.8,296.1,86.5,295.1,86.8z M296.5,74.5
		c0.1,0.3,0.4,0.6,0.7,0.7C297.1,74.9,296.8,74.6,296.5,74.5z M298.7,73.6l-0.3,0.7C298.6,74.2,298.7,73.9,298.7,73.6z M299.6,132.9
		c-0.4,0.3-0.3,0.5,0.1,0.4C299.7,133.3,299.8,132.8,299.6,132.9z M300,84.5l-0.1,1C300.4,85.4,300.3,84.9,300,84.5z M301,122.4
		c-0.7,0.1-0.6,0.4,0,0.7C301.2,122.7,301.7,122.4,301,122.4z M300.9,128.3c-0.6,1.1,0.2,0.8,1,0.8
		C302.2,128.1,301.6,128.3,300.9,128.3z M300.9,46.3c-0.1,1.2,0.9,1.6,2,1.6C302.2,47.3,301.5,47,300.9,46.3z M301,125.6v1
		C301.3,126.2,302,125.4,301,125.6z M302,78.4c0.1,0.4-0.6,2.4,0.4,2.3C302.3,80.4,302.7,78.3,302,78.4z M301.8,82.3
		c0,0.5,0.1,0.9,0.4,1.3C302.2,83.1,302.8,81.9,301.8,82.3z M302.3,85.4v1C303.3,86.3,302.9,85.8,302.3,85.4z M303.8,43.7
		c-0.1,0.5-0.5,1.6-0.4,2.1C303.6,46,304.5,43.4,303.8,43.7z M303.4,92.4c0.1,1,0.3,0.5,0.7,0C304.1,92.4,303.4,92.4,303.4,92.4z
		 M304.4,124.9c0.1,0.7,0.5,1.4,1,2C305.6,126,305.5,125,304.4,124.9z M304.5,120.9c0.2,0.2,0.4,0.3,0.6,0.3L304.5,120.9z
		 M306.1,129.4c0.2,0.3,0.5,0.4,0.8,0.6C306.7,129.7,306.5,129.5,306.1,129.4z M306.6,37.5c0.4,0.2,0.5,0.2,0.4-0.3
		C306.9,37.2,306.7,37.4,306.6,37.5z M307.1,119.2v1.8C307.2,120.1,309,119,307.1,119.2z M307.6,124.2c-0.2,0.4-0.9,1.2-0.3,1.6
		C307.5,125.3,308.5,124.4,307.6,124.2z M307.8,54l-0.4,0.7C308,54.8,308.3,54.7,307.8,54z M307.9,43.7l-0.3,1.6
		C308.6,45.5,308,44.4,307.9,43.7z M313.4,75.1c-1.1,0.6-3.4,1.3-3.5,2.8C311.3,78.1,313.5,76.8,313.4,75.1z M311.3,51.3l-0.3,0.6
		C311.6,52,311.4,51.7,311.3,51.3z M312.6,53.2l-1.3,0.8C310.6,55.8,314.9,53.6,312.6,53.2z M311.3,127c0.1,0.7,0.5,1.3,1.3,1.8
		C312.2,128.2,311.8,127.6,311.3,127z M312,91.7l-0.1,1.4C313.3,93.4,312.9,92.4,312,91.7z M312.2,40.3c0.2,0.4,0.5,0.8,1,1
		C313.1,40.8,312.8,40.4,312.2,40.3z M313.8,122.4c-0.7,0.4-1.3,1.3-1.4,2.1C313.4,124.7,315.6,122.2,313.8,122.4z M318.5,44.1
		c-1.7,2.1-6.2,3.7-1.3,3.5C319.1,49.5,319.4,44.1,318.5,44.1z M314.8,42.7c0.1,1.7,1.9-1,0.3-0.6C315.1,42.2,314.8,42.7,314.8,42.7
		z M316.4,50.4c-0.6,0.4-0.9,1-1,1.8C317.2,52.5,317,51.8,316.4,50.4z M317,82.8c-0.9,0.8-1,2-0.3,3C316.8,85.1,318,83.2,317,82.8z
		 M316.1,88.8c0,0.5,0.3,0.9,0.8,1C316.9,89.2,316.6,88.9,316.1,88.8z M316.2,125.2c0,0.5-0.4,2.1,0.6,1.6
		C317.1,126,317.3,125.1,316.2,125.2z M319.3,83l-0.3,0.8C320.2,84,320.8,83.5,319.3,83z M319.9,80.4c0.1,0.3,0.4,0.5,0.7,0.6
		C320.5,80.7,320.3,80.5,319.9,80.4z M321.3,77.2l-0.8,0.7C320.7,79.1,322.4,77,321.3,77.2z M321.3,121.4l-0.3,0.6
		C321.5,121.8,321.7,121.8,321.3,121.4z M323.9,86.8l-1.3,1.1C320.7,89.7,324.2,88.4,323.9,86.8z M322,125.7c0.1,0.4,0.3,0.7,0.7,1
		C322.7,126.1,322.9,125.5,322,125.7z M324.9,119.8c-0.9-0.1-1,0.6-1,1.3C324.5,121.9,324.7,120.3,324.9,119.8z M324,86.4l0.1,0.4
		C324.1,86.7,324.3,86.2,324,86.4z M324.3,129.4c-0.1,0.9,0.9,0.3,1.4,0.3C325.7,129.7,324.3,129.4,324.3,129.4z M324.4,126.9
		c0.3,1.6,0.7,1.5,0.8,0C325.3,126.9,324.4,126.9,324.4,126.9z M325.7,77.7c-1.3,1-0.4,4.4-0.1,1.1C326,78.8,326.2,77.9,325.7,77.7z
		 M325.7,37.2c0,1.2,1-0.4,0.1-0.3C325.8,36.9,325.7,37.2,325.7,37.2z M325.7,39.3c0.2,0.3-0.4,4.7,0.7,4
		C326.4,42.3,327.5,39.1,325.7,39.3z M326,45.1c-0.2,0.9-0.1,1.1,0.8,0.8C327.1,45.1,326.8,45.1,326,45.1z M326,53
		c0,0.7,0.2,0.7,0.8,0.4C326.8,53.5,326,53,326,53z M327,90.2c-0.2,0.2-0.3,0.4-0.3,0.7C326.9,90.7,326.9,90.4,327,90.2z
		 M326.7,122.1v1C326.9,122.7,327.4,122.2,326.7,122.1z M327.3,124.5c-0.4,1.6,1.1,1.2,1.3,0C328.5,124.5,327.3,124.5,327.3,124.5z
		 M329.1,118.3l-0.1,2C329.5,120.4,329.8,117.9,329.1,118.3z M330.6,134.1v1C331.7,135.2,331.2,134.6,330.6,134.1z"/>
	<path class="st0" d="M410.2,31.8c0.2,1.7,7.8,6,5.2,3c-3.6-1-3.9-3.4,0.3-1.8c1-1.7,2.4-1.1,4.1-0.4c5.4,1.1,18.3-0.7,17.8,7.6
		c0.9-0.2,1.3-1.5,1.1-2.4c1.7,0.2,3.4,1.2,2.5,3.1c1.1,0.2,2.3,0.4,1.4,1.7c2.4-0.4,3.2,1.7,3.1,4c1.6-0.6,1.4,0.5,1.1,1.7
		c-7.2,2.7,2.4,0.6-0.1,6.1c-4.7-7.4,1.1,6.1-3.7,7.9c-0.2,4.1,1.7,2.1,3.7,0.7c-0.9,6.8,7.9-2,4.7,6.6c0.3,0.9,1.7,6.7,0.1,6.2
		c-2.5-1.2,1.2-9.6-4.2-8.2c0.4,1.5,3,6.1,0,5.8c-2.2-1.9-1.9,3.7-2.4,4.5c0.1,2.3-2.6,3-2.5,5.2c1.7,1.3,1.1,3.6,1,5.4
		c0.5,1.5,1.5-0.2,1.1-1.1c1.4-1.7,1-16,3.7-11.4c-0.6,2-1.4,10.6,2.3,6.8c1.8-20.5,2.8,30.8-0.3,37.1
		c-2.6,10.9-12.4,19.9-23.7,20.5c-1.7-1.6-10.5-6.5-4.8-2c8.6,4-19.8,0.3-22.3-1.7c-1.9-0.9-0.4-3.1-1-4.4c-1.5-0.4-1.4,1.1-1.4,2.1
		c-3,0.6-1.8-2.7-4.1-2.8c0.7-2-0.4-1.9-2-1.8c-1.3-1.6,0.3-4.4-2.3-3.7c4.7-5.8-0.8-1.5,0.6-7.8c2.6,6,2.1-2.5,1.1-4.7
		c1.3-1.2,4.2-6.5,0.6-5.8c-0.9,2.3-2.2,1.1-2-1c-9.5,0.9-2.9-0.3-5.5-9.3c-0.2-2.5,3.9,0.7,1.4,1.3c0,1.5,1.4,2.8,0.3,4.2
		c0.6,2.3,4.7,3.3,2.3,0.3c0.9-3-2.4-5.1,2.7-3.8c-0.2-3.7,1.4-6.7,3.4-9.2c-1.1-2.2-1.3-4.1-1-6.9c-3.2,2.8-2,10.6-3.5,14.7
		c-3-1.6,0.5-7.1-1.6-9.7c-1.1,0.4-3.9,2.8-1.6,3.1c-0.3,1-0.5,2.8-0.1,3.8c-3.5,1-1.9-12.5-2-15.1c2-1.3-2.5-5.2,0.7-8.3
		C381.2,52.8,389.4,34.2,410.2,31.8z M383.9,110.2c1.2-0.4,1,1.5,0,1.4C383.9,111.7,383.9,110.2,383.9,110.2z M385.1,115
		c3.5,0.6,2.4,6,2.5,8.5C385.4,122.1,385.4,117.3,385.1,115z M386,65.2c0.2,0.9,0,2,1.3,1.3C387.7,65.3,387.1,65.3,386,65.2z
		 M386.3,57.9c0,0.4-0.4,0.9,0.3,0.7C386.6,58.6,386.3,57.9,386.3,57.9z M386.2,62.4l0.1,0.4C386.4,62.6,386.6,62.3,386.2,62.4z
		 M386.6,71c-1.2,1.1,1.1,1.4,1,0C387.6,71,386.6,71,386.6,71z M389.6,48.6c-2.1,4-3.5,11.7,0,3.4C390.2,50.9,392.1,48.1,389.6,48.6
		z M400.4,95.8c-2.6,1.7-6.8,3.5-9.7,4.9C383.7,105.1,404.9,98.6,400.4,95.8z M391,58.4c-0.6,1.5,1.7,1.5,1.4,0
		C392.4,58.4,391,58.4,391,58.4z M395.8,67.2c-3.6-0.2-7,6.3-1.6,2C394.7,68.8,397,67.8,395.8,67.2z M391.4,124.8
		c0,0.3,0.2,0.5,0.4,0.7C391.8,125.2,391.6,125,391.4,124.8z M392,95.4c-0.4,1,2,1,1.6,0C393.5,95.4,392,95.4,392,95.4z M393,42.9
		c-0.3,0.5-0.7,1,0.1,0.8C393.2,43.4,393.6,42.9,393,42.9z M394.9,111.7c-1,0.4-2.3,1.5-2.4,2.7C393.9,114.8,396,113,394.9,111.7z
		 M396.9,115.8c0.4,3.3-2.6,0.3-4.1,0.3c0.1,3.4-0.7,3.8,3.1,2.8C396.8,120.8,398.4,115.1,396.9,115.8z M393.1,77.4
		c0,0.3-0.4,1,0.1,1.1C393.5,78.2,393.7,77.3,393.1,77.4z M393.2,75.2l-0.1,0.7C393.7,75.8,394.4,75,393.2,75.2z M394.2,55.8
		c-0.9,0.8-0.8,1.7,0.4,2C395.2,57.1,395.5,55.8,394.2,55.8z M397.2,104.2c-5.1,0.5-0.7,9.6-0.4,5.8
		C395.9,108.3,398.7,104.4,397.2,104.2z M396.2,121.1c-4.1,1.9,1.2,2.6,0.6,5.4c-3.5,0.2-2.4,5.4,1.3,3.7
		C397.9,127.6,398.6,122.7,396.2,121.1z M394.7,48.4c0.2,0.7-0.3,3.1,1,2.7C396.1,50,396.3,48.5,394.7,48.4z M414.8,52.8
		c-1.9,5.4-23.1-1.6-19.1,2.4c2.3,3,19.9-2.9,14.3,5.8c0,2.8-0.3,10-0.8,12.6c-5.6,0.9-0.5,2.9,0.1,5.4c0.3,5.3-0.6,16-0.3,20.9
		c0,2.7-5.2,2.3-4.5,4.9c6.4-3.4,5,1.4,5.5,6.1c1.6,3.4,2.9,7.3,4.2,9.5c3.6,0.2,6.9-1.9,10-3c0.4-1,22.5,4,15.1-0.8
		c-4.4-1.7-18.7,3.1-13.5-6.4c-0.6-4.5,1.3-11.5,3-13.8c-3.8-0.4-2.2-14.6-2.5-17.5c1.1-1.9,0.4-5.1,0.3-7.2c0.7-1.3,6.7-2.8,4-3.8
		c-7.2,4.4-2.9-6.1-6.2-9.3C421.7,51.9,422.5,51.7,414.8,52.8z M397.5,84.7c-1.2,2-0.5,1.8-2.7,1.8c-0.1,6.4,0.2,3.2,4.9,4
		c2.4-1.6-1.5-2.4-2.5-3.2C398.2,86.6,399.5,85,397.5,84.7z M395.6,39.1c-1.4,1.6,0.3,9.8,0.1,6.4C397.1,44.2,396.6,40.5,395.6,39.1
		z M396.5,128l0.4,0.6C396.1,128.9,395.9,128.9,396.5,128z M396.8,92.9c0.1,0.3,0.4,0.5,0.7,0.6C397.3,93.2,397.1,93,396.8,92.9z
		 M398.2,82.7c-1.5,1.3,0.1,1.1,1.1,1.1C399.2,83.3,398.8,82.9,398.2,82.7z M397.9,69.4c0.2,0.3,0.5,0.5,1,0.6
		C398.6,69.8,398.3,69.6,397.9,69.4z M398.6,114.1c-0.3,1-0.6,2.2,1,2C400.1,115.1,399.7,114.2,398.6,114.1z M398.8,70.7
		c-0.1,0.4-0.4,1.5,0,1.8C400.2,72.3,400.3,70.8,398.8,70.7z M398.6,62.7c0.1,0.7-0.4,2,0.8,1.4C399.5,63.4,399.6,62.6,398.6,62.7z
		 M399.6,132.1c0.2,0.4,0.6,0.7,1.1,0.8C400.6,132.5,400.2,132.2,399.6,132.1z M399.9,127.2c0.2,0.3,0.5,0.5,1,0.6
		C400.6,127.5,400.3,127.3,399.9,127.2z M400.7,92.6c-0.7-0.1-1,1-0.3,1.3C400.6,93.6,401.3,92.9,400.7,92.6z M400.2,121.5
		c0,0.6,0.3,1.1,0.8,1.4C400.9,122.4,401.2,121.2,400.2,121.5z M403.8,109c-0.3,2.1-3.2,0.8-3.1,3
		C401.2,114.8,408.1,110.8,403.8,109z M401,87.2c0.5,0.9,1.9,2,2.1,0.3C403.2,87,401.2,87.3,401,87.2z M401.3,85.1
		c0.3,1,0.5,0.3,0.6-0.3C401.6,84.8,401.3,84.8,401.3,85.1z M412.9,127.3c-2.6,1.2-16,7.3-7.9,8.8c-0.7-2.4,0.9-2.3,2.8-3.1
		C408.4,131.4,416.6,127.6,412.9,127.3z M404.7,125.1l-2.5,1.1C401.8,128.4,405.7,125.8,404.7,125.1z M404.3,89.2
		c-1,0.1-0.9,2.8,0.1,2.3C404.3,91.4,404.6,89,404.3,89.2z M408.6,112.1c-0.8,0.4-2.2,1.3-2.8,2c-0.8,0.5-2.8,0.2-0.8,1.3
		C406.3,116.2,411.6,112.3,408.6,112.1z M404.3,83.1c0.1,0.3,0.3,0.4,0.6,0.4L404.3,83.1z M406.9,92.5c-0.8,0.3-1.7,0.9-2.5,1.4
		C404.7,96.2,408.8,92.7,406.9,92.5z M404.7,95.8c0,0.4-0.4,1.2,0.3,1.3C405.1,96.7,405.2,96.1,404.7,95.8z M406.2,116.9
		c-1.7,2.2-2.1,2.7,1,2.4C407,118.5,407.8,116.3,406.2,116.9z M406.1,35.4c-1.1,1.1-0.4,1.8,0.8,1.1C406.9,36,407,35.2,406.1,35.4z
		 M405.4,105.4c0,0.3,0.2,0.5,0.4,0.7C405.7,105.9,405.6,105.7,405.4,105.4z M406.1,109.8c0.1,0.6-0.1,2.6,0.8,1.6
		C407.3,110.5,407.4,109.5,406.1,109.8z M408.1,108.1c0.1,0.2,0.3,0.4,0.6,0.4C408.5,108.4,408.3,108.2,408.1,108.1z M409.6,116
		c-1.8,1.4,0.8,2.2,2.1,1.4C411.9,116,410.8,116.2,409.6,116z M412.2,135.5c-0.7,0.3-1.6,0.6-1.4,1.6
		C411.9,137.5,414.2,136.2,412.2,135.5z M411.5,51c-0.1,1.1-0.1,1.8,1.3,1.6C413,51.3,412.8,50.9,411.5,51z M413.6,121.3
		c-1.4,1.8-0.1,2.2,1.6,1.6C415.2,121.8,414.5,121.4,413.6,121.3z M413.2,125.1l0.1,0.4C413.3,125.3,413.6,125,413.2,125.1z
		 M415.8,118.2h1.3C417,119.3,415.6,119.4,415.8,118.2z M416.7,122l-0.1,0.8C417.1,123,417.3,122,416.7,122z M417.4,38.4
		c-1.3-0.2-0.5,1.8,0.4,1.6C417.8,39.6,418,38.4,417.4,38.4z M417.1,42.3c0,0.6-0.5,2.4,0.6,2.3C417.5,44,418.4,41.9,417.1,42.3z
		 M417.1,32.7l0.3,0.6C417.5,32.9,417.7,32.6,417.1,32.7z M417.4,46.9c0.2,0.4,0.4,0.8,0.8,1.1C418,47.6,417.8,47.2,417.4,46.9z
		 M417.4,124.2c0.2,0.5,0.5,0.9,1,1.3C418.2,125,417.8,124.6,417.4,124.2z M418.2,127.6l-0.3,2.3
		C419.1,130.1,418.6,128.2,418.2,127.6z M418,132.3c0.1,0.9-0.3,1.9,1,1.4C418.9,132.8,419.2,132,418,132.3z M418.2,138.5
		c0,0.4,0.2,0.7,0.4,1L418.2,138.5z M418.7,49.4c0.1,0.7,0.1,1,0.8,0.6C419.5,50,418.7,49.4,418.7,49.4z M418.9,53.2
		c0.6,0.1,1.4,0.1,0.7,0.8C418.8,54.1,418.5,54.1,418.9,53.2z M420.6,49.8c0.1,2,2.2,1.1,2.1-0.6C422.3,49.3,420.6,49,420.6,49.8z
		 M430.9,36.3c1.1,4-9.2,4.7-9,8.8C424.6,44.5,439.2,37.4,430.9,36.3z M422.3,46.7l-0.1,0.4C422.5,47.1,422.8,46.9,422.3,46.7z
		 M423,35.1c-1.6,2.2,1.5,2.1,2,0.1C425,35.3,423,35.1,423,35.1z M422.9,119.7c-0.1,1.1-0.1,1.8,1.3,1.6
		C424.4,120,424.2,119.7,422.9,119.7z M425,54.5c-0.8,0.1-1.2,0.5-1,1.3C425.7,57.1,427.9,54.8,425,54.5z M429.7,56.9
		c-0.9,0.5-4.9,2-3,3.4C427.6,59.1,434.4,56.6,429.7,56.9z M427.1,63.5c-0.1,1,0.2,0.6,0.7,0C427.8,63.5,427.1,63.5,427.1,63.5z
		 M430.5,77.6c-1.2,0.2-2.5,0.8-2.3,2.3C429.2,79.9,432.9,77.6,430.5,77.6z M430.5,52.8c-4.4,0.4-0.7,4.6,0.6,0
		C431.1,52.8,430.5,52.8,430.5,52.8z M429.1,60.6c-0.8,0.7-0.9,2.4,0.6,1.8C429.6,61.9,429.9,60.6,429.1,60.6z M429.1,135.5
		c-0.4,0.3-0.1,1,0,1.4C430.5,136.9,430.8,135.3,429.1,135.5z M430,43.5l0.4,0.4C430.3,43.7,430.2,43.6,430,43.5z M430,66.2
		c0,0.2,0.2,0.4,0.4,0.6C430.3,66.6,430.1,66.4,430,66.2z M433.3,59.3c-1.8,1.3-4.7,1.3-1.6,3.8c0.4-1.2,1.7-1.6,2.8-1.6
		C435,60.3,435,59.3,433.3,59.3z M430.7,75.1c0,0.4,0.2,0.8,0.6,1.1C431.2,75.8,431,75.4,430.7,75.1z M432.5,45
		c-0.4,0.9-1.7,1-1.7,2.1C431.6,47,435.2,44.9,432.5,45z M431.1,88.5c-0.1,0.7,0.1,0.5,0.6,0.3C431.6,88.8,431.1,88.5,431.1,88.5z
		 M431.4,80.6c0,0.5-0.3,2.1,0.3,2.4C432.3,82.4,432.4,80.9,431.4,80.6z M433.1,83.7c-0.2,0.3,0,1.2,0,1.6
		C435.1,85.4,434.6,84.5,433.1,83.7z M434.2,86.5l-0.3,0.8C434.5,87.3,434.6,87,434.2,86.5z M445.2,69.6c-2.8,1.3-10.7,3.4-10.4,6.9
		C435.5,76.1,450.7,70.1,445.2,69.6z M434.8,49.4l0.1,1.4C435.8,50.9,435.7,49,434.8,49.4z M434.9,78.5l-0.1,1.1
		C435.5,79.7,435.8,78.2,434.9,78.5z M434.9,44.3v0.8C435.9,45.1,435.7,44.7,434.9,44.3z M435,39.2c0.1,0.5,0.4,0.8,1,0.8
		C435.9,39.7,435.6,39.4,435,39.2z M439.8,81.3c-0.4,0.7-0.5,1.4-1.4,0.7c-6.7-1.2-0.8,3.4,2.4,3.8
		C440.3,84.8,441.6,80.8,439.8,81.3z M436,56.2c-0.1,0.6-0.3,1.7,0.3,2.1C437.7,57.9,437.8,56,436,56.2z M436.4,99.7
		c-0.4,0.8-0.9,1.7,0.3,2C436.8,101,437.6,99.7,436.4,99.7z M436.3,88.4c-0.4,1,1.1,1.5,1.8,1C438.9,88.1,436.9,88.5,436.3,88.4z
		 M436.3,108.1c0.1,0.7-0.3,1.8,0.8,1.3C437.1,108.7,437.4,107.9,436.3,108.1z M436.9,102.1c0.1,0.4,0.4,0.7,1,0.7
		C437.6,102.5,437.2,102.2,436.9,102.1z M438.7,85c-0.9,0.7-2.2,1.4-1.3,2.7C438.4,87.6,439.8,85.6,438.7,85z M437.4,94.6v0.8
		C437.5,95.2,437.9,94.6,437.4,94.6z M437.7,42.1c-1.6,11.7,6.8,9.8,1.6,5.4c-0.6-1.5,0.1-2.1,1.7-2
		C441.4,42.8,440.6,41.6,437.7,42.1z M439.3,61.3c0.4,2.1-1.7,5.2-1,6.8C442.2,67.7,441.8,63.1,439.3,61.3z M442.2,52.5
		c-2.5,1-3.9-0.4-4,3.2c0.8-2.5,5.3,2.5,4.4-1C442.7,54.1,443.6,52.4,442.2,52.5z M438.3,78.6c0.1,0.3,0.4,0.6,0.7,0.7
		C438.8,79.1,438.6,78.8,438.3,78.6z M439.1,43.3c1.2,0.3-0.5,1.7-0.3,0.1C439,43.5,439.2,43.5,439.1,43.3z M439.7,125.6
		c0.2,1.8-1,3.6-0.1,5.5C439.3,136.1,442.4,127,439.7,125.6z M444.2,101.4c-0.9,0.5-3.5,2.2-4.5,2.8
		C440.1,106.1,445.4,102.9,444.2,101.4z M440,121.1c0.1,0.7-0.6,2.7,0.1,3C441.5,124,441.3,121.4,440,121.1z M441,114.5
		c-0.8,1-0.6,1.9,0.8,1.8C442.5,115.3,442.1,114.7,441,114.5z M441.7,57.9c-0.5,0.7-1.1,1.7-1.1,2.7
		C442.1,60.5,444.8,57.3,441.7,57.9z M442.4,96c-0.3,0.4-1,0.9-0.3,1.3C442.3,97,443,96.3,442.4,96z M442.4,93.9
		c-0.3,0.4-0.4,0.9,0.3,1C442.7,94.5,443,93.9,442.4,93.9z M442.2,76.1c-0.5,1,2,1,1.6,0C443.8,76.1,442.2,76.1,442.2,76.1z
		 M442.4,128.5c0.1,0.4,0.4,0.7,0.8,0.8C443.2,128.8,442.9,128.5,442.4,128.5z M443.2,112.9c-0.1,1.2,0.7,0.9,1.6,0.8
		C445.1,112.6,443.9,113,443.2,112.9z M443.9,46.9v0.6C444.2,47.1,444.6,47,443.9,46.9z M448,115.9c-2.5,1.6-4.1,12.3-1.3,5.5
		C446.9,119.4,450.4,117.6,448,115.9z M448.2,48.7c1.6,1.6,2.4,5.8,2.5,8C447.2,57.7,448.2,50.8,448.2,48.7z M448.2,100.4l0.1,1
		C449.6,101.3,449.1,100.7,448.2,100.4z M448.4,105.6c-0.2,1.1-0.2,1.6,1.1,1.4C449.5,106.2,449.6,105.3,448.4,105.6z M449.3,113.6
		l-0.3,0.7C449.7,114.4,449.6,114.1,449.3,113.6z M451,60.8c1.2-0.4,1,1.4,0,1.3C451,62.1,451,60.8,451,60.8z"/>
	<path class="st0" d="M521.8,31.5c7.1,0.7,12,0.6,18.9,0.4c0.1,3,0.6,7.1-2.8,5.9c-1.1,5.2,4.7-1.7,3,10.6
		c-3.2,8.2-3.1,28.8-9.9,32.9c-1.6,0.3,1.2,0.4,1.4,0.4c0.5,1.7,0.7,4.4-1.3,5.2c-2,3,0.4,7.5-2.5,9.3c-0.3,0.9-0.1,1.5,1,1.3
		c1.5,0.2-2,2.2-1.6,3.5c1.5,2.2-1.9,1.4-2.1,3.2c0.8-0.2,3.5,1,2.3,1.8c-4.4-1-2.2,3-3.2,4.5c-0.9,0.4-3.9-0.2-4.8-0.3
		c0.8,2,3.5,1.1,4.7,3.4c3.1-2.3-0.9-6.7,3.5-6.2c-0.4,3.4-1.6,6.3-4.5,8.2c-1.8,1.7-3.9,12.8-0.7,7.3c0.7-2.3,0.2-7.8,3.5-7.8
		c-1,4.4-2.9,11-3.7,15.7c-2.7,4.9,0.5,7.7-7.5,7.8c-3.1-1.6-6.3,0.9-9.9,0.3c-0.1-1.9,0-2.5-1.7-1.1c-1.4,1-3.4,1.7-4-0.7
		c0.2,1.8-1.2,1.8-2.7,1.6c0-0.4,0.8-1.2,0.1-1.3c-0.7-0.2-2.7,0.2-3.4-0.1c0.1,1.7,4.5,1.7,0.6,2.8c-1.1-2.3-6.9-0.8-3-3.5
		c-1.9-0.1-5.5-3.9-6.5-0.4c-4.6-6.9-3.4-18.6-5.5-26.4c0.5-1.1-0.3-1.1-1.1-1.3c1.4-2.4,0.2-2.9-2.1-2.3
		c-0.4-2.9-2.7-15.6-3.2-18.8c0.9-4.5-2.3-9.1,0.6-13.8c0,0,1.1-1.4,1.1-1.4c-1.1,0.4-1.1-2.6-2-1.3c-0.2,1-1.3,5.9-2.3,6.4
		c-0.2-0.8,0.6-7.7-1.6-6.9c-1.1-5.9-5-19.6-4-25.6c-0.5-1.8,0,2.6-1.3,1.4c0-2-5-14.2-0.3-11.7c-1.6,2.6,5.8-4,4.2,5.2
		c1.5,0.3,0.8-3.9,1-5.1c1.9-0.3,3.5,0.8,3.2,2.8c-1.2,1.1-2.7,9.5-0.4,8.8c1-2.1-0.7-12.4,3.7-11.6c1.3,2.1,0.5,4.5-0.3,6.8
		c-0.4,2.1-5,15.9-2.4,13c0.3-3.8,2.6-6.5,4.4-8.6c0.5-1.9-0.2-7.6,1-9.2c0.7-3.2,5.3-0.8,7.9-1.4c-1.2,0.7-0.4,2.2-0.4,3.4
		c-5.5,1,0.4,2.2,2.1,4.4c0.7,1,3.1-0.1,4.2,0c0.9,1.6,2.1,11.3,1.4,13c1.4,12.1,2.9,22,4.9,33.5c3.5,5.7,1.4,22.7,4.5,28.1
		c2-8.9,0.3-32.4,9.2-37.4c0.1-3-3.5,1.6-3.2-2c2.2,0.6,3.3-2.6,0.4-1.3c0,0,1.8-15.2,1.8-15.2c4.9,0.7,9.3,6.7,14.1,7.6
		c-2.3-5.9-16.6-6-12.8-15c-1.9-1.8-0.4-3.9,0.7-5.6c-0.9-0.3-0.2-11.2,1.6-10.7c1,2.1,2.6,2.6,1.6-0.3c-1.7-0.8-2.3-2.9-1.8-4.7
		C516.1,30.8,519.6,32.9,521.8,31.5z M463.1,37.5c0.2,0.2,0.4,0.4,0.7,0.4C463.6,37.7,463.4,37.5,463.1,37.5z M465.4,41.3
		c-1.1,0.5-1.4,0.8-0.6,1.8C465.2,42.8,466.3,41.4,465.4,41.3z M465.5,35.8c-0.1,1.1-0.3,2.5,0.4,3.5
		C465.8,39,466.3,35.7,465.5,35.8z M467.6,41.7c-1.6,3.2-0.8,7.6-1.1,11.6C468.3,54,468.8,42,467.6,41.7z M466.8,56l0.1,0.4
		C467.1,56.2,467.1,56.1,466.8,56z M473.3,66.8c-0.6,1.8,0.4,2.8,2.1,3.2C475.3,68.8,475.1,66.9,473.3,66.8z M476.8,50.3
		c-0.8,4.5-0.7,10.5-2.8,14.7C476.7,68.9,478.8,52.5,476.8,50.3z M474,79.8c0.2,0.4-0.3,2.6,0.7,2.1C474.7,81.9,474,79.8,474,79.8z
		 M475.4,86.7c-0.1,0.8-0.3,2,0.7,2.4c-0.9,1.6-0.5,1.8,1.1,1.1c-0.1-0.5,0.1-1.5-0.7-1.4C476.5,88,476.6,86.7,475.4,86.7z
		 M476.3,99c0.3,0.7,1,1.6,1.1,2.4C479,101,477.6,98.9,476.3,99z M476.4,75.7c0.1,0.5,0.4,0.9,1,1.3C477.3,76.4,477,75.9,476.4,75.7
		z M476.5,65.8v1.8C477.3,67.4,478.1,65.3,476.5,65.8z M476.5,73.8c0,0.7,0.7,0.2,1,0C477.5,73.8,476.5,73.8,476.5,73.8z
		 M477.1,92.1c-0.4,0.4-0.6,0.9-0.6,1.6C477.4,93.8,478.4,91.8,477.1,92.1z M476.8,96.5c0.2,0.3,0.5,0.5,0.8,0.7
		C477.5,96.8,477.2,96.6,476.8,96.5z M477.2,102.1c-0.2,1.6,0.6,2.5,2.3,2.4C479.1,103.7,478.1,102.7,477.2,102.1z M477.2,107.5
		c1-0.2,1.2,2.3,0.1,2.3C477.2,109.8,477.3,107.6,477.2,107.5z M478.9,114.4c0.3,0.3,0.8,0.8,0.3,1.1
		C479.2,115.5,478.9,114.4,478.9,114.4z M479.8,119.4c0.8-0.2,0.7,0.4,0.7,1C479.6,120.5,479.8,120,479.8,119.4z M484,31.5
		c3.2-0.7,8.6,1.1,5.8,4.9c-1.3-2.6-5.1-3.3-7.9-3.2C481.2,31.5,482.8,31.7,484,31.5z M482.5,44.3c-0.2,0.3,0,1.2,0,1.6
		C483.9,46.3,483.9,43.8,482.5,44.3z M483.2,79.7c0,0.7,0.2,1.4,0.4,2.1C483.5,81.1,483.4,80.4,483.2,79.7z M486,86.5
		c-0.5,0.7-3.9,2-2.4,3.2C484.8,89.3,486.8,87.9,486,86.5z M484,49.5l0.3,1.6C484.4,50.5,484.5,49.8,484,49.5z M486.8,113.3
		c-6.4,4.2,0.3,1,0.7,3.7c0,1.1-0.3,2.2,1.3,1.8c0.7-1.6,1.9-3.8-0.8-3.5C487.8,114.6,488.1,112.8,486.8,113.3z M484.2,93.7
		c0,0.6,0.4,0.9,1,1.1C485.1,94.2,484.8,93.8,484.2,93.7z M484.7,118.1c0.3,0.3,0.7,0.5,1.1,0.6
		C485.5,118.4,485.1,118.2,484.7,118.1z M485.7,48.3c0.3,5.4,0,14.7,1,20C487,62.9,487.6,52.8,485.7,48.3z M486.4,72.8
		c0,2.1,0.5,7,0.8,1.8C487.2,73.9,487.6,72.5,486.4,72.8z M486.6,69.4c0,0.4,0.2,0.8,0.4,1.1C487,70.1,486.8,69.7,486.6,69.4z
		 M486.6,79.7c0.1,0.9,0.5,5.3,0.8,6.1C487.3,84.8,488.1,79.4,486.6,79.7z M487.4,88l-0.3,1.8C487.8,92.3,488.6,88.9,487.4,88z
		 M487.5,136.3l1.3,0.1C489.1,138,486.7,137.8,487.5,136.3z M487.4,139.3c1.2,0.5,1.8,1.6,0,1.3
		C487.4,140.5,487.4,139.3,487.4,139.3z M492.3,110.7c-1.5,0.4-2.5,1.9-2.4,3.5C490.9,114.7,494.4,110.6,492.3,110.7z M491.6,125.7
		c-0.4,0.7-0.9,2.3-1,3.1C492.8,129.4,492.1,127,491.6,125.7z M491.5,121.9c-0.7,0.6-0.5,1.1,0.4,1.3
		C492.5,122.4,492.7,121.9,491.5,121.9z M494.2,98.3c-0.6,0.5-0.8,0.9-0.1,1.4C495,99.7,494.4,98.9,494.2,98.3z M497.7,133.3
		c-1,0.4-2.5,0.9-2.4,2.3C496.3,135.7,499.7,133.5,497.7,133.3z M495.5,97.3c0.1,0.5,0.5,0.9,1.1,1
		C496.5,97.8,496.1,97.4,495.5,97.3z M495.7,94.5c0.2,1,1.1,1.5,2.1,1.4C497.7,94.8,496.8,94.4,495.7,94.5z M499.1,140.1
		c1.1-0.1,1.5,0.1,1,1.3C498.9,141.5,498.7,141.3,499.1,140.1z M499.8,132.3c-0.3,1.2,0.9,0.4,1.4,0.4
		C501.2,132.8,499.8,132.3,499.8,132.3z M502.7,135.3c-0.7,0.1-1.2,0.7-0.8,1.4C503.1,136.7,504.9,135.5,502.7,135.3z M502.8,140.1
		c0.3,0.2,2.2-0.2,1,0.6C503,141.3,503,140.8,502.8,140.1z M505,134.6c-0.6,0.9-0.2,0.7,0.6,0.7C506,134.5,505.8,134.6,505,134.6z
		 M506.3,140.1c0.4,0.1,2.2-0.2,2.4,0.3C508,141.8,504,141.1,506.3,140.1z M505.5,130.2c0,0.4,0.2,0.8,0.6,1.1
		C506.1,130.7,506.5,130,505.5,130.2z M506.3,103.5c0.1,0.3,0.3,0.5,0.6,0.7C506.7,104,506.6,103.7,506.3,103.5z M506.7,111.7
		c0,0.2,0.2,0.4,0.4,0.6C507.1,112,507,111.8,506.7,111.7z M507.9,129.2l0.1,1C509.4,130.3,509,129.3,507.9,129.2z M508.4,137.6
		c0.2,0.2,0.5,0.3,0.8,0.3L508.4,137.6z M509.8,102.8c-0.1,0.2-0.2,0.7,0,0.8C511.7,103.8,511.5,103.5,509.8,102.8z M512.8,81.5
		c-0.7,0.4-3.8,1.6-2.4,2.5C510.9,82.9,513.9,82.9,512.8,81.5z M510.1,105.8c0.2,0.2,0.4,0.4,0.7,0.4
		C510.6,106,510.4,105.8,510.1,105.8z M512.4,140h4.4C516.1,141.3,509,141.5,512.4,140z M512.1,115c0.3,0.2,0.5,0.3,0.8,0.3
		L512.1,115z M514.1,103.7c-3,0.5-0.9,1.8,1,2C514.9,104.9,514.6,104.3,514.1,103.7z M512.4,76.4l0.4,1.3
		C512.8,77.3,512.6,76.8,512.4,76.4z M512.7,51.9c-0.1,0.2-0.2,0.5,0.1,0.6C512.9,52.2,513,51.9,512.7,51.9z M512.5,107.6l0.1,1.4
		C513.8,108.5,514.2,107.3,512.5,107.6z M515.9,46.9c-2,0.8-2.9,7.2-0.4,3.8C515.1,49,517.9,47.9,515.9,46.9z M517.8,88.9
		c-1.3,1.1-2.3,2.3-4.2,1.6c0.4,1.4,0.6,3.5,2.5,3.5c0.2,1,0.5,1.8,1.7,1.1c1.9-1.7-1.8-1-0.7-2.7c0.9-0.6,1.1-1,0.1-1.7
		C517.2,90.1,518.7,89,517.8,88.9z M514.2,72.8l-0.6,2.8C514.8,75.8,515.7,73,514.2,72.8z M514.5,77c-1.6,2,0,7.5,0.4,2.1
		C514.8,78.8,515.6,76.5,514.5,77z M514.6,126.7c-0.7,0.9-0.7,1.5,0.6,1.1C515.9,126.9,515.8,126.5,514.6,126.7z M514.4,97.3
		c0,0.3-0.3,1.1,0.1,1.3C514.5,98.3,514.9,97.4,514.4,97.3z M514.5,53.7c0.1,1-0.2,2.7-0.1,3.7C515,56.4,516.9,53.8,514.5,53.7z
		 M514.4,66.4c0,0.3,0.2,0.5,0.4,0.7C514.7,66.8,514.6,66.6,514.4,66.4z M514.6,44.3c0.2,0.7,0,2,1.1,1.4
		C515.7,44.8,515.8,43.9,514.6,44.3z M514.8,59.6c0.2,0.9,0.6,1.5,1.6,1C515.9,60.3,515.4,59.9,514.8,59.6z M515.2,136.3
		c-0.2,0.4-0.1,0.8,0.3,0.8C515.5,136.8,515.9,136.1,515.2,136.3z M515.5,41.7c-0.2,0.3-0.3,0.6-0.3,1
		C515.4,42.4,515.4,42.1,515.5,41.7z M515.6,76.3c-0.2,1.1-0.1,1.2,1,1C516.9,76.3,516.6,76.2,515.6,76.3z M515.5,105.5
		c0.8,1.5,6.3,4.9,5.8,1.7C521.3,107.2,515.5,105.5,515.5,105.5z M515.8,119.6c-0.4,1.3,0.1,2,1.4,1.6
		C517.6,119.8,517,119.6,515.8,119.6z M516.2,33.7l-0.4,1.3C516.8,35.2,516.5,34.3,516.2,33.7z M519.4,125c-0.8,0.3-2.2,0.8-2.7,1.7
		c0.6,1.4,2.1,0.9,2.7-0.3C520.7,128.1,521,124.9,519.4,125z M517.9,54.1l-0.8,1.4C518.5,57,520.6,53.5,517.9,54.1z M517.6,57.8
		c0.1,0.6,0,1.5,0.8,1.4C518.5,58.5,518.6,57.7,517.6,57.8z M518,48.5c0.2,0.2,0.4,0.4,0.7,0.4C518.6,48.7,518.3,48.5,518,48.5z
		 M518.3,59.8c-0.6,0.9,0.1,1.6,1,2C519.8,60.7,519.5,60,518.3,59.8z M518.3,46.2c0.1,0.8,1.1,2.5,2,1.6
		C519.2,47.8,518.8,47.1,518.3,46.2z M519.9,139.4c2.4,1.3-1.2,3.1-1.6,0.7C518.3,140.1,519.9,139.4,519.9,139.4z M519.2,43.7
		c0.1,0.4,0.3,0.7,0.6,1C519.6,44.3,519.4,44,519.2,43.7z M520,53.9c-0.1,0.3-0.1,0.5,0.1,0.7C520.2,54.3,520.4,53.9,520,53.9z
		 M521,71.5c-0.8,0.4-1.2,1.4-1.1,2.3C520.7,73.6,522.2,72,521,71.5z M520.2,83.9v1.3C521.1,85.2,520.5,84.4,520.2,83.9z M521,42
		c-0.4,1-0.5,1.1,0.6,0.7C522.5,41.9,521.8,42,521,42z M521,36.1l-0.1,0.6C521.2,36.8,521.3,36,521,36.1z M520.9,57.7
		c-0.2,1.2,0.1,1.4,1.3,1.1C522.5,57.5,521.9,57.6,520.9,57.7z M521.7,52.7l0.1,0.8C522.3,53.1,522.7,52.6,521.7,52.7z M524.2,32.5
		c-0.4,0.1-1.9,0.4-2.3,0.7C521.9,34.9,525.4,33.7,524.2,32.5z M522.3,54.4c-1.2,3.1,2.1,1.1,3.7,0.1c-0.8-0.4-2.1,0.2-2.8,0.4
		C523.1,55,522.3,54.4,522.3,54.4z M522.4,60.5l-0.1,1.8C526,64.2,525.1,62.3,522.4,60.5z M526.5,47.6c-3.4,1.2-4.5,0.7-1.7,3.4
		c-0.1,0.9-0.6,3.1,1,2.4C525.8,51.6,526,49.7,526.5,47.6z M524.4,42.6l-0.1,1.3C525.2,44,524.6,43.1,524.4,42.6z M525.1,65l0.1,0.6
		C525.2,65.3,525.6,64.9,525.1,65z M527.1,43.3c-0.8,0.3-1.9,2.1-0.8,2.5C526.4,45.3,527.8,43.6,527.1,43.3z M525.9,58.4l0.3,1.4
		C526.3,59.4,526.7,58.5,525.9,58.4z M526.6,55.1c0.2,1,0.6,0.6,0.8,0C527.5,55.1,526.6,55.1,526.6,55.1z M526.9,68l-0.3,1.3
		C528,69.4,528.7,67.8,526.9,68z M526.6,73.6c-0.1,0.8,0.2,0.7,0.8,0.6C527.5,74.2,526.6,73.6,526.6,73.6z M526.9,61.9
		c-0.2,1.1,0.5,0.5,1.1,0.4C528.1,62.3,526.9,61.9,526.9,61.9z M527.4,36.6c0.2,1,0.9,1.9,2,1.4C529.5,36.8,528.4,36.6,527.4,36.6z
		 M527.6,54.4l-0.1,0.7C527.6,54.8,528.8,54.3,527.6,54.4z M527.8,71.1c0.2,0.4,0.5,0.7,1,1C528.5,71.6,528.2,71.3,527.8,71.1z
		 M530.6,68.5c-3.7-0.1,1.8,3,1.6,0.8C531.6,69.7,531.1,68.9,530.6,68.5z M530,53l-0.3,1.1C530.5,54.4,530.7,53,530,53z M530.9,84.5
		c0.1,0.3,0.4,0.5,0.7,0.7C531.5,84.8,531.2,84.6,530.9,84.5z M531,38.9c0.4,0.6,1.4,1.6,2.3,1.1C533.3,38.7,531.9,38.8,531,38.9z
		 M531.2,49.8c0,0.2,0.2,0.4,0.4,0.6L531.2,49.8z M534.3,61.8c-2.8,0.6,1.2,2.1,1.4,0.3C535.7,62,534.3,61.8,534.3,61.8z
		 M533.4,35.1c0.1,0.4,0.4,0.7,1,0.7C534.1,35.5,533.8,35.2,533.4,35.1z M535.1,63.7c-0.3,0.3-0.5,0.7-0.6,1.1
		C534.8,64.6,535,64.2,535.1,63.7z M535,40.6c0,0.6,0.4,0.9,1,1C535.9,41,535.5,40.7,535,40.6z M537.9,41.7l-1.3,0.1
		C537.3,43.4,539.3,43.9,537.9,41.7z M537,46.1c0.1,0.3,0.4,0.4,0.7,0.6C537.5,46.4,537.3,46.2,537,46.1z M538.1,33.1
		c-0.4,0.3-1.2,1.2-0.1,1.1C538.1,33.9,538.9,33.2,538.1,33.1z M542.3,33.2c2.1-0.6,0.1,8.2-1.6,5.2
		C542.3,37.4,540.8,34.4,542.3,33.2z"/>
	<path class="st0" d="M560.8,36c8.4,1.3,34.8-2.5,41.2,1.8c0.5,15.8,4.4,20.9-14.3,19.6c0.1-2-0.7-4.8,2-2.5
		c0.3-1.9-2.2-2.4-2.4-0.1c-0.6,5.6-9.9,1.2-13.6,2.4c-2.1,0.7,0.2,3.6-1.4,4.8c-0.8,0.4-1.8,1.3-1.7,2.3c1.6,0.4,2.5-1.2,2.3,1.7
		c-0.1,3.1-4.3,0.8-5.4,3.8c0.3,0.3,3.6-0.5,4-0.6c1.6,1.2,1.9,3.7,1.7,5.5c7.4,0,14.8-3.8,13.8,6.9c2.7-1.9-1.8-5.8,4.8-6.4
		c10.1-5.4,7.4,15.2,6.2,19.2c-17.6,5.3-4.6-7.5-9.3-8.8c0.3,3.5-1.9,6.6-2.1,9.5c-6.7,0.7-16.4-3.4-13.7,7.5
		c-2.6,0.1-2.6,2.4,0.1,2c0,0.2-0.1,5.2,0.1,5.2c0.3,1.2-1.2,6.3-0.1,6.5c5.2-0.2,16.3-3.6,14.1,5.4c1.3-7.7-0.8-5.2,11.6-5.9
		c5.6-4,2.9,21.5,4,23.3c-0.6-1.5-57.1,2.9-53.9-2.1c1.4-0.6-2.9-60.8,1.7-55.6c0.7-1.9,0.2-1.9-1.5-1.7c0.3-0.8-0.8-13.8,1.6-5.2
		c0.1,2.3,1-1.4,0.6-2.1c-0.2-2.9-2.8,0.2-2.3-3.2c2-0.8,2.5,1.5,4,2.1c1.3-2.3-0.8-5.8-0.3-8.5c-2.4,1.8,1.7,9.9-3.7,3.5
		c0.1-4.4,0-13.6,0-18.1c2.4-3.7,1.5,5.5,4.1,2c-3-2.9,1.8-7.1,1.4-1.6c2.9,0.7-1-5.6,2.5-5.5c0.1,1.8,1.6,5.2,2.1,5.5
		c0.5-2.9-1.6-5.8,0.1-7.8C556.2,38.8,557,35.6,560.8,36z M548.8,36.2c0.9,0.5,8.4-1,7.5,1.6c-0.8,1.8,2,4.9-1.1,4.2
		c-0.1-8-2.3-3.5-0.8,1.3C544.1,50.5,550.5,41,548.8,36.2z M549.4,37.8l0.3,1.6C550.6,39.3,550.4,37.5,549.4,37.8z M549.8,40.5
		c-0.3,1.1-0.6,3.7,1.3,3C551.7,42.1,551.1,41,549.8,40.5z M557.1,83.1c0,3.9-8.3,1.5-7.5,6.6C549.8,86.4,559.9,87.7,557.1,83.1z
		 M550.5,76.3l-0.3,0.8C550.9,77.1,550.9,76.8,550.5,76.3z M551.2,83.4l-0.8,0.7C550.7,85.4,551,84.1,551.2,83.4z M554,88.5
		c-0.6,0.1-4.5,1.2-2.3,1.1C552.8,90,555,90.1,554,88.5z M551.5,54c-0.3,1.4-0.3,3.2-0.1,4.7C553.8,59,552.6,55.1,551.5,54z
		 M551.6,122.9c0.1,1.7,2.1,0.8,3.1,1.1C553.9,123.6,552.5,123.2,551.6,122.9z M552.1,93.3l-0.1,1.1
		C552.6,95.2,552.2,93.8,552.1,93.3z M552.2,96.2l0.1,1.8C552.3,98,552.5,96,552.2,96.2z M552.9,82.1c-0.6,1.2,0.1,2,1.1,2.8
		C554.2,83.8,554.4,82.4,552.9,82.1z M553.2,74.8c-0.3,0.4-0.7,1.3-0.1,1.6C553.1,76,553.8,75,553.2,74.8z M553.9,91.9v1.3
		C555.1,93.2,555.3,91.5,553.9,91.9z M554.9,49.9c-0.1,1.3,1.2,15.1,2,14.5c0.8-2.6,0.2-4.5-0.7-6.9
		C555.9,56.4,555.9,50.8,554.9,49.9z M554.7,95.8c0,0.3,0.1,0.7,0.3,1C555,96.6,555.2,95.8,554.7,95.8z M554.7,101.7v2
		C555.5,103.2,556.3,101.5,554.7,101.7z M555.2,106c-0.4,0.8-0.4,1.9,0.4,2.5C555.8,107.7,556.1,106.5,555.2,106z M555.7,126.6
		c0.3,0.3,0.8,0.5,1.3,0.6C556.6,126.9,556.2,126.7,555.7,126.6z M556.3,66.7c-0.6,4.4,0.3,9.8,0.7,14.3c0.8,0.4,2.4-0.3,2.7,0.8
		c-0.2,3.7,0.8,7.8,2.5,11c0.5,1.1,0.4,9.3,2,5.9c0.3-2.7-0.2-7-1-9.6c-0.7,1.8-1.8-1.1-1.8-2.3C559.1,78.8,559.6,73.4,556.3,66.7z
		 M557.3,87.8c-1.8,2.1,0.6,12.4,2.3,12.7C558.4,96.2,560.1,91.4,557.3,87.8z M556.6,114.4c-0.2,0.7,0.2,0.8,0.8,0.7
		C557.2,114.8,556.9,114.6,556.6,114.4z M557,49.8c0,0.4,0.2,0.6,0.6,0.8C557.5,50.3,557.3,50,557,49.8z M557.4,52.5
		c-0.3,5.6,3.8,13.4,2.1,17.6C562.8,69.9,560,53.2,557.4,52.5z M558.3,75.8c0.5,1.3,0.9,3,0.8,4.7C557.2,80.2,557.7,77.3,558.3,75.8
		z M558.3,103l-0.3,1.3C559.2,104.5,558.7,103.8,558.3,103z M559.3,110.6c-1.3,1.1-1.1,2.3,0,3.4C561,114,560.3,111.4,559.3,110.6z
		 M560.5,102.2c-0.6,2.9-4.7,7.8,1,6.9c0,0,0-1.3,0-1.3C558.8,106.8,562,102.3,560.5,102.2z M559.3,115.6c-0.1,3.1-0.2,8.1,2.1,10.4
		c0,0.8,0,2.9,0.1,3.7c-0.8,0-1.2,0.5-1.1,1.3C566.1,130.4,560.2,119.1,559.3,115.6z M559.3,49.9c0.2,0.6,0,2,0.8,1.8
		C560,51.1,560.6,49.5,559.3,49.9z M561,132.9c-0.1,0.4-0.4,1,0,1.3C561,133.9,561.5,133,561,132.9z M561.8,113.5
		c0.1,1.2,1.3,1.3,1,0C562.8,113.5,561.8,113.5,561.8,113.5z M562.4,72.4c0,1.1,0.1,13.7,2,11.3c0.1-2.4-1.8-7.6-1.3-10
		C564.2,72.4,563.8,72.5,562.4,72.4z M562.2,85.9c0,0.6,0.1,1.2,0.4,1.8C562.6,87.2,562.5,86.5,562.2,85.9z M562.6,117.8
		c-0.2,1.1-0.5,2.8,0.3,3.8C562.6,120.7,563.2,118.6,562.6,117.8z M563.4,100.9c-0.2,2-1,5.5,1,6.8
		C564.4,105.6,565.1,102.5,563.4,100.9z M563.2,70.1c0.1,0.3,0.3,0.4,0.6,0.6C563.7,70.5,563.5,70.3,563.2,70.1z M564.1,57.4
		c-0.4,0.4-0.2,0.9,0.1,1.3C564.2,58.4,564.6,57.5,564.1,57.4z M565,109.2c-0.2,1.2-0.4,3.1-0.1,4.5
		C565.3,111.9,569.2,108.9,565,109.2z M564.9,67.9L565,69C566.4,68.8,565.9,68.4,564.9,67.9z M565.2,115.6c-0.1,2-1.1,8.9,1,9.9
		C566.8,122.3,566.7,118.6,565.2,115.6z M565.8,70.3c-0.6,0.9-0.7,2,0.7,1.3C567.5,70.4,566.9,70.5,565.8,70.3z M565.9,126.7
		c-0.4,2.6,0.2,7.2,0.7,1.8C567.8,126.8,568.2,127.2,565.9,126.7z M565.9,86.8v1C566.7,87.8,566.9,86.5,565.9,86.8z M567.3,74.5
		c0.1,0.3,0.4,0.6,0.7,0.7C567.9,74.9,567.7,74.6,567.3,74.5z M569.6,73.6l-0.3,0.7C569.5,74.2,569.6,73.9,569.6,73.6z M570.4,132.9
		c-0.4,0.3-0.3,0.5,0.1,0.4C570.5,133.3,570.7,132.8,570.4,132.9z M570.8,84.5l-0.1,1C571.3,85.4,571.2,84.9,570.8,84.5z
		 M571.8,122.4c-0.7,0.1-0.6,0.4,0,0.7C572,122.7,572.5,122.4,571.8,122.4z M571.7,128.3c-0.6,1.1,0.2,0.8,1,0.8
		C573,128.1,572.4,128.3,571.7,128.3z M571.7,46.3c-0.1,1.2,0.9,1.6,2,1.6C573,47.3,572.3,47,571.7,46.3z M571.8,125.6v1
		C572.1,126.2,572.8,125.4,571.8,125.6z M572.8,78.4c0.1,0.4-0.6,2.4,0.4,2.3C573.1,80.4,573.6,78.3,572.8,78.4z M572.7,82.3
		c0,0.5,0.1,0.9,0.4,1.3C573,83.1,573.6,81.9,572.7,82.3z M573.1,85.4v1C574.1,86.3,573.7,85.8,573.1,85.4z M574.6,43.7
		c-0.1,0.5-0.5,1.6-0.4,2.1C574.4,46,575.3,43.4,574.6,43.7z M574.2,92.4c0.1,1,0.3,0.5,0.7,0C574.9,92.4,574.2,92.4,574.2,92.4z
		 M575.2,124.9c0.1,0.7,0.5,1.4,1,2C576.5,126,576.3,125,575.2,124.9z M575.3,120.9c0.2,0.2,0.4,0.3,0.6,0.3L575.3,120.9z
		 M576.9,129.4c0.2,0.3,0.5,0.4,0.8,0.6C577.6,129.7,577.3,129.5,576.9,129.4z M577.5,37.5c0.4,0.2,0.5,0.2,0.4-0.3
		C577.8,37.2,577.5,37.4,577.5,37.5z M577.9,119.2v1.8C578.1,120.1,579.8,119,577.9,119.2z M578.5,124.2c-0.2,0.4-0.9,1.2-0.3,1.6
		C578.3,125.3,579.4,124.4,578.5,124.2z M578.6,54l-0.4,0.7C578.8,54.8,579.1,54.7,578.6,54z M578.7,43.7l-0.3,1.6
		C579.5,45.5,578.8,44.4,578.7,43.7z M584.2,75.1c-1.1,0.6-3.4,1.3-3.5,2.8C582.1,78.1,584.3,76.8,584.2,75.1z M582.1,51.3l-0.3,0.6
		C582.4,52,582.2,51.7,582.1,51.3z M583.4,53.2l-1.3,0.8C581.4,55.8,585.7,53.6,583.4,53.2z M582.1,127c0.1,0.7,0.5,1.3,1.3,1.8
		C583.1,128.2,582.6,127.6,582.1,127z M582.8,91.7l-0.1,1.4C584.1,93.4,583.7,92.4,582.8,91.7z M583,40.3c0.2,0.4,0.5,0.8,1,1
		C583.9,40.8,583.6,40.4,583,40.3z M584.7,122.4c-0.7,0.4-1.3,1.3-1.4,2.1C584.2,124.7,586.4,122.2,584.7,122.4z M589.3,44.1
		c-1.7,2.1-6.2,3.7-1.3,3.5C589.9,49.5,590.3,44.1,589.3,44.1z M585.7,42.7c0.1,1.7,1.9-1,0.3-0.6C585.9,42.2,585.7,42.7,585.7,42.7
		z M587.2,50.4c-0.6,0.4-0.9,1-1,1.8C588,52.5,587.8,51.8,587.2,50.4z M587.8,82.8c-0.9,0.8-1,2-0.3,3
		C587.6,85.1,588.8,83.2,587.8,82.8z M586.9,88.8c0,0.5,0.3,0.9,0.8,1C587.7,89.2,587.5,88.9,586.9,88.8z M587.1,125.2
		c0,0.5-0.4,2.1,0.6,1.6C587.9,126,588.1,125.1,587.1,125.2z M590.2,83l-0.3,0.8C591,84,591.7,83.5,590.2,83z M590.7,80.4
		c0.1,0.3,0.4,0.5,0.7,0.6C591.3,80.7,591.1,80.5,590.7,80.4z M592.1,77.2l-0.8,0.7C591.6,79.1,593.2,77,592.1,77.2z M592.1,121.4
		l-0.3,0.6C592.3,121.8,592.5,121.8,592.1,121.4z M594.7,86.8l-1.3,1.1C591.5,89.7,595,88.4,594.7,86.8z M592.9,125.7
		c0.1,0.4,0.3,0.7,0.7,1C593.6,126.1,593.7,125.5,592.9,125.7z M595.7,119.8c-0.9-0.1-1,0.6-1,1.3
		C595.3,121.9,595.6,120.3,595.7,119.8z M594.8,86.4l0.1,0.4C594.9,86.7,595.1,86.2,594.8,86.4z M595.1,129.4
		c-0.1,0.9,0.9,0.3,1.4,0.3C596.5,129.7,595.1,129.4,595.1,129.4z M595.3,126.9c0.3,1.6,0.7,1.5,0.8,0
		C596.1,126.9,595.3,126.9,595.3,126.9z M596.5,77.7c-1.3,1-0.4,4.4-0.1,1.1C596.8,78.8,597.1,77.9,596.5,77.7z M596.5,37.2
		c0,1.2,1-0.4,0.1-0.3C596.7,36.9,596.5,37.2,596.5,37.2z M596.5,39.3c0.2,0.3-0.4,4.7,0.7,4C597.2,42.3,598.3,39.1,596.5,39.3z
		 M596.8,45.1c-0.2,0.9-0.1,1.1,0.8,0.8C598,45.1,597.6,45.1,596.8,45.1z M596.8,53c0,0.7,0.2,0.7,0.8,0.4
		C597.7,53.5,596.8,53,596.8,53z M597.8,90.2c-0.2,0.2-0.3,0.4-0.3,0.7C597.7,90.7,597.8,90.4,597.8,90.2z M597.5,122.1v1
		C597.7,122.7,598.2,122.2,597.5,122.1z M598.1,124.5c-0.4,1.6,1.1,1.2,1.3,0C599.3,124.5,598.1,124.5,598.1,124.5z M599.9,118.3
		l-0.1,2C600.3,120.4,600.7,117.9,599.9,118.3z M601.5,134.1v1C602.6,135.2,602,134.6,601.5,134.1z"/>
	<path class="st0" d="M633.5,38.4c16.4-0.2,43.8-2.3,46.3,19.6c0.2,9.8,2.1,26.1-10.9,30.1c-5.7-0.2,2.9,4,4.1,4.5
		c2.7,2,3,5.2,4.1,7.9c0.5,1.5-0.5,1.6-1.4,2.5c-1.9,1.3,1.4,0.9,1.7-0.3c0,0,0.6,15.5,0.6,15.5c-0.4,0.3-2.7,1.3-1.3,1.7
		c4,0.7-2,5.2-2.4,3c0-1.3,1.1-4.3-0.7-4.8c-0.8,0.1-4.2,0-4,1.4c0.7,0.5,4.3,0.9,1.8,1.6c-1.2,0.1-3.4-0.8-4.4-0.4
		c0.2,4.8-1.6,5.5-1.8,0.1c-0.8-0.9-1.5,1-2,1.4c-5.1,2.9-0.6,3.6-0.8,8.3c1.5-1.2,4.5-0.8,4.8-3.2c0,0,1.1,0.8,1.1,0.8
		c1.2-0.6,2.1-0.3,2.4,1c2-1.6,1.5,2.1,2,3c2.8,0.5-2.3-3.1,3.1-2.3c-0.3-1.2-2.1-6.2,0.4-2.8c1.2,0.1,1.9,1.1,1.8,2.3
		c1.3,2.9,2,8,4.4,10c-4.4-0.1-23.8,3-23.6-4.5c0.4-2.6-2.7-5.8-0.7-7.6c0-0.5,0.6-1.2,0-1.4c-0.2,0.5-0.3,1.2-1,0.6
		c-0.5-5,1.6-14.1-0.8-18.4c-0.2-9.3-7-9.7-14.4-8.2c-3.7-1.1-1.2,38.4-2.1,39.8c-1.3-1.6-29.9,3.8-21.7-4.1
		c-1.9-0.6-1.1-17.5-1-20.2c0.2-9.5-0.2-53.2-0.1-75c2.8,1.6,7.2,12,8.8,4.4c-0.8,0.1-2.7,1.1-3.1,0.1c0.2-2.2-7.7-6.8-1.3-5.2
		c2.6-0.2,11.5-2.4,10.6,2.7c1.2,0.6,0.3,6.1,0.4,7.1c-1.4,0.4-2.9,0.8-3.1,2.5c0.7,1.8,1.5-2.4,4.1-1.4c4.7,5.3-6.3,7.5-1.8,5.2
		c-10.9-5.4,5.8,9.6,5.5,12.4c-2.4,1.9-7.5-1.3-8.9,1.4c0.8,0.6,2,1,1.1,2.1c1.4,0.2,1.9,0.1,3,1.6c4.2-2.3,0.1,0.2,3.7,1.8
		c1,1-1.1,0.9-0.6,2.3c1.3-1.1,4.1-0.4,3.2-2.7c5.9-1.8-5.4,5.6,1,6.2c1.6,2.1,3.9,5.8,6.6,4.8c0.1,1,0.6,2.1,1.7,2.4
		c0.9-1.4-1.2-3,0.8-3.7c1.8-0.4,4.2-3,5.6-2.1c1.5,2.8,0.5,4.9-2.8,3.8c-0.5,0.9-1.9,3.6-3.1,3.8c4.2,0.2,3.5,1.4,3.5-2
		c2.4,0.3,0.6,3.7,0.3,5.4c0,0.6,1.7,0.1,2,0.1c3.1-6.2,1.6,4.3,4.8,1.6c-1.3-6.5,4.6-9.6,9.5-12c-0.1-1.8,1.1-1.5,2.1-1.7
		c1.4-1.4-0.1-1.4-1.3-1.4c-0.3,0.8-1.2,1.8-2,2.1c-2.6,0.1-3.8,4.3-6.2,3.5c0.2-5-3.1-4.8,3-7.5c0.7-1.2,1.9-2.8,3.2-1.3
		c0-5-10.4,1.7-10.3-4.4c-0.6-3.7-2.9-7.7-4.4-11.4c-3.5-1.9-5-3.6-4.1-8c6.9-0.3-1.3-0.5,2.4-5.6c-3.6,3.7-3.8,6.1-3.4,11.3
		c-1.6,0.3-2.3-1.3-3.5-1.7c0,0.7,0.8,2.4-0.7,1.4c-1.5-1.8-2.3-2.5-3,0.3c0-1.3-3.1,0.4-3.5,1.3c0,3.2,1.6,2,1.1-0.4
		c4.7-1.7,2.2,4.1,2,6.4c0.6,0.9,1,2-0.1,2.7c-3.2,0.9-1.5-0.5-0.4-1.8c-3.6-1.7-3.8-5.9-3.8-9.5c0.8,0.7,2.2-1.2,3.7-0.4
		c-1.9-0.6,0-4,0.3-1.3c0.4,1.8,1.1-1,0.6-1.7c-0.8-2.6-1.4-0.5-2.8-0.3C633.5,47.3,632.7,46.4,633.5,38.4z M618,78.9
		c1,2.2-0.4,3.2,0.6,5.6c2.3-0.7,3.8-0.7,1-2.4c-0.4-1.2,0.3-0.2,1.1-0.3C621.5,80,619.2,80.1,618,78.9z M617.7,114.9v1.3
		C618.5,115.9,619,114.5,617.7,114.9z M617.9,85.4c0.2,0.9,0.9,1.5,1.8,1.7C619.4,86.2,618.9,85.4,617.9,85.4z M621.5,118.5
		c-0.3,1.1-1.3,1.5-2.4,1.4C614.7,122,623.5,121.1,621.5,118.5z M618,48.1c0.2,0.2,0.4,0.4,0.7,0.4C618.6,48.3,618.3,48.2,618,48.1z
		 M618,93.1V94C618.1,93.6,618.8,93.2,618,93.1z M618.6,49.5c0,0.5-0.5,2,0.4,2C619.2,51.1,619.7,49,618.6,49.5z M618.6,70.7
		c0.2,0,1.1,0.2,1.3,0C619.9,70.7,618.6,70.7,618.6,70.7z M618.9,72.2c-0.5,0.8,0,0.5,0.6,0.4C619.4,72.7,618.9,72.2,618.9,72.2z
		 M618.7,125c0.7,1.3,0.6,3.4-0.1,4.8C620.9,130.3,620.2,125.9,618.7,125z M619.7,112.3c0,0.3-1.4,1.9-0.4,1.8
		C620.6,114.1,619.8,113.1,619.7,112.3z M620.3,98.2c0,0.4,0.2,0.9,0.6,1.3C620.7,99,621.2,97.9,620.3,98.2z M622.8,50.5
		c-1.1,0.4-3,0.5-2.1,2.1C621.9,52.8,623.5,51.7,622.8,50.5z M620.4,78.2c0,0.4,0.2,0.8,0.6,1C621.1,78.5,621.3,78,620.4,78.2z
		 M620.4,122.4c0,0.4,0.2,0.9,0.4,1.3C620.8,123.2,620.7,122.8,620.4,122.4z M621.1,58.1c0.1,0.7,1.3,0.2,1.7,0.1L621.1,58.1z
		 M622.1,102.7c0,0.2-1.5,1.7-0.7,1.7C621.5,103.8,624.9,102.3,622.1,102.7z M622.1,70c-0.2,0.6-0.9,2.2,0.3,1.4
		C623.2,70.7,623.1,70.4,622.1,70z M622.3,113.2c0,0.3-0.6,1.7,0,1.8C622.2,114.7,622.6,113.2,622.3,113.2z M622.3,91.7
		c0,0.5,0.1,1,0.4,1.6L622.3,91.7z M623,107.8c0.2,0.4-1.4,4.3,0.1,3.5C623.2,110.5,624.2,107.9,623,107.8z M623.4,118.8
		c-1.3,0.1-0.8,1.3,0.3,0.8C623.6,119.4,623.8,118.8,623.4,118.8z M622.8,79.7c0,0.4,0.2,0.8,0.4,1.1
		C623.2,80.5,623.1,80.1,622.8,79.7z M622.8,83.1c0,0.6,0.3,1.1,0.8,1.4C623.6,84,623.3,83.5,622.8,83.1z M623.5,40.6l-0.4,1.7
		C624.2,42.4,624.9,40.7,623.5,40.6z M623.8,121.2c0.1,0.3-0.5,2.7,0.3,2.5C624,123.4,624.3,121.4,623.8,121.2z M623.8,58.8
		c0.2,0.7,0.1,1.8,1.1,1.3C625,59.1,624.9,58.6,623.8,58.8z M623.9,104.3l0.1,0.4C624.1,104.5,624.4,104.2,623.9,104.3z M624.1,72.2
		c0.1,0.4,0.3,0.6,0.6,0.8C624.5,72.8,624.3,72.5,624.1,72.2z M624.9,70.3l-0.4,0.6C625.1,70.9,625.7,70.9,624.9,70.3z M624.7,81.7
		c0.1,0.6,0.4,0.6,0.4,0C625.1,81.7,624.7,81.7,624.7,81.7z M624.8,99.2v0.7C625.2,99.6,625.7,99.1,624.8,99.2z M625.6,57l-0.6,0.4
		C625.3,57.4,625.5,57.3,625.6,57z M628.6,116.6c-0.7,0.7-5.1,2-2,2.3C628.4,119.2,632.4,116.4,628.6,116.6z M626.5,128.3
		c-0.4,0.1-0.6,0.4-0.7,0.7C626.2,129,626.5,128.8,626.5,128.3z M626.1,89.9l0.3,0.8C627.4,90.5,626.8,90.2,626.1,89.9z M626.5,52.6
		c0,0.6-0.8,1.7,0.4,1.4C626.8,53.6,627.5,52.3,626.5,52.6z M627.9,49.2c-0.7,0-1.7,0.6-1.3,1.4C627.7,50.1,630.8,49.9,627.9,49.2z
		 M627.1,65.9l-0.1,1.3C628.5,67.5,628.4,66.4,627.1,65.9z M626.9,70.5c0,0.2,0.2,0.4,0.4,0.6C627.3,70.9,627.1,70.7,626.9,70.5z
		 M626.9,130.3v1C627.7,131.2,627.9,130,626.9,130.3z M627.2,48c0.1,0.3,0.3,0.4,0.6,0.4C627.6,48.2,627.4,48.1,627.2,48z
		 M627.8,72.1c-0.2,0.2-0.4,0.4-0.4,0.7C627.6,72.6,627.7,72.4,627.8,72.1z M627.8,96.9l-0.1,1C628.6,97.9,628.5,97.5,627.8,96.9z
		 M629.5,107.4c-0.1,1.8,0.1,6.7-1.6,7.8C629.4,117.3,631.3,107.4,629.5,107.4z M628.3,64.6c0.5,0.7,1.2,1.3,1.8,2
		C630.2,65.3,629.7,64.6,628.3,64.6z M629,119.2c-0.4,0.3-0.1,1.2,0,1.6C629,120.5,629.4,119.2,629,119.2z M628.9,129.3l-0.1,0.8
		C629.3,130.3,629.3,129.4,628.9,129.3z M629.2,126.3c0.4,1.3,1.2,2.2,2.7,1.7C631.2,127.1,630.2,126.7,629.2,126.3z M629.7,101.3
		c0,0.6,0.1,1.1,0.4,1.7C630.1,102.4,630,101.9,629.7,101.3z M629.9,42.5c0.1,0.7,0.4,0.8,0.4,0C630.3,42.5,629.9,42.5,629.9,42.5z
		 M630.2,95.1l-0.3,0.8C630.7,96.1,630.7,95.6,630.2,95.1z M629.9,104.6v0.3C630.1,104.9,630.1,104.5,629.9,104.6z M630.2,104.8
		c0.1,0.9,0.3,1.8,1.4,1.6C631.2,105.8,630.8,105.3,630.2,104.8z M630.6,99.5c0,0.4,0.2,0.7,0.4,1L630.6,99.5z M631.6,64.3
		c-0.8,1,0.1,1.6,0.7,2.5C632.6,66,632.7,64.6,631.6,64.3z M632.3,118.5c-1.1,0.5-1,1.4-0.4,2.3
		C632.7,120.4,632.5,119.2,632.3,118.5z M632.8,115.7c-1.4-0.1-0.9,0.9-0.3,1.7C632.5,117,634.5,115.3,632.8,115.7z M632.1,122.5
		c0,0.2,0.2,0.4,0.4,0.6C632.6,122.8,632.4,122.6,632.1,122.5z M635.2,91.2l-2,0.8C631.9,94.8,634.8,92.6,635.2,91.2z M633,106.7
		c0.1,0.6,0.5,1,1.1,1.1C633.9,107.3,633.6,106.9,633,106.7z M634,88.8l-0.3,0.8C634.3,89.4,634.8,89.3,634,88.8z M634,64.5
		c0,0.3-0.3,0.7,0.1,0.7C634.3,64.9,634.2,64.6,634,64.5z M634.4,66.3l-0.6,1.4C634.7,67.8,635.7,66.3,634.4,66.3z M634.1,97.5
		l0.1,1.6C635.5,99.4,635.2,97.1,634.1,97.5z M634.1,125.3c0,0.7,0.5,0.5,1,0.4C635.1,125.3,634.3,124.7,634.1,125.3z M634.5,41v1.6
		C636.2,42.7,635.9,41.6,634.5,41z M634.8,84c-0.3,0.5-0.4,0.6,0.3,0.6C635.1,84.5,634.8,84,634.8,84z M634.5,116.6l0.3,2
		C635.5,118.1,636,116,634.5,116.6z M635.1,95.1c0.1,0.2,0.2,0.4,0.4,0.6C635.5,95.4,635.3,95.2,635.1,95.1z M635.9,114.9
		c-0.7,0-0.7,0.5-0.1,0.8C635.9,115.4,636.8,114.9,635.9,114.9z M635.5,112c0,0.8,0.5,1.5,1.3,2C636.7,113.2,636.2,112.6,635.5,112z
		 M637.2,45.3c-1.3,0.1-1.4,1.8-1.4,2.8c0.7-0.2,0.8-0.5,1.1,0.1C635,50.9,640.6,47.6,637.2,45.3z M636.2,90
		c0.2,0.2,0.4,0.4,0.7,0.4C636.8,90.2,636.5,90.1,636.2,90z M636.4,43.7c0.1,0.3,0.3,0.4,0.6,0.6C636.8,44.1,636.6,43.9,636.4,43.7z
		 M636.8,101.5c0.8,2.1-0.8,5.9,0,7.9C637.2,107.5,638.9,102.1,636.8,101.5z M636.9,85.6c0.2,0.8,0.8,1.7,1.1,2.5
		C640.3,87.8,638.3,86,636.9,85.6z M636.9,119c-0.3,1.7,2,2,1.8,0.3C638.8,119.2,636.9,119,636.9,119z M637.1,82.1v1
		C637.8,82.9,637.7,82.4,637.1,82.1z M638.2,92.6c-0.4,2.2-0.9,5.7-1.1,7.9C639.5,99.2,639.6,94.8,638.2,92.6z M638.1,88.8l-0.4,0.6
		C637.9,89.2,638,89,638.1,88.8z M638.1,49.7c-0.6,1.5,0.9,0.9,1.3,0C639.3,49.7,638.1,49.7,638.1,49.7z M638.3,108.1v1.3
		C639.1,109.2,639.4,107.8,638.3,108.1z M638.6,77.9c1.2-0.4,2,0.9,1.3,1.8C638.4,80.7,638.9,78.7,638.6,77.9z M639.9,45.3l-0.6,0.4
		C639.6,45.7,639.8,45.5,639.9,45.3z M640.2,41.2l-0.4,2.1C640.7,44,641.4,40.6,640.2,41.2z M640.3,84.5c-0.3,0.5-0.4,1.1,0.4,1.1
		C640.9,85.1,641.3,84.3,640.3,84.5z M641.2,47.1c-0.6,0.8-0.8,1.5,0.4,1.3C641.9,47.7,642.4,46.9,641.2,47.1z M643.1,79.9
		c0.8,0.6,2.4,0.5,3.2,0.1C650.5,79.9,638.9,86,643.1,79.9z M642.3,53.7v1.4C643.9,55.2,643.3,54.5,642.3,53.7z M643.3,50.6
		c-0.3,1.1,0.1,1.2,1.1,1.1C644.6,50.8,644.3,50.5,643.3,50.6z M645.3,82.8h1.6C646.2,84.4,644,85.2,645.3,82.8z M645.7,52.6v0.8
		C645.7,53.2,646.2,52.7,645.7,52.6z M645.8,54.3c0,0.4-0.4,1.3,0.1,1.6C646,55.5,646.5,54.4,645.8,54.3z M647.8,46
		c-1.3,1.2,0.4,3.6,0.7,1C648.5,46.4,648.6,45.8,647.8,46z M647.4,96.5c-0.5,1,1.5,1.2,1.3,0C648.6,96.5,647.4,96.5,647.4,96.5z
		 M648.1,42.6c-0.6,0.2-0.3,0.7-0.1,1.1C648.8,43.6,649.3,42.5,648.1,42.6z M654.6,76.3c0.8,0.2,0.6,0.3,0.3,1
		c0.8,0.4,2,0.4,2.3,1.4c-1.7,0.7-6,3.1-7.9,3.1c0.2-3.6,1.9-0.6,3-2.8c0.3-0.1,0.9-1.6,0.7-0.3C654.2,78.3,652,77.1,654.6,76.3z
		 M649.8,93.8c0.5,0.7,0.6,2.3,1.7,2.3C651.3,95.2,650.7,94.2,649.8,93.8z M650.1,53.6c0.3,1.7,2.2,2.7,1.4,4.8
		C654.5,56.7,653,54.3,650.1,53.6z M654.9,87.1c2.9-0.6,1.2,1.3,2,3.2C654.6,90.3,653.9,89.1,654.9,87.1z M656,98.4l0.7,1
		C656.7,98.7,656.8,98.1,656,98.4z M657.8,82.8l0.1,1C656.7,83.8,656.4,83.4,657.8,82.8z M657.4,67.6c0,0.4,0.1,0.7,0.4,1
		C657.8,68.2,657.7,67.9,657.4,67.6z M657.5,105.4l-0.1,1C658,106.3,657.8,105.8,657.5,105.4z M657.8,84.5c0.9,0.1,1.7,0,1.3,1.1
		C658.1,86.1,658,85.4,657.8,84.5z M661.8,118.3c-1.1,0.4-2.9,0.9-3.4,2.3C659.7,120.3,661.4,119.9,661.8,118.3z M660.8,76.9
		c2.5-0.1-1.2,1.5-1,3.1C658.4,78.7,658.4,77,660.8,76.9z M659.9,72.9c0.1,0.3,0.4,0.6,0.7,0.7C660.5,73.4,660.2,73.2,659.9,72.9z
		 M660.9,95.7c-2,1.3,3,2.4,2.8,0.4C663.8,96.1,660.9,95.7,660.9,95.7z M662.3,88.2c-3.8,1.8,4.9,7.1,4,2.1
		C660.1,92.3,664.7,88.1,662.3,88.2z M661.5,92.1c-0.2,0.5-0.4,0.8,0.3,0.8C661.8,93,661.5,92.1,661.5,92.1z M663.2,111.1
		c-0.5,1.1,0.1,2.4,1.3,2.8C664.4,112.9,664,111.8,663.2,111.1z M663.2,134.1c0,0.4,0.2,0.7,0.4,1
		C663.6,134.7,663.4,134.4,663.2,134.1z M667.6,92.3c-3.2,3.3-3.7,7.4,1.3,8.8c-1.6-3,0.3-2,2.4-1.4c0.5-2.1-3.5-2.7-4.7-3.5
		C667.2,94.6,669.9,94,667.6,92.3z M664.7,78.6c0.1,0.4,0.4,0.7,0.7,1C665.3,79.2,665.1,78.9,664.7,78.6z M664.7,126.2
		c1.3-0.4,0.6,1,0.7,1.7C665,127.4,664.8,126.9,664.7,126.2z M667.8,114.2c-1.1,0.1-4.3,2.1-2.1,2.8
		C666.1,115.9,670.2,114.2,667.8,114.2z M666.3,111.1c-0.3,0.3-0.5,0.7-0.7,1.1C666.6,112.3,667.2,112,666.3,111.1z M665.6,118.5
		v1.3C666.6,120,666.6,118.2,665.6,118.5z M667.6,78.7l-1.1,0.8C666,81.1,670.3,79.2,667.6,78.7z M666.7,85.5c-0.3,1.3,0,1.1,1,0.6
		C667.7,86.1,666.7,85.5,666.7,85.5z M666.7,105.7l-0.1,0.6C666.9,106.5,667,105.6,666.7,105.7z M666.7,66.4l0.1,0.7
		C666.8,67,666.9,66.5,666.7,66.4z M666.9,102.7c0.3,0.6,0.8,0.9,1.6,1C668,103.3,667.5,102.9,666.9,102.7z M671.4,72.1
		c-1.3,0.2-3.4,0.8-3.5,2.4c0.7,0.3,2.8,0.8,3,1.7c0.8-0.7-0.5-2.3-0.3-3.4C671.2,73,672.9,71.9,671.4,72.1z M668.4,118
		c0,0.3,0,0.3,0.3,0.1C668.7,118.1,668.4,118,668.4,118z M668.7,95.5v1C670,96.6,670.1,95.7,668.7,95.5z M670,92l0.3,3.4
		C672.5,95.4,671.7,92.7,670,92z M670.7,84.2c-1,1.6,1.1,0.9,1.8,1.1C672.2,84.6,671.6,84.3,670.7,84.2z M670.7,113.2
		c0,0.4,0.2,0.8,0.4,1.1C671.1,113.9,670.9,113.6,670.7,113.2z M671,101.9c-0.7,1.7,1.7,1.9,1.7,0.3
		C672.6,102.2,671,101.9,671,101.9z M671.7,111.6c0.1,0.3,0.4,0.5,0.7,0.6C672.2,112,672,111.8,671.7,111.6z M672.5,134.3l-0.3,0.6
		C672.9,135,673.1,134.9,672.5,134.3z M672.5,78.2c0.1,0.5,0.4,0.8,1,0.8C673.3,78.6,673,78.4,672.5,78.2z M672.8,73.6
		c-0.1,0.6-0.3,1.5,0.6,1.7C674.2,74.8,674,73.4,672.8,73.6z M672.8,100.2l0.3,1.7C674.4,102.2,673.5,100.7,672.8,100.2z
		 M673.5,98.4c-0.2,0.4-0.2,0.5,0.3,0.4C673.8,98.8,673.5,98.4,673.5,98.4z M674.2,115.7c-0.2,0.2-0.4,0.4-0.4,0.7
		C674,116.3,674.2,116,674.2,115.7z M673.9,96.4c0.1,0.3,0.4,0.6,0.7,0.7C674.5,96.8,674.3,96.5,673.9,96.4z M675.6,70.5
		c-0.4,0.4-0.7,0.8-1,1.3C675.2,71.9,676.9,70.4,675.6,70.5z M675.9,66.7c-2.3,0.5,0.6,1.8,0.4,0C676.3,66.7,675.9,66.7,675.9,66.7z
		 M676.5,111.6c-0.3,0.3-1.7,1.3-0.6,1.1C676.6,112.9,677.4,111.8,676.5,111.6z M675.8,120.9c0.2,0.2,0.4,0.4,0.7,0.4
		C676.3,121.2,676.1,121,675.8,120.9z M676.6,72.2l-0.3,1.7C677.4,75.1,678,72.5,676.6,72.2z M677.4,69.1l-0.6,0.7
		C677.3,70.8,678.3,69.5,677.4,69.1z M678,125.2c0.4,0.3,0.7,0.8,0.7,1.4C678.4,126.2,678.2,125.7,678,125.2z"/>
</g>
<g>
</g>
<g>
</g>
<g>
</g>
<g>
</g>
<g>
</g>
<g>
</g>
</svg>
