<?xml version="1.0" encoding="utf-8"?>
<!-- Generator: Adobe Illustrator 26.2.1, SVG Export Plug-In . SVG Version: 6.00 Build 0)  -->
<svg version="1.1" id="Layer_1" xmlns="http://www.w3.org/2000/svg" xmlns:xlink="http://www.w3.org/1999/xlink" x="0px" y="0px"
	 viewBox="0 0 595.3 259.7" style="enable-background:new 0 0 595.3 259.7;" xml:space="preserve">
<style type="text/css">
	.st0{fill:#CC0000;}
</style>
<g>
	<path class="st0" d="M106.6,27.9H149l21.2,4.1l9.3,3.5l8.1,4.6l5.8,7l1.5,2.9c0.4,0.9,1,1.6,1.7,2.3l1.5,2.6l2,6.7l0.3,3.8
		c0.5,0.8,1,1.8,1.5,2.9l0.6,10.8H201c0,1,0.2,1.9,0.6,2.9l0.9,16l-1.2,7.6l-2,6.4l-3.2,5.2l-4.1,4.4c-0.8,0.6-1.5,1.4-2,2.3
		l-1.7,2.3l-2.3,2l-6.4,2h-3.8v0.3c0,1,0.3,2,0.9,3.2l11.3,5.8l4.1,4.4l1.2,2.9c0.7,0.5,1.3,1.2,1.7,2v4.4c0.3,1,0.8,1.8,1.5,2.6
		l0.3,3.2h-1.2l-2,2c-0.7,0.2-1.2,0.7-1.5,1.5l2.3,0.6l2.6-2.6l1.2,32l-3.8,2.6l1.2,0.9l2.9,1.5c0,0.9-0.2,1.9-0.6,2.9l-2.6,1.7
		l-4.1,1.7c-0.3-0.5-0.5-1.1-0.6-1.7l0.6-3.8v-4.1c-0.1-1.1-0.8-1.7-2-2l-7.6,0.9l-0.6,2c0.1,0.3,0.4,0.5,0.9,0.6l3.5,0.6l1.5,1.2
		l-1.2,0.6l-0.6,0.6l-0.3-0.3c-0.7-0.1-1.5-0.2-2.3-0.3l-4.1-0.3l-1.7-0.9c-0.4,0.1-0.7,0.3-0.9,0.6v4.4l-0.9,3.2l-1.2,1.5l-0.6-1.5
		c-0.3-1-0.5-2.2-0.6-3.5l-0.6-3.8l-1.5-0.6l-2.6,3.5l-4.9,3.5l-0.3,4.1c0.7,0.6,1.6,1.1,2.6,1.5c0.5,0.9,0.9,1.8,1.2,2.9l-1.5,2.3
		c0.1,1,0.5,2,1.2,2.9c1.2,0,2-0.6,2.6-1.7c1-0.4,2.1-0.7,3.2-0.9c1,0,2-0.3,2.9-0.9l1.2-3.2l2.3,1.7l3.5-0.9l1.5,2.9l2.6-0.9l1.5,7
		l2,0.3c0.2,0,0.4-0.2,0.6-0.6l-0.3-0.3c-0.8-0.5-1.5-1.3-2-2.3c0.9-0.5,1.5-1.4,1.7-2.6c1,0.1,1.6,0.7,2,1.7c0.7,0,1.5-0.3,2.3-0.9
		l-0.6-3.8l-2-2c0-1,0.5-1.8,1.5-2.3c1.2,0.3,1.8,1.1,2,2.3l3.2,1.2l0.6,3.5l3.2,9.6c0.2,1.1,0.7,2.1,1.5,2.9l2,6.4l2.3,1.7
		c-1.1,0.3-2.2,0.5-3.5,0.6h-40.1c-2.5-5.9-4.2-9.2-4.9-9.9l-0.3-4.1c-0.2-1-0.7-2-1.5-2.9l-0.3-3.8l-1.5-2.9c0.7-0.5,1.4-1.2,2-2
		l0.6-2.3c0-0.2-0.2-0.4-0.6-0.6l-0.6,1.7c-0.5,0-1-0.2-1.5-0.6l0.3-4.1l-0.3-20.9c0-0.9,0.2-1.9,0.6-2.9l0.3-3.8l-0.9-3.5
		c-0.3-0.9-0.9-1.8-1.7-2.6l-0.6-3.8c-0.1-1-0.4-2-0.9-3.2c-0.4-1-0.7-2.2-0.9-3.5c-0.3-0.9-0.8-1.8-1.5-2.6l-2.3-2
		c-0.5-0.8-1.1-1.5-1.7-2.3l-2.6,0.3l-0.3-1.2l-0.9-0.3l-18,1.7c-1.1,0.4-2,0.9-2.9,1.5l-0.6,3.5l-0.9,77H72.5l0.3-2v-4.1
		c0.4-1,1.1-1.7,2-2.3l-0.3-2l-0.9,0.9l-1.2-2.6v-34l0.3-3.8V182l0.3-3.8c0.3-0.9,0.8-1.9,1.5-2.9l2.6-1.7c0.7-0.6,1.3-1.4,1.7-2.3
		c-0.3-0.4-0.7-0.7-1.2-0.9l-0.6,1.5c-0.9,0.6-1.9,1.1-2.9,1.5l-0.3,2c-0.5,0-1-0.2-1.5-0.6V98.5c0-1.2,0.2-2.4,0.6-3.8l-0.3-2.6
		l-0.3-60.2c0.7,0.3,1.3,0.8,1.7,1.5c0.6,0.6,1.2,1.4,1.7,2.3c0.5,0.8,1.2,1.6,2,2.3l4.1,4.4c0.6,0.8,1.2,1.6,1.7,2.6
		c0.7,0.6,1.4,1.4,2,2.3c0.7,0,1.4-0.2,2-0.6c0.6-0.7,1.2-1.6,1.7-2.6l0.9-3.2l-3.2,0.9l-2.6,0.3l-0.6-0.9c-0.1-1.2-0.4-2.3-0.9-3.5
		l-4.9-3.5l-1.5-2.6l-0.6-2h2l3.2,0.9l3.5-0.9h16.3c0.9,0.6,1.4,1.6,1.5,2.9l0.6,3.5c0.7,0.7,1.2,1.6,1.5,2.6l-0.6,11.9
		c-1,0.2-1.9,0.6-2.9,1.2c-0.8,0-1.6,0.3-2.3,0.9l-1.2,3.2c0.2,0.7,0.7,1.3,1.5,1.7l0.9-3.5c1-0.1,2-0.5,3.2-1.2h2.9V54
		c0.8,0.8,1.5,1.6,2,2.6l0.9,3.2c-0.1,0.9-0.6,1.5-1.5,1.7c-1,0.3-2,0.8-2.9,1.5c-0.4,0.9-1,1.7-1.7,2.3l-3.5,0.9
		c0.3-1,0.9-1.8,1.7-2.6h1.2l-3.8-3.5c-0.8,0-1.6,0.2-2.3,0.6L94.6,63c0,1,0.3,2,0.9,3.2c0.6,0.4,1.1,1,1.5,1.7l4.6,3.8l3.8,4.9
		c0.5,0.7,1.2,1.4,2,2c0.3,0.9,0.9,1.8,1.7,2.6c0.9,0.4,1.6,1,2.3,1.7c0.4,1,1,1.8,1.7,2.6l0.6,3.5l-3.2,1.2h-8.7
		c-0.6-0.5-1.3-0.8-2-0.9l-3.5,0.9l-0.9,1.7l3.2,2.3l-0.9,2c0,0.3,0.2,0.5,0.6,0.6c0.9-0.3,2-0.5,3.2-0.6c0.3,1,0.8,1.8,1.5,2.6
		l0.9,0.6l1.7-1.2c0.8-0.4,1.7-0.7,2.9-0.9l-0.9,4.4l1.5-0.6c0.8,0.5,1.6,1.2,2.3,2l0.9,1.5l-1.5,0.6l-0.6,0.6v2l0.3-0.3
		c1-0.1,1.9-0.5,2.9-1.2l1.2-1.5c0,0.5,0.3,0.9,0.9,1.2c0.9-0.4,1.5-1.1,2-2l-0.6-1.7l2.9-1.5c0.3,0.9,0.5,2,0.6,3.2
		c-0.5,0.9-1.1,1.8-1.7,2.6l-2.9,1.2l-1.2,3.2l0.9,3.2c1.1,0.1,2.2,0.4,3.5,0.9l3.5,4.9c0.5,0.8,1.2,1.5,2,2c1,0.3,2,0.8,2.9,1.5
		c0.2,0.9,0.8,1.7,1.7,2.3l3.5-0.9l0.9,3.5l2.6,1.5c0.3-0.9,0.5-1.9,0.6-2.9l-1.2-2.9c0.6-0.6,1.4-1.2,2.3-1.7l2.9-1.2
		c0.9-0.4,1.8-1,2.6-1.7c0.7-0.5,1.6-1,2.6-1.5l2.6-0.3l0.9-0.3v0.6l2,6.4l-3.5,2.3l-2-0.6c-0.7-0.1-1.5-0.2-2.3-0.3l-3.8,6.4
		l-2.6,1.5l2.6,0.9c0.8-0.3,1.6-0.8,2.3-1.5c0.5,0.8,1.2,1.3,2,1.5l0.9-0.6l-0.9-1.7l0.3-2.6l1.2,0.3c0.7,0.2,1.3,0.6,1.7,1.2
		c-0.6,0.5-1,1.2-1.2,2c0.4,1,0.7,2.1,0.9,3.2l-1.7,2.3l-0.3,2c0,0.3,0.2,0.5,0.6,0.6l3.5-0.3c0.4-0.4,0.7-0.9,0.9-1.5
		c0.3-0.9,0.9-1.8,1.7-2.6c0.9,0.4,1.8,1,2.6,1.7l0.3,3.8c0.2,1.1,0.7,2,1.5,2.9c0.9-0.2,1.9-0.6,2.9-1.2l0.3-3.2l-0.6-3.8l0.6-3.5
		c0.4-0.9,1-1.8,1.7-2.6l2.3-1.7c0.7-0.6,1.6-1.2,2.6-1.7c0.9-0.3,1.9-0.8,2.9-1.5c0.5-0.9,0.9-1.9,1.2-2.9c0.8-0.6,1.8-1.1,2.9-1.5
		l3.2-1.2c0.9-0.1,1.6-0.5,2.3-1.2c0.1-1.1,0.4-2.3,0.9-3.5l2.6,0.3h0.9v-0.3c0.7-0.7,1.2-1.5,1.5-2.6l-4.1-0.3l-1.5,2.6l-2.6,1.7
		l-2.9,1.2c-0.9,0.2-1.7,0.7-2.6,1.5c-0.5,1-1.1,1.8-1.7,2.6c-0.9,0.4-1.7,1-2.3,1.7l-2.3,0.9c-0.4,0-0.7-0.2-0.9-0.6v-4.4l-0.6-3.5
		l-2.6-1.5c0.3-0.5,0.8-1,1.5-1.5c0.9-0.1,1.8-0.6,2.6-1.5c0.6-0.7,1.4-1.4,2.3-2l2.9-1.2l1.7-2.6c0.5-0.7,1.3-1.2,2.3-1.5
		c0.9,0.2,1.7,0.7,2.6,1.5l-0.6-2.9c-0.7-0.6-1.5-1.2-2.3-1.7c-1.1,0.2-2,0.7-2.9,1.5l-11.9-0.6c-1.1-0.3-2.1-0.9-2.9-1.7l-0.6-3.5
		c-0.2-0.6-0.3-1.4-0.3-2.3l0.3-0.9c-0.1-1-0.5-1.9-1.2-2.9c-1-0.4-1.7-1.2-2-2.3l-2-6.4c-0.3-0.9-0.7-1.8-1.2-2.9l-1.2-3.2
		l-1.5-2.6l-2-2.3c-1.1-0.4-2.1-0.7-3.2-0.9c-1-0.2-2-0.7-2.9-1.5l-0.6-11l0.3-0.9l6.4-0.3l-0.6-1.2c-0.6-0.7-1.3-1.4-2-2
		c-1-0.5-1.6-1.4-1.7-2.6l2-2.3l0.9-3.2c-0.5,0.9-0.9,1.9-1.2,2.9l-3.2,0.9l-3.8,12.2l0.6,0.3c0.5,0.8,0.8,1.8,0.9,2.9l-0.3,4.1
		c-1.2,0-2.4-0.2-3.8-0.6l-1.7-2.3l-1.7-0.6l0.6,3.5c-0.6,0-1.3-0.2-2-0.6l-2-2c-0.5-0.7-1.2-1.4-2-2l-1.5,2.9
		c0,0.5-0.2,1.1-0.6,1.7l-0.3-1.5c-0.9,0.4-1.9,0.9-2.9,1.5c-0.7,0.4-1.5,0.6-2.3,0.6c-0.7,0.5-1.3,1.2-1.7,2l0.3,3.8l1.5,0.3
		l0.6-0.3v-4.6h1.2l3.5-0.6c0.6,0.8,1.1,1.8,1.5,2.9l-2,10.8l1.5,2.9c-0.3,1-0.9,1.8-1.7,2.6l-3.2,0.9c-0.4-0.7-0.7-1.5-0.9-2.3
		l1.2-0.3c1.2,0,1.8-0.7,2-2c-0.7-0.6-1.5-1.2-2.3-1.7l-2-2c-0.8-0.5-1.6-1.3-2.3-2.3l-0.6-3.5l-0.6-9.9c0.4,0.4,0.9,0.7,1.5,0.9
		c0.3-1,1.1-1.7,2.3-2l3.8,0.3c-0.8-0.5-1.5-1.2-2-2c0.3-1,0.8-2.1,1.5-3.2c0.7,0.7,1.1,1.6,1.2,2.6v1.2c0.6,0,1.2-0.3,1.7-0.9
		l-0.6-3.8c-0.2-0.9-0.7-1.7-1.5-2.6l-1.7-0.3l-0.3,1.7l-2.3,0.6l-0.6-0.9l-0.9-3.5c-0.4-0.9-1-1.6-1.7-2.3c-0.9-0.4-1.8-1-2.6-1.7
		c-0.4-0.8-1-1.5-1.7-2.3l-0.6-3.8V36L106.6,27.9z M74.6,111.3c0.7,1.5,1.1,3.1,1.2,4.9l-1.7,0.6c0.4,0.7,0.8,1.5,1.2,2.3l0.6,3.8
		l1.5-0.6c1.6-0.1,3.2-0.7,4.6-1.7c-1.4-0.5-2.8-1.4-4.1-2.6l-0.3-1.5c0.7,0.5,1.6,0.8,2.6,0.9l0.6-2.9l-2.6-0.3
		C77.3,113,76.1,112,74.6,111.3z M74,185.4v2.6l1.2-0.6l0.6-2H74z M74.3,124.6c0.2,0.9,0.7,1.7,1.5,2.3c0.6,0.6,1.4,1,2.3,1.2
		l-1.2-2.6C76.1,125.1,75.3,124.8,74.3,124.6z M81.8,192.9l-1.5,2.6l-3.5,0.3l-2.6,0.9c0,0.9,0.4,1.8,1.2,2.6c0.5-0.6,1.2-1.2,2-1.7
		l2.9-0.9l2.3-1.5C82.6,194.5,82.3,193.7,81.8,192.9z M74.6,47.9c0.3,0.4,0.8,0.7,1.5,0.9C75.7,48.3,75.2,48,74.6,47.9z M74.6,140.6
		v1.7l0.9-1.5L74.6,140.6z M75.7,50.8l-0.3,2.9l0.3,0.9l0.9,0.3l0.3-0.3l0.3-3.8C77.2,50.8,75.7,50.8,75.7,50.8z M75.7,94.4l2,0.3
		l0.6-0.3H75.7z M76.3,97.6l-0.6,1.2l1.7-0.3L76.3,97.6z M76,206.3c0.7,1.7,1.1,3.6,1.2,5.8l-1.5,4.1h1.5l1.2-0.3l0.3-5.2
		C78.4,209,77.5,207.6,76,206.3z M78.1,180.1l-1.7,3.5l0.9,0.3l1.7-0.6L78.1,180.1z M79.2,151.1c0.1,0.9,0.5,1.8,1.2,2.6v-2.6H79.2z
		 M84.5,52.8L80.7,54c-0.4,0.1-0.8,0.4-1.2,0.9l0.6,2.3c1.3,0,2.6-0.3,4.1-0.9l0.6-2.6v-0.9H84.5z M79.5,109.8c0,0.9,0.4,1.6,1.2,2
		l0.3-2H79.5z M79.5,200.8c0.1,0.9,0.4,1.8,0.9,2.6C80.3,202.5,80.1,201.6,79.5,200.8z M81,68.5c0.1,0.4,0.4,0.7,0.9,0.9l2.6-0.6
		L81,68.5z M83,160.4l-2,3.2l0.6,0.3l3.8-3.5H83z M83,92.9c-0.5,1-0.8,2.2-0.9,3.5l1.5-0.6l1.5-1.7L83,92.9z M83.3,181.9l-0.6,2.9
		c0,0.4,0.2,0.7,0.6,0.9l0.3-2.9v-0.9H83.3z M83.3,137.7c0,1.1,0.3,2.1,0.9,3.2L83.3,137.7z M84.8,170.8l-1.2,7.3H85l0.9-3.8v-3.2
		L84.8,170.8z M85.6,193.5l-1.7,0.6c0.1,0.5,0.4,1,0.9,1.5l1.5-0.3v-1.5L85.6,193.5z M84.5,113c0.1,0.8,0.4,1.6,0.9,2.3
		C85.3,114.6,85,113.8,84.5,113z M84.5,120c0,1.3,0.6,2.2,1.7,2.9C86.1,121.7,85.5,120.8,84.5,120z M85.9,32.5L85,36l1.7-0.3
		c0.4-0.8,0.7-1.6,0.9-2.6L85.9,32.5z M86.5,198.4l-0.3,4.9l0.9,0.3v-4.4C87,198.9,86.8,198.6,86.5,198.4z M86.5,70l0.6,2.9l1.7-0.3
		V70H86.5z M86.8,163.6l0.3,0.9l0.3-0.9H86.8z M87.1,97.6c0.1,0.7,0.5,1.3,1.2,1.7C88,98.7,87.6,98.1,87.1,97.6z M88.8,93.5L88,94.7
		h1.7C89.6,94.3,89.3,93.9,88.8,93.5z M88.2,117.1c0,0.4,0.2,0.8,0.6,1.2l0.3-1.2H88.2z M88.5,153.1v1.5c0.5-0.3,0.9-0.8,1.2-1.5
		H88.5z M90.3,66.2l-1.2,0.9C89.6,67,90,66.7,90.3,66.2z M96.4,188.9c-0.6,0.7-1.4,1.3-2.3,1.7l-3.2,0.3c-0.4,0.8-0.6,1.6-0.6,2.6
		l0.6,0.3l1.5-0.3H93l6-1.5l0.6-3.2L96.4,188.9L96.4,188.9z M92,213c-0.7,0.3-1.2,0.8-1.5,1.5C91.5,214.4,92,213.9,92,213z
		 M91.1,133.9l0.6,1.7l1.5-0.6C92.6,134.6,91.9,134.2,91.1,133.9z M92,57.2l-0.6,2.9h1.5l0.3-2.9H92z M94.9,50.2
		c-1.3,0-2.2,0.6-2.9,1.7l0.3,1.2l2.3-0.9l3.2-0.6C97.2,50.8,96.2,50.3,94.9,50.2z M93.2,84.5l-0.3,2.6h2.6
		C95.3,85.8,94.5,84.9,93.2,84.5z M92.9,94.1c0.1,0.4,0.4,0.8,0.9,1.2C93.7,94.8,93.4,94.4,92.9,94.1z M92.9,217v2l1.2-0.3l0.3-1.7
		H92.9z M93.5,47.6c0.2,0.5,0.6,0.8,1.2,0.9C94.3,48.1,94,47.8,93.5,47.6z M94.6,97.3c-0.4,0.4-0.7,0.9-0.9,1.5
		C94.2,98.4,94.5,97.9,94.6,97.3z M94.6,148.5l-0.3,2l1.7-0.3C95.8,149.5,95.3,148.9,94.6,148.5z M98.1,170v5.8l-1.7,9.3l-1.5,0.9
		c0.4,0.6,1,1.1,1.7,1.5l1.2-4.4c0.6-1.3,1.1-2.6,1.5-4.1l0.3-5.2V170H98.1z M95.8,81.9c0.4,0.9,1.1,1.6,2,2c0.4,0.8,1,1.5,1.7,2
		L99,82.5L95.8,81.9z M97.3,194.4l-0.6,0.9l0.6,2.3l0.3-2.3v-0.9H97.3z M97,215l-0.3,1.7h0.9v-1.5L97,215z M97.5,208.9l1.5,3.2
		l1.2,0.6l2.9-0.3c-0.6-0.8-1.4-1.5-2.3-2C99.8,209.8,98.7,209.3,97.5,208.9z M98.7,157.5c0,1.2,0.3,2.3,0.9,3.5
		C99.5,159.8,99.2,158.6,98.7,157.5z M99,36.3c0,0.5,0.2,1,0.6,1.5l0.3-1.5H99z M99.6,144.7l-0.6,1.7h1.5
		C100.4,145.7,100.1,145.2,99.6,144.7z M99,164.2v0.6h0.3v-0.6H99z M99.6,164.7c0.1,1.1,0.4,2.1,0.9,3.2h2
		C101.8,166.7,100.8,165.7,99.6,164.7z M100.4,153.7c0,0.8,0.3,1.5,0.9,2L100.4,153.7z M102.5,81.3l-0.9,2l0.6,0.9
		c0.6,0.7,1.2,1.5,1.7,2.3l0.6-2.3l-0.3-0.9C104.2,82.2,103.6,81.6,102.5,81.3z M103.9,192.9c-0.8,0.5-1.5,1.2-2,2l1.2,2.6
		c0.6-0.4,1.1-1,1.5-1.7L103.9,192.9z M105.1,187.1l-2,0.3c0.2,1.2,0.7,2.2,1.5,3.2l2-3.5H105.1z M103.6,201.1
		c0.1,0.4,0.4,0.8,0.9,1.2C104.5,201.7,104.2,201.3,103.6,201.1z M110,136.5l-4.1,1.7c-0.5,1-0.8,2-0.9,3.2c1.2-0.5,2.2-1.3,3.2-2.3
		C109,138.5,109.6,137.6,110,136.5z M105.4,168.5c0.2,1.3,1,2,2.3,2.3C107.4,169.8,106.6,169,105.4,168.5z M107.4,131.6l-0.6,1.7
		l1.7-0.6C108.3,132.3,108,131.9,107.4,131.6z M107.4,81.6l-0.3,1.2l0.6,0.3l0.3-0.9L107.4,81.6z M108.3,85.4l-1.2,2.9l1.5-0.3
		c0.5-0.6,0.9-1.4,1.2-2.3L108.3,85.4z M107.7,149.6l0.3,3.2h1.2l0.6-1.2l-0.6-2H107.7z M107.7,206.9l0.3,1.2l1.7-0.3
		c-0.2-0.9-0.8-1.4-1.7-1.5L107.7,206.9z M108.6,33.4v3.2l2.6-0.3C110.9,34.9,110,33.9,108.6,33.4z M109.2,121.7l-0.6,1.2h1.2
		L109.2,121.7z M108.6,188.9l0.6,4.1l0.9-0.6l0.6-3.5H108.6z M109.7,144.7c0.1,0.4,0.4,0.8,0.9,1.2
		C110.5,145.4,110.2,145,109.7,144.7z M111.5,185.4l-1.2,0.3c0,0.6,0.3,1.1,0.9,1.5l1.2-1.5L111.5,185.4z M110.6,179.6
		c0.1,1.7,1,3.1,2.6,4.1C112.9,182,112.1,180.6,110.6,179.6z M114.1,42.1c-1,0.3-1.8,0.9-2.6,1.7l-0.3,4.1l2-0.6v0.9h0.3l-0.3,0.3
		c-0.8,0.5-1.3,1.2-1.5,2l3.5-0.9c0.7-0.5,1.3-1.3,1.7-2.3c-0.6-0.8-1.1-1.6-1.5-2.6C115.4,43.8,114.9,42.9,114.1,42.1z
		 M112.1,134.2c0.3,0.4,0.8,0.7,1.5,0.9C113.2,134.7,112.7,134.4,112.1,134.2z M112.4,38.9c0.1,0.5,0.5,0.9,1.2,1.2
		C113.3,39.6,112.9,39.2,112.4,38.9z M113.2,157.8l0.6,4.6l-1.2,9c0,1,0.2,1.9,0.6,2.6l1.2-4.1l0.6-4.4V158L113.2,157.8z
		 M113.5,125.2c0.3,1.3,0.9,2.5,1.7,3.8l0.6,1.5l2.3-0.9c-0.3-0.9-0.7-1.7-1.2-2.6C115.9,126.3,114.8,125.7,113.5,125.2z
		 M113.5,193.8c0,1,0.2,1.9,0.6,2.9l2.9-0.3l0.3-2L113.5,193.8z M113.8,117.9v2l1.2-0.6C114.8,118.7,114.4,118.2,113.8,117.9z
		 M116.1,139.4l-1.5,9c0,1.3-0.2,2.6-0.6,4.1l-0.3,3.2l1.2-0.6c0.9-0.6,1.5-1.6,2-2.9c0.1-1.4,0.4-2.9,0.9-4.6v-3.8l-0.3-0.9
		C117.4,141.8,116.9,140.6,116.1,139.4z M115.9,131.6l-0.9,1.2C115.5,132.6,115.8,132.2,115.9,131.6z M115.9,51.1l-0.3,2l2-0.6
		l0.9-1.5L115.9,51.1L115.9,51.1z M116.4,171.4v2.6l1.2-0.6l0.3-2H116.4z M117,109.2h2.6l0.6,2.9c-0.1,0.3-0.3,0.6-0.6,0.9l-2,0.6
		L117,109.2z M119.6,42.1l-1.2,0.9C119,42.9,119.4,42.6,119.6,42.1z M120.2,33.7l-0.9,4.4l0.6,0.3l0.9-0.3c0.4-1.4,0.7-2.8,0.9-4.4
		H120.2z M120.5,122.9l-0.6,1.5l0.3,0.6l1.2,0.3c0.2-0.6,0.4-1.4,0.6-2.3L120.5,122.9L120.5,122.9z M122.2,45.9
		c-0.6,0.8-1,1.6-1.2,2.6h2c0.4-0.8,0.7-1.6,0.9-2.6H122.2z M126.3,113.3l2.9,1.2l3.8-0.9h2.3c-0.2,0.6-0.5,1.2-0.9,1.7l-6.1,3.2
		l-1.7,1.2l-1.2-0.9l-1.5-3.2C124.6,114.9,125.4,114.1,126.3,113.3z M124.6,59.5v2.9l2.3-0.3C126.4,61.1,125.6,60.3,124.6,59.5z
		 M126.6,53.1l-0.3,2.3h2.6v-2.3H126.6z M130.7,119.4h3.2c-0.4,0.9-1,1.8-1.7,2.6l-2.6,0.6C130,121.7,130.4,120.6,130.7,119.4z
		 M131.5,57.2v1.7l0.6-1.5L131.5,57.2z M131.8,60.7c-0.1,0.7-0.2,1.5-0.3,2.3c0,0.4,0.2,0.7,0.6,0.9l0.6-2.6L131.8,60.7z
		 M135.9,43.5c-0.6,0.9-1,1.8-1.2,2.9c0,0.9,0.5,1.5,1.5,1.7c0.7-0.6,1.1-1.5,1.2-2.6v-2C137.4,43.5,135.9,43.5,135.9,43.5z
		 M135,147.6l-0.3,1.2l2,0.6l0.6-0.3l0.3-1.5H135z M136.5,36.6l-0.9,0.6l0.6,1.7l1.2-0.3l0.9-1.7L136.5,36.6z M149.9,106l1.5,0.6
		c-0.4,0.4-0.7,0.9-0.9,1.5l2.3,0.9c1.2,0.1,1.9,0.8,2.3,2l-11,5.2l-3.2,0.9l-2,0.3l0.3-1.7l1.2-2.9l2.9,1.2
		c0.6-0.6,1.2-1.4,1.7-2.3l1.5-1.7v1.2c0.6-0.2,1.2-0.6,1.7-1.2l-1.5-0.3l0.6-2L149.9,106z M140,142.1l1.5,2.9
		c0.2,1.1,0.9,1.7,2,1.7c-0.2-0.9-0.6-1.9-1.2-2.9C141.7,143.1,140.9,142.5,140,142.1z M140.6,59.2c0.1,1.1,0.5,2.1,1.2,3.2
		c1.1,0.4,1.8,1.3,2,2.6l-0.3,4.1c0.7-0.5,1.4-1.2,2-2l2.3-2.3l-1.7-2.3c-0.8-0.5-1.6-1.2-2.3-2C142.8,59.9,141.7,59.5,140.6,59.2z
		 M150.4,128.1h4.1l-0.6,2.3c0,1.4,0.2,2.8,0.6,4.4l-4.6-0.9l-0.3-2.9L150.4,128.1z M152.8,151.4l1.5,2v-2H152.8z M156.5,119.4
		l0.3,2l-2.6-0.3C154.6,120.3,155.4,119.7,156.5,119.4z M155.7,88c0,0.8,0.3,1.5,0.9,2C156.5,89.3,156.2,88.6,155.7,88z M156,165.9
		l-0.3,2c0.4,0,0.7-0.2,0.9-0.6C156.5,166.9,156.3,166.4,156,165.9z M156.5,122.9l2.9,0.3l-0.3,2l-2,0.3L156.5,122.9z M164.7,192.3
		c-1.5,0.5-3.1,1.2-4.9,2c-0.9,0.8-1.6,1.6-2,2.6c1.5-0.3,3.1-0.8,4.9-1.5C163.5,194.7,164.2,193.6,164.7,192.3z M162.6,107.2
		l2.3,0.3c-0.5,1-1.4,1.6-2.6,1.7l-1.7,4.4c-1.2-1.1-2-2.7-2.3-4.6C159.3,108.1,160.8,107.5,162.6,107.2z M160.9,99.1
		c0.2,0.7,0.7,1.2,1.5,1.5C162,100,161.5,99.5,160.9,99.1z M162.9,145.8l-1.2,0.9l1.2,2h4.9c0.4-0.5,0.7-1.2,0.9-2L162.9,145.8z
		 M165.8,130.4c-0.8,1.2-1.9,2.2-3.2,3.2c1.1,0.8,2.5,1.6,4.1,2.3c1,1,1.9,2.2,2.6,3.8l4.6-1.2v-3.8l-1.7-0.9
		c-0.6,1.1-1.5,2-2.6,2.9c-1.2-0.5-2.2-1.5-2.9-2.9l0.9-3.5L165.8,130.4L165.8,130.4z M164.1,138.6l-0.6,1.5l1.2,0.3L164.1,138.6z
		 M167.6,177.5l-0.6,2l0.3,0.6l0.3,0.9c0.5,1.1,1.4,1.9,2.6,2.3l-0.6-3.2C169,179.3,168.4,178.4,167.6,177.5z M167.6,224.9
		c0.1,0.7,0.4,1.4,0.9,2C168.4,226.2,168.1,225.5,167.6,224.9z M176.6,138.9c-0.8,1-1.5,2-2,3.2c-1,0.6-1.7,1.5-2.3,2.6l-0.9,4.4
		l-1.2,2l1.5,0.3c1.2,0.4,2,1.3,2.3,2.6c0.7,0.9,1.7,1.6,2.9,2.3l2.3,0.6l-1.5-3.8c0-0.4,0.2-0.7,0.6-0.9c1.1,0.2,2.1,0.6,3.2,1.2
		l2.6,0.6v-1.7c-0.5-1-1.4-1.8-2.6-2.3l-7-3.2c0.4-0.9,1-1.8,1.7-2.6c1.5-0.1,2.2-1,2.3-2.6C178.2,140.6,177.5,139.7,176.6,138.9z
		 M170.8,110.7c0.2,0.8,0.7,1.5,1.5,2C172,112,171.5,111.3,170.8,110.7z M170.8,208.6h1.7l-0.3,3.5
		C171.3,211.2,170.8,210.1,170.8,208.6z M177.2,183.9c-1.6,0.4-3.1,1.2-4.6,2.3c-0.7,0.7-1.2,1.6-1.5,2.6l1.7,0.9
		c1.1-0.9,2.1-2.1,2.9-3.8l2.9-0.3v-1.7H177.2z M174,177.5c-0.6,0.6-1.1,1.4-1.5,2.3h1.5l1.2-0.3C174.9,178.8,174.6,178.1,174,177.5
		z M172.5,192.9v2.6l1.5-0.3v-2.3H172.5z M176.6,111l-2.3,1.7v1.5l2-0.6l2.6-1.2C178.3,111.7,177.6,111.3,176.6,111z M174.8,124.9
		l-0.3,2.3l2.3-1.2L174.8,124.9z M174.8,166.5l-0.3,1.2h0.6v-1.2H174.8z M174.8,85.7l0.3,1.5V86L174.8,85.7z M175.1,160.4
		c0.7,1.3,1.7,1.9,3.2,2C177.5,161.5,176.4,160.8,175.1,160.4z M184.4,97.3l-4.1,0.9l-2.6,2l-0.6,2l4.9,1.7l1.2,1.7l0.9-0.9
		c-0.5-1-0.9-2.1-1.2-3.5l-0.3-2.6h1.2l0.3-0.3c0.7-0.1,1.3-0.5,1.7-1.2h-1.4V97.3z M178.3,191.8v0.6l0.6-0.3L178.3,191.8z
		 M178.9,145.6v2l2.3-0.3C181,146.2,180.2,145.6,178.9,145.6z M181.5,138.3l0.6,7l2.3-0.3c0.2-1.1,0.4-2.4,0.6-3.8
		c0-0.2-0.2-0.4-0.6-0.6C183.6,139.8,182.6,139.1,181.5,138.3z M183,122.3l-0.6,2l4.4,0.3C186.2,123.1,184.9,122.4,183,122.3z
		 M183,181.9c0,0.9,0.3,1.6,0.9,2.3C183.8,183.4,183.5,182.7,183,181.9z M183.6,158.6l-0.3,2.3l0.9,0.6l2.3-0.3l0.6-2L183.6,158.6z
		 M185,178.7c0.2,0.6,0.7,1,1.5,1.2C186.1,179.4,185.6,179,185,178.7z M186.8,225.5l-0.6,1.2h1.5
		C187.4,226.2,187.2,225.9,186.8,225.5z M186.8,109.8c0.1,1.1,0.8,1.6,2,1.7C188.4,110.8,187.7,110.2,186.8,109.8z M187.3,100.5
		l-0.3,2l0.3,0.9l1.2,0.6l0.6-0.3l0.6-2l-0.3-0.9L187.3,100.5z M187.3,155.1l0.6,3.5h1.5C189.3,157.2,188.6,156.1,187.3,155.1z
		 M188.8,151.4l-0.3,0.9h0.9L188.8,151.4z M190.3,187.1c-0.4,0.4-0.7,0.9-0.9,1.5C189.9,188.3,190.2,187.8,190.3,187.1z
		 M189.7,147.3c0.2,0.7,0.7,1.2,1.5,1.5C190.9,148.1,190.4,147.6,189.7,147.3z M193.2,94.1c-0.8,0.7-1.5,1.6-2,2.6l1.2-0.3
		c0.8-0.5,1.5-1.3,2-2.3C194.4,94.1,193.2,94.1,193.2,94.1z M193.7,86.3l-2,0.9c0.1,0.5,0.5,0.9,1.2,1.2l1.5-0.3l0.3-1.7L193.7,86.3
		L193.7,86.3z M194.9,178.7c-0.8,0.6-1.6,1.4-2.3,2.3h1.2l1.7-0.3l0.3-1.7L194.9,178.7z M193.4,197.9c0.3,0.4,0.8,0.7,1.5,0.9
		C194.6,198.3,194.1,198,193.4,197.9z M195.2,97.6l-0.6,3.5c0.4,0.5,0.9,0.8,1.5,0.9l1.2-2.6C196.7,98.7,196,98.1,195.2,97.6z
		 M196.9,91.2l-1.2,1.5l0.9,0.9c0.4-0.3,0.8-0.8,1.2-1.5C197.7,91.7,197.4,91.4,196.9,91.2z M198.1,206.6c0.9,0.6,1.4,1.6,1.5,2.9
		C198.9,208.7,198.4,207.7,198.1,206.6z"/>
	<path class="st0" d="M214.5,21.5h48l2.9,0.3l0.9-0.3h0.9L266.8,47l-2.3,0.6c-0.6,0.6-1.1,1.4-1.5,2.3l2-0.3l1.7-0.6v9.9l0.3,1.2
		v27.3c-0.3,1.4-1.2,2.2-2.6,2.3c1.2,0.8,2.1,1.8,2.9,3.2l0.3,20.1l-1.2,5.8c-0.4,0.7-1.1,1.3-2,1.7c0.1,0.7,0.4,1.4,0.9,2
		c1,1.4,1.7,3,2,4.9L268,138l-0.3,0.9l-0.3,14.5c-0.4,1.9-1.7,3-3.8,3.2c-1.7,0-3.1,0.9-4.1,2.6c-0.9,0.6-1.6,1.3-2.3,2l1.7,0.6
		c1.7-0.2,3.4-0.7,5.2-1.5c0.9-0.6,1.9-1.1,3.2-1.5l0.3,8.7c0.6,1.6,1,3.4,1.2,5.5l1.5,5.5c0.5,1.4,1.3,2.8,2.3,4.4l2,4.9l2.3,0.6
		c-0.3,0.9-0.7,1.8-1.2,2.6c-0.4,0.7-0.6,1.5-0.6,2.3l2.6,0.9h2.3l3.2-0.9l1.7-1.2l3.8,0.3c1.6,0,3.2-0.7,4.6-2
		c1.3-1.2,2.9-1.8,4.9-2l31.4,2.3c0.6,0.1,1.4,0.2,2.3,0.3l0.6-0.3l-1.2-2c-1.3-1-2.8-1.7-4.7-2l-28.5-1.5l4.1-20.6l0.3-6.4
		l-0.6-6.1l0.3-3.2l-0.3-0.9l-0.3-15.7l0.3-6.4c0-1.7,0.6-3.5,1.7-5.2l1.2-0.3c-0.2-1.4-1-2.3-2.3-2.9V51.1l0.3-1.2l0.9-0.6L311,51
		l0.9-0.3l0.6-0.6l-0.3-0.6c-1.4-0.6-2.8-1.4-4.4-2.3c-0.4-0.4-0.9-0.8-1.5-1.2l-3.5,0.6l-0.3-6.1l0.3-2c0.7,0.7,1.6,1.3,2.6,1.7
		c0-1.7-0.9-3.1-2.6-4.1l-0.6-14.8h29.9l-0.6,2c-0.7,1.5-1.3,3.2-1.7,5.2c-0.8,1.4-1.4,3.1-1.7,4.9l-0.3,2.9l0.3,3.2
		c-0.6,1.6-1.1,3.5-1.5,5.5c0,1.8,0.4,3.7,1.2,5.5l2.3,0.3l0.9-0.3l0.3-1.5v-0.6H331c-1.3-0.9-2.3-2.2-3.2-3.8c1-1,1.9-2.4,2.6-4.1
		c0.5-1.7,0.9-3.6,1.2-5.8l1.2-5.5c0.8-1.5,1.4-3.1,1.7-4.9v-3.2l3.8,0.3l-3.2,10.2c0,1.6,0.4,3.2,1.2,4.9c0.2,1.3,0.7,2.6,1.5,3.8
		v-1.5l2-11.6V22c0.1-0.2,0.4-0.4,0.9-0.6h5.5l0.3,4.4l-1.2,0.6l0.3,1.5l2.6,0.6l1.2-7h5.5V32l-0.9,4l0.6,0.9
		c0.3,1.9,0.5,3.9,0.6,6.1v3.8c-0.7-0.3-1.3-0.8-1.7-1.5c-1,1-2.1,1.9-3.5,2.9l-3.8-0.3l-1.7,0.6c0.1,1.7,0.7,3.4,1.7,4.9
		c1.4-0.7,2.5-1.8,3.5-3.5l2-0.9c1.1,0,2.3,0.2,3.5,0.6l-0.3,20.1c-1.4,0.6-3,1-4.7,1.2c-0.1,0.7-0.2,1.5-0.3,2.3l0.3,0.6l2.3-0.6
		l2.3-1.2l0.3,104.6c-0.1,1.7-0.4,3.7-0.9,5.8l-6.4,20.9l-2.3,4.4c-0.7,1.4-1.6,2.8-2.6,4.4l-5.8,7.8l-3.2,3.5l-3.8,2.9
		c-1.1,1-2.4,1.9-4.1,2.9c-1.3,0.8-2.7,1.6-4.4,2.3l-4.9,2c-1.6,0.5-3.5,0.9-5.5,1.2l-5.8,0.9h-4.9l-0.6-1.5l-3.5-3.2
		c-1.5-0.9-3.2-1.5-5.2-1.7c-0.8-0.9-1.8-1.5-2.9-1.7c0.8,1.3,1.8,2.6,3.2,3.8c1.5,0.7,3.2,1.2,5.2,1.5l0.3,1.7l-0.3,0.6l-8.1-1.2
		l-0.6,2.3h-2.9l-1.5-1.2l-5.5-1.2h-7l-1.2,0.3l-2.9-0.6h-0.6l-0.9-0.3l-11-2.6l-4.9-1.7c-1.5-0.4-3.1-1.1-4.6-2
		c-0.3-1-0.5-2.1-0.6-3.5l0.9-2c-0.2-0.8-0.5-1.5-0.9-2.3c-0.8,0.1-1.6,0.5-2.3,1.2l-0.3,3.8l-2.3-0.6c-1.4-0.7-2.5-1.9-3.2-3.5
		l0.6-1.7l-3.8-0.6l0.9-3.8h-4.6l-1.5-2.6c0-1.6-0.3-3.5-0.9-5.5c-0.5,0.4-1.2,0.7-2,0.9c-0.1-0.6-0.2-1.4-0.3-2.3l0.3-0.6
		c1-1.3,2.3-2.2,4.1-2.9c0.8-0.4,1.5-1.1,2-2c-0.6-0.1-1.4-0.2-2.3-0.3c-1.8-0.1-3.1-1.1-3.8-2.9l-0.3-1.5c0.3-1.7,0.7-3,1.2-3.8
		c1,1.2,1.7,2.6,2.3,4.4c0.6-0.9,1-1.9,1.2-3.2l-0.3-2.9l0.3-3.2l0.6-1.7l-1.7-2.6c0.8-1.3,1.5-2.7,2-4.4c1-1.1,2-2.4,2.9-3.8v-3.2
		c-0.7-0.4-1.5-0.8-2.3-1.2c-1.3,0.9-2.2,2.2-2.9,3.8c-2-0.2-3.1-1.5-3.2-3.8l-0.6-1.5l-4.4,0.3l-2.9-0.6l-0.9,0.6l-1.5,0.3v-37.8
		l0.3-1.2l1.2,10.5c0.1,0.9,0.4,1.9,0.9,2.9l0.6-2l3.8-3.2l0.6-1.5c-1.1,0.1-2.1,0.3-3.2,0.6l-1.2,0.6v-0.9l1.2-15.7v-1.2
		c-0.1-1.8-0.4-3.9-0.9-6.1l-0.9-3.8c-0.3,0.2-0.6,0.5-0.9,0.9l-0.9-2V89.5h1.5l0.3-0.3c0.6-1.3,1.5-2.8,2.6-4.4l0.6-2
		c-0.7-0.5-1.4-1.2-2-2c-0.4-0.6-1-1.2-1.7-1.7v8.4l-0.3,1.2l-1.2,0.3V73.2l1.5-0.3v-1.2l-0.3-0.3c-0.8-1.7-1.2-3.6-1.2-5.8
		l-0.3-15.1l3.5,1.7l5.8-0.6c1.5-0.6,3.2-1.1,5.2-1.5c1.5,1,3.2,1.5,5.2,1.5c0.9,0.3,1.7,0.7,2.6,1.2l5.5-0.9l5.8,0.9l2.9-0.3
		c1.5-0.3,2.8-1.2,3.8-2.6c-0.5-0.5-1.1-1-1.7-1.5l-2,1.2l-4.4,0.6l-0.3-1.7c0-0.8,0.2-1.7,0.6-2.6l-2.3,0.6l-4.4,2.6l-3.8,0.6
		l-0.9-1.7c-1.4-0.4-3.1-0.7-4.9-0.9l-2.9,0.3l-2.6-1.2l0.3-3.2c-0.7,0.3-1.3,0.8-1.7,1.5v4.1l-2.6-0.3H216l-0.6,0.3l-0.3-0.3v-5.5
		l-0.3-1.2L214.5,21.5z M214.5,116.8h1.5v8.1h-1.5V116.8z M215.4,172c0.7,1.3,1.2,2.6,1.5,4.1l-0.6,0.6l-1.2-0.3l-0.3-1.2L215.4,172
		z M216,98.5c0.2,0.8,0.6,1.5,1.2,2l0.3-2H216z M216,103.7c0.1,0.8,0.5,1.6,1.2,2.3l0.3-2L216,103.7z M216.3,62.4
		c0.1,0.7,0.5,1.3,1.2,1.7l0.3-1.7C217.8,62.4,216.3,62.4,216.3,62.4z M216.3,145.3l0.3,1.7l1.7-0.3c-0.4-0.8-1-1.5-1.7-2
		L216.3,145.3z M216.6,43.3c0.4,0.5,1,0.8,1.7,0.9L216.6,43.3z M217.4,151.1l-0.3,2c0.5,0.3,1.2,0.6,2,0.9c-0.3,1.4-0.7,2.7-1.2,4.1
		c0.1,1.3,0.5,2.6,1.2,3.8c1,0.6,2.2,1,3.5,1.2h1.2c0-1-0.3-1.9-0.9-2.9c-0.8-1.2-1.2-2.5-1.2-4.1l0.3-1.7l-2-0.9
		C219.5,152.3,218.6,151.6,217.4,151.1z M217.4,183.9c1.3,0.3,2.6,1.1,3.8,2.3l1.5,4.1l0.3,4.4l-0.3,0.9v4.6l-0.3,0.9
		c-0.8-0.7-1.5-1.7-2-2.9l-2.6-8.7L217.4,183.9z M219.5,129v2.6l2.3-0.9L219.5,129z M225.3,137.7l-0.9,1.2l0.9,2.3l1.2,1.5l-1.7,1.2
		l-1.2,4.1c-1.3,0.1-2.5,0.7-3.5,1.7c1.3,0,2.6-0.2,4.1-0.6c1.2-0.5,1.9-1.5,2.3-2.9l0.3-4.9v-2.9L225.3,137.7z M220.3,141.5
		L220,143h0.9C220.9,142.5,220.7,142,220.3,141.5z M221.2,89.2c0.3,1.2,1.2,1.9,2.6,2v-2H221.2z M222.9,115.6l0.3,1.5l2-0.3
		C224.6,116.3,223.8,115.9,222.9,115.6z M224.4,105.4l-0.6,3.5c0.2,1,0.8,1.5,1.7,1.5l0.3-2.9C225.7,106.7,225.2,106,224.4,105.4z
		 M224.1,127.8l-0.3,2.3l3.2,0.3C226.5,129.2,225.6,128.3,224.1,127.8z M224.1,36.9c0.2,0.8,0.7,1.5,1.5,2
		C225.4,38.1,224.9,37.4,224.1,36.9z M224.1,74.3c0.3,0.5,0.8,0.9,1.5,1.2C225.3,75,224.8,74.6,224.1,74.3z M226.4,119.4
		c-0.7,0.1-1.5,0.2-2.3,0.3c0.1,0.9,0.5,1.6,1.2,2.3c0.9-0.5,1.6-1.3,2.3-2.3L226.4,119.4z M225.6,53.7l-0.6,2l0.3,0.9l3.8-1.5
		C228.2,54.3,227,53.8,225.6,53.7z M229.6,127.5l-0.6,4.4l-3.8,1.5l2.6,0.9c1.1,0.7,1.7,1.8,2,3.2l0.3,2.3c0.6-0.1,1.4-0.2,2.3-0.3
		l0.3-3.8l-1.5-4.9C231.3,129.5,230.7,128.4,229.6,127.5z M239.5,151.9l-8.1,1.5l-2.6,2l-2,0.9c0,0.4,0.2,0.8,0.6,1.2l7.8-1.5
		c0.8-0.6,1.6-1.4,2.3-2.3C238.3,153.4,239,152.8,239.5,151.9z M230.5,106.9l-1.2,4.1v8.4l0.3,0.9c0.1,1.1,0.5,2,1.2,2.9l1.2-3.5
		v-4.9L230.5,106.9z M230.8,80.2l-1.2,0.6c0,1.1,0.2,2.4,0.6,3.8c0.4,0,0.7-0.2,0.9-0.6v-3.8H230.8z M230.2,60.7v4.6l0.3,2.6
		l0.9-0.9l0.6-3.8v-2.6L230.2,60.7L230.2,60.7z M230.2,90.3V102c0.1,0.5,0.3,0.8,0.6,0.9c0.3-2,0.5-4.2,0.6-6.7
		C231.3,94.4,230.9,92.4,230.2,90.3z M230.2,145c0,1.4,0.2,2.9,0.6,4.4v-3.2C230.7,145.7,230.5,145.4,230.2,145z M230.2,204
		c0,0.6,0.3,1.1,0.9,1.5C231,204.8,230.7,204.4,230.2,204z M232.8,32.2l-1.7,1.2l0.3,9.6l0.9-0.3c1-1.4,1.5-3,1.7-4.9
		C233.8,36.1,233.4,34.2,232.8,32.2z M231.7,76.7c0.1,1.7,1.1,2.6,2.9,2.6C234.1,77.9,233.2,77.1,231.7,76.7z M237.5,176.9
		c-1.2,0.6-2.3,1.4-3.5,2.3c-0.5,1-0.9,2-1.2,3.2l0.9,0.3l3.8-1.7l0.6-3.2C238,177.4,237.8,177.1,237.5,176.9z M241.8,185.4v2.9
		l-2.9,0.3c-1.2-0.6-2.4-1.4-3.5-2.3l-2-0.3l-0.3,7l0.6,0.6l3.8-1.5l2.3-0.6c0.3,0.6,0.8,1.1,1.5,1.5l2-7.6L241.8,185.4L241.8,185.4
		z M242.4,161.5l-3.5,2c-0.9,0.7-1.6,1.7-2.3,2.9l1.7,3.8l0.9,4.4c0.2,0.4,0.6,0.8,1.2,1.2c0.4-0.5,0.7-1.2,0.9-2v-5.2
		c0-1.4,0.5-2.7,1.5-4.1c0.4-0.9,0.7-1.8,0.9-2.9L242.4,161.5L242.4,161.5z M240.1,196.4c-1,0.4-1.8,1-2.6,1.7
		c-0.4,0.8-0.7,1.7-0.9,2.6c0.9,0.5,1.9,0.9,2.9,1.2c0.7,0.5,1.3,1.3,1.7,2.3l0.3,3.8h-4.1l-0.3,3.5l0.3,3.5c1,0.3,2.2,0.5,3.5,0.6
		l3.2-0.6l-0.3-10.8l-1.5-6.4C241.8,197.2,241.1,196.7,240.1,196.4z M238.9,32.5l-1.7,0.3c0.2,0.8,0.7,1.5,1.5,2l1.5-0.3
		C239.9,33.8,239.6,33.1,238.9,32.5z M238.6,137.1c-0.4,0.3-0.8,0.8-1.2,1.5l0.3,0.6l0.9-0.3l1.2-1.7h-1.2V137.1z M238.6,22.6
		l0.6,3.8c0.2,0.9,0.7,1.8,1.5,2.6l3.2,0.9c0.4,0.6,1,1.1,1.7,1.5c-0.1-0.9-0.4-1.9-0.9-2.9l-4.9-3.2
		C239.7,24.4,239.3,23.5,238.6,22.6z M238.9,99.1v1.7l0.9-1.5L238.9,99.1z M241,210.6l0.6,1.2l-1.7,0.6L241,210.6z M240.1,60.7
		c0.2,0.5,0.6,0.8,1.2,0.9C241,61.2,240.6,60.9,240.1,60.7z M240.4,115.6v1.5l2-0.3C241.8,116.3,241.2,115.9,240.4,115.6z
		 M241.5,38.3c0.9,0.7,2.1,1.1,3.5,1.2C244.1,38.7,242.9,38.4,241.5,38.3z M243,143.5l0.6,1.7l2.6-0.3
		C245.3,144.3,244.2,143.9,243,143.5z M247.4,181.6c-1,0.3-1.9,0.9-2.6,1.7l-0.3,2l1.2,0.6c0.8,0,1.6-0.4,2.3-1.2L247.4,181.6z
		 M245.3,101.4c0.2,0.7,0.7,1.2,1.5,1.5C246.5,102.2,246,101.7,245.3,101.4z M245.9,132.5l-0.6,3.2l2-0.6l0.9-1.5
		C247.6,133.2,246.8,132.8,245.9,132.5z M245.9,82.2c0.3,1.3,1.2,2,2.6,2.3C248.4,83.1,247.5,82.3,245.9,82.2z M246.8,87.1l-0.6,1.7
		h1.5C247.6,88.2,247.3,87.6,246.8,87.1z M247.1,114.7l-0.9,8.4c0.5,0.4,1.2,0.6,2,0.6l0.9-9H247.1z M247.4,219.1
		c0.5,0.8,1.3,1.4,2.3,1.7C249.3,219.8,248.6,219.2,247.4,219.1z M247.9,208.9c0.4,0.7,1.1,1.1,2,1.2
		C249.4,209.6,248.7,209.2,247.9,208.9z M249.1,76.1l-0.9,2l1.2,0.6c0.3-0.7,0.6-1.6,0.9-2.6H249.1z M248.5,107.5l0.3,3.5
		c0.8,0.4,1.8,0.6,2.9,0.6l-0.9-2.9C250.2,108.2,249.4,107.8,248.5,107.5z M248.5,197.3l0.3,2.9h1.5
		C250.3,199,249.7,198,248.5,197.3z M255.5,171.7c-0.2,1.2-0.9,2.1-2,2.6c-1.2,0.2-2.3,0.6-3.5,1.2l-0.3,1.2l0.3,2.9
		c1,0,2.1-0.2,3.2-0.6c0.6-0.5,1.4-0.9,2.3-1.2c1.1,0,2.3-0.3,3.5-0.9l-0.6-3.8C257.6,172.5,256.7,172,255.5,171.7z M251.1,58.4
		l-0.6,2.6v0.9l0.9-0.3L252,59C251.8,58.7,251.5,58.5,251.1,58.4z M250.8,42.4c0.1,0.8,0.5,1.5,1.2,2l3.5-0.3
		c-0.2-0.6-0.6-1.2-1.2-1.7H250.8z M251.1,64.8l-0.3,1.5l0.6,0.3V65L251.1,64.8z M250.8,140.3l0.3,3.8l1.7-0.6
		C252.8,142.2,252.2,141.1,250.8,140.3z M252,29.9v2.9l1.5,0.9c0.4,1.1,1.2,1.8,2.3,2v-4.4l0.3-0.6C254.8,30.4,253.4,30.1,252,29.9z
		 M276.7,208.9l-4.4,1.5c-1.2,0.4-2.5,1-3.8,1.7l-3.8,1.7l-9.9,7c-0.9,0.9-1.8,1.8-2.6,2.9c0.7,1,1.8,1.6,3.2,1.7l0.6,1.7
		c0.8,0,1.5-0.3,2.3-0.9c-0.2-0.9-0.5-1.9-0.9-2.9l1.2-0.6l4.1-1.5c1.1-0.6,2.1-1.4,3.2-2.3c0.8-0.9,1.7-1.9,2.9-2.9l3.5-2
		c1-0.6,2.1-1.4,3.2-2.3C276.1,210.9,276.5,210,276.7,208.9z M257.8,204.5l-5.2,2.3c0,0.8,0.2,1.6,0.6,2.3l5.2-2.9v-1.5L257.8,204.5
		z M257.2,78.1l-2.3,3.8l-0.6,2l1.7,0.3l0.6-0.3c1.3-0.4,2.2-1.4,2.9-2.9v-2.9H257.2z M254.9,124.6c-0.3,0.7-0.5,1.5-0.6,2.3
		l2.9-0.6c0.4-0.4,0.7-0.9,0.9-1.5L254.9,124.6z M266,177.8l-3.2,1.7l-2.6,2.3l-3.8,1.2l2,1.5l1.2,0.6l2.3-0.9
		c0.8-0.6,1.6-1.4,2.3-2.3c1.1-0.3,2.3-0.8,3.5-1.5v-2.6H266z M258.1,70.9c-0.6,0.2-1.1,0.6-1.5,1.2l1.2,0.3l0.6-0.3
		c0.6-0.2,1.1-0.6,1.5-1.2H258.1z M256.9,44.4c0.4,1.2,1.3,1.7,2.6,1.7C259.1,45.2,258.2,44.6,256.9,44.4z M261,187.4l-2.6,3.5
		l-0.9,2l2.3-0.3h0.9v-0.3l2.3,0.3v-5.2H261z M257.8,38.3v2c0.5-0.5,0.9-1.2,1.2-2H257.8z M258.1,50.8c0.2,1.2,0.9,1.7,2,1.7
		l0.3-1.7H258.1z M258.1,64.5l0.3,2l1.5-0.6l0.6-1.5L258.1,64.5L258.1,64.5z M259.3,103.7c0.3,0.6,0.8,1,1.5,1.2
		C260.4,104.4,260,104,259.3,103.7z M259.6,164.4c0.1,0.5,0.4,0.9,0.9,1.2C260.3,165.2,260,164.8,259.6,164.4z M261.9,57.5l-1.7,0.3
		c0.2,0.6,0.6,1.2,1.2,1.7l2.3,2.3l1.5-0.3l-0.3-2.6C264,58.3,263.1,57.8,261.9,57.5z M260.7,173.2l0.3,5.5c0.4-0.2,0.7-0.6,0.9-1.2
		l1.2-2.9C262.5,173.9,261.7,173.5,260.7,173.2z M262.2,141.5l-0.6,2.6l0.3,0.9l0.6,2.9l-1.2,2.9v2l1.7-0.3l0.9-3.2l0.3-3.8
		c0.4-1,0.7-2.1,0.9-3.2C264.2,142,263.2,141.7,262.2,141.5z M262.8,40.1l-0.3,2.9l2.3-0.6l0.6-2.3
		C265.4,40.1,262.8,40.1,262.8,40.1z M263.1,115.6l-0.3,1.5l2.3-0.3C264.5,116.3,263.8,115.9,263.1,115.6z M264.2,65.6v2l1.2-0.3
		C265.2,66.7,264.8,66.1,264.2,65.6z M265.1,70.9c-0.4,0.6-0.7,1.3-0.9,2c0,0.4,0.2,0.7,0.6,0.9l0.9-2
		C265.6,71.3,265.4,71.1,265.1,70.9z M264.8,77.5l-0.6,7.3c0.1,0.3,0.4,0.5,0.9,0.6l0.3-4.1C265.4,80.2,265.2,78.9,264.8,77.5z
		 M264.8,97.3c-0.3,0.2-0.5,0.5-0.6,0.9h0.9v-0.9H264.8z M264.2,126.1v2l1.2-0.3l0.3-1.7C265.7,126.1,264.2,126.1,264.2,126.1z
		 M269.4,185.7c-1.3,0.1-2.1,0.8-2.6,2c0.4,1.2,1.3,1.7,2.6,1.7c1.3-0.1,2.2-0.8,2.9-2C271.5,186.7,270.5,186.1,269.4,185.7z
		 M273.2,226.1c-1,0.4-2,1-2.9,1.7L270,229l0.9,0.6l1.5-0.3c1-0.3,2-0.8,2.9-1.5C275.1,226.8,274.4,226.2,273.2,226.1z M275.8,196.7
		c-0.5,1.1-0.9,2.3-1.2,3.5l0.9,0.6l3.8-0.9l-0.3-2C278.3,197.1,277.2,196.7,275.8,196.7z M275.3,204.5l0.3,0.9l0.3-0.9H275.3z
		 M280.8,190.3h2.6l-0.6,1.5l-0.6,0.6l-1.5-0.6v-1.5H280.8z M282.2,198.2c0,0.7,0.3,1.3,0.9,1.7
		C283.1,199.3,282.8,198.7,282.2,198.2z M284,202.8c0.4,1,1.1,1.8,2,2.6C285.6,204.5,284.9,203.6,284,202.8z M285.4,209.8l-0.3,4.6
		h1.5v-3.2C286.3,210.7,285.9,210.3,285.4,209.8z M285.1,219.4v3.2l2-0.3v-2.9H285.1z M285.7,232.2c0,0.8,0.3,1.5,0.9,2L285.7,232.2
		z M295.3,193.5v3.2h2.6v-0.3l0.3-2.6L295.3,193.5z M304.6,80.7v2h1.5C305.8,82.1,305.3,81.4,304.6,80.7z M308.1,226.1l-0.6,0.9
		l0.6,2l1.7-0.3l0.9-2.3L308.1,226.1z M307.8,92.9c0,0.3,0.2,0.5,0.6,0.6C308.3,93.3,308.1,93.1,307.8,92.9z M308.1,58.9l0.9,0.6
		C308.8,59.3,308.5,59.1,308.1,58.9z M311.3,60.7c0.6,0.6,1.4,1,2.3,1.2C313,61.3,312.3,60.9,311.3,60.7z M314.2,131l-0.6,3.2
		l2.9,0.6c0.7,1.4,1.4,3,2,4.9c0.3-1.5,0.5-3.2,0.6-5.2l-0.3-1.2l-0.3-2.3H314.2z M313.9,52c0.5,1.8,1.9,2.8,4.1,2.9
		C317.3,53.3,315.9,52.3,313.9,52z M317.4,153.1c-1,0.5-1.8,1.1-2.6,1.7c0,0.6,0.2,1.3,0.6,2C316.7,156,317.3,154.8,317.4,153.1z
		 M315.1,85.4c0.2,0.7,0.7,1.2,1.5,1.5C316.2,86.3,315.7,85.8,315.1,85.4z M317.7,47.3c-0.5,0.4-0.9,1-1.2,1.7h1.7
		c0.4-0.4,0.7-1,0.9-1.7H317.7z M317.4,143.8c-0.2,1.4-0.3,2.9-0.3,4.6v3.2h1.7v-7.8H317.4z M321.8,113.6l-1.5,2.9l-0.9,6.1l0.3,0.6
		v0.9c0,1.2,0.2,2.3,0.6,3.5c0.9-0.5,1.6-1.2,2.3-2v-8.7C322.5,115.8,322.2,114.7,321.8,113.6z M320.6,56l2,2l0.3,2.6l-0.3,0.9
		l-2,9.9c0,1.2,0.2,2.4,0.6,3.5c-0.5,0.9-0.9,1.9-1.2,2.9c0.1,0.9,0.6,1.7,1.5,2.3c0.5-0.8,0.9-1.6,1.2-2.6l2-18v-2.6
		c0-0.2-0.2-0.4-0.6-0.6L320.6,56z M328.4,75.8c-0.2,1.6-0.6,3.3-1.2,5.2l-0.9,5.2c0,1.6-0.6,3.2-1.7,4.6c-0.8,0-1.7-0.2-2.6-0.6
		l-0.6,1.7l-0.6,5.5l0.3,11l-1.2,0.3c0,1.6,0.8,2.8,2.3,3.5l4.1-20.6l3.2-2.9c-0.1-0.6-0.3-1.3-0.6-2l0.6-2.3
		c0.5-1.5,0.9-3.2,1.2-5.2C330.7,77.8,329.9,76.6,328.4,75.8z M320.3,26.1v2.3c0.4-0.4,0.7-1,0.9-1.7L320.3,26.1z M321.8,51.7
		c0,0.5,0.3,0.9,0.9,1.2C322.5,52.5,322.2,52.1,321.8,51.7z M323.5,148.5l-0.3,4.1c-0.1,0.7-0.2,1.5-0.3,2.3c0,0.4,0.2,0.7,0.6,0.9
		l0.6-3.8C324.1,150.8,323.9,149.6,323.5,148.5z M323.5,169.1l-0.6,3.2h1.7l0.3-3.2H323.5z M323.5,83.6c0,1.2,0.3,2.3,0.9,3.5
		C324.4,86,324.1,84.8,323.5,83.6z M323.8,138.9l-0.3,2.6l2-0.3l0.3-2.3H323.8z M327.3,116.5c0.7,1.6,1.2,3.4,1.5,5.5v5.2l-1.5,0.3
		c-0.4,0.8-0.7,1.6-0.9,2.6l3.2,0.3l1.7,0.6l2.3-1.7c-0.5-1.2-1.2-2.5-2-3.8c-0.3-1-0.5-2.1-0.6-3.5l1.5-1.5l2-0.3
		c-0.4-1.1-1.3-1.7-2.6-1.7C330.6,117.7,329.1,117.1,327.3,116.5z M328.2,157.5l0.9,0.6C328.8,157.8,328.5,157.6,328.2,157.5z
		 M331.1,205.7c-0.7,0.9-1.4,2-2,3.2l-0.3,3.2l0.9,4.4l-1.2,2l1.2,2l1.2,0.9c0.3-0.5,0.6-1.2,0.9-2l0.3-4.6L331.1,205.7z
		 M330.5,143.8c-0.7,1.7-1.2,3.7-1.5,5.8l-0.3,4.9l0.9-0.6c0.8-1.5,1.4-3.3,1.7-5.5l0.6-4.6L330.5,143.8L330.5,143.8z M336,44.7
		l0.6,4.1l-2,8.1l-4.4,10.8l-0.9,7l1.5-0.6l4.7-0.3c0.5-1.2,0.9-2.4,1.2-3.8l1.7-13.4c0.1-1.3,0.2-2.9,0.3-4.6v-5
		C338.3,45.8,337.4,45,336,44.7z M330.2,133.3l-0.6,4.1l0.3,0.9v1.7c0.8-0.1,1.7-0.4,2.6-0.9l1.5-1.5l-0.3-2.6
		C332.6,134.4,331.4,133.8,330.2,133.3z M330.5,196.4l-0.3,4.4c0.6,0.7,1.4,1.2,2.3,1.5l0.3-4.1
		C332.3,197.4,331.5,196.8,330.5,196.4z M334.5,87.7l-0.3,3.2l-2,2.3c-0.5,1-0.9,2-1.2,3.2c0.6,0.8,1.1,1.8,1.5,2.9l-1.5,11.9v2.6
		h1.5l1.5-7.6l1.2-3.2c0.5-0.9,0.9-1.9,1.2-3.2l1.5-7.6l0.3-4.1L334.5,87.7z M332.2,182.8c-0.4,1-0.6,2-0.6,3.2
		c0.9,0.4,1.8,0.6,2.9,0.6c0.3-0.9,0.5-1.8,0.6-2.9L332.2,182.8z M333.4,64.5c1.1,0.9,1.8,2.1,2,3.8c-0.2,1.4-0.9,2.6-2,3.8
		l-1.5,0.6v-3.8L333.4,64.5z M335.4,77.8l-1.5,0.6c0.2,0.9,0.6,1.7,1.2,2.6c0.7,0.9,1.6,1.8,2.6,2.6l7.8,3.2l6.7,1.2
		c-0.2,1-0.9,1.6-2,1.7l-4.9-0.6h-2.9l0.3,2v0.6h0.3l0.9-0.3l2.9-0.6h5.5l1.2-0.3l-0.6-3.2c-0.8-0.9-1.8-1.7-2.9-2.6l-12.5-4.1
		C337,79.8,336.3,78.8,335.4,77.8z M337.5,157.8l-2.6,1.2l-0.9,1.7l0.9,0.3l2.9-0.9L337.5,157.8z M335.4,211.5
		c0.3,0.7,0.9,1.3,1.7,1.7C337.2,212.3,336.6,211.7,335.4,211.5z M335.7,141.2c0.2,0.9,0.9,1.4,2,1.5
		C337.5,141.7,336.8,141.2,335.7,141.2z M337.2,179.6l0.3,2l2.9-0.3v-1.7H337.2z M337.5,74.9l0.9,0.9
		C338.2,75.4,337.9,75.1,337.5,74.9z M339.5,124c-0.3,0.7-0.5,1.5-0.6,2.3l0.3,0.9c0,1.2,0.6,1.8,1.7,2l0.3-0.9l-0.3-4.4L339.5,124
		L339.5,124z M339.2,115.6c0.1,1.6,0.9,2.6,2.3,3.2l0.6-2.9L339.2,115.6z M340.6,103.4c0.1,0.7,0.5,1.3,1.2,1.7l0.3-1.7H340.6z
		 M340.9,95.6c0.1,1.4,0.9,2.1,2.3,2.3C343.2,96.6,342.4,95.8,340.9,95.6z M347,185.7l-2.6,3.8l-2,4.1l-1.2,4.9l-0.3,3.5l2-0.3
		l3.2-9l2.9-3.2C349,188,348.3,186.7,347,185.7z M343.6,75.5l-0.9,4.1v1.7l2.3-0.9c0.6-0.9,1.1-1.9,1.5-3.2L343.6,75.5z M344.1,61.3
		l0.3,2.9l2-0.6C346.3,62.3,345.5,61.6,344.1,61.3z M347.6,36.9l-1.7,1.2c0,0.6,0.3,1.1,0.9,1.5C347.3,38.7,347.6,37.8,347.6,36.9z
		 M347.6,41.2c-0.4,1.4-0.6,2.9-0.6,4.4l1.2-1.5v-2.3C348.2,41.6,348,41.4,347.6,41.2z M349.4,164.7l-0.6,2.3h1.2l0.3-2L349.4,164.7
		z M349.4,181c0.1,0.5,0.5,0.9,1.2,1.2C350.4,181.7,350,181.3,349.4,181z M350.5,60.1l-0.6,1.2l1.2,0.6v-1.5L350.5,60.1z
		 M349.9,79.3c0.2,0.7,0.7,1.3,1.5,1.7C351.1,80.4,350.6,79.8,349.9,79.3z M351.4,52.6c-0.4,1.3-0.7,2.7-0.9,4.1l0.3,2.3l1.2-0.9
		v-2.6l1.5-0.6v-2.3H351.4z M350.8,64.5l0.6,0.9C351.3,65,351.1,64.7,350.8,64.5z"/>
	<path class="st0" d="M377.4,21.5l26.4,0.6c0.9,0.4,1.4,1.2,1.5,2.3l1.2,2.9c0.5,0.7,1.1,1.4,1.7,2l2,1.7h3.8
		c0.9,0.3,1.8,0.8,2.6,1.5L419,34c0.9,0.2,1.5,0.8,1.7,1.7l-0.3,3.5l-1.5,2.3c0,1.2-0.2,2.3-0.6,3.5c-0.7,0.2-1.4,0.7-2,1.5l1.7,2.3
		l2.3,1.5c-0.6,0.6-1.1,1.4-1.5,2.3c0,0.8,0.3,1.6,0.9,2.3c0.9,0.2,1.9,0.6,2.9,1.2l2,1.7l5.8,1.7l4.7,3.2l1.5,2.3l1.2,2.6l1.2,4.9
		l-1.5-0.6l-2.9-0.6c0.4,0.7,1.1,1.3,2,1.7c1,0.2,1.8,0.7,2.6,1.5c0.7,0.5,1.5,1,2.3,1.5c0.7,0.6,1.2,1.4,1.5,2.3
		c-0.9,0.4-1.8,0.6-2.9,0.6h-1.5l1.2,1.2h2.6v1.2c0.2,0.8,0.6,1.7,1.2,2.6l2.9,1.2l0.6,2l-0.3,0.9c-0.3,0-0.5,0.2-0.6,0.6l0.9,1.2
		l2,1.7l1.7,2.3l0.9,2.9l-2.9,0.6c-0.4,0.8-0.7,1.6-0.9,2.6c0.6,0.6,1.4,1.2,2.3,1.7l2.6,0.9l2.3,1.7c0.5,0.6,1,1.4,1.5,2.3l0.9,1.5
		l-3.8-0.6l-0.3,0.9c0.8,0.5,1.6,0.9,2.6,1.2l2.3,1.5c0.2,1,0.4,2.2,0.6,3.5c0.3,0.7,0.8,1.4,1.5,2c0,0.8-0.3,1.6-0.9,2.3
		c-0.6,0.2-1.1,0.7-1.5,1.5l0.3,3.5c0,1,0.3,1.9,0.9,2.9l2.3,1.7l1.2,0.6c0,0.4-0.2,0.9-0.6,1.5l-0.9,0.6l0.3,2l2,1.7
		c0.5,0.9,0.9,1.8,1.2,2.9l0.9,2.6c0.6,0.6,1.3,1.3,2,2l1.5,2.3c-0.2,0.4-0.6,0.8-1.2,1.2c-0.8-0.2-1.4-0.8-1.7-1.7l-1.7-2
		c-0.6-0.5-1.4-1-2.3-1.5c-0.3,0.5-0.5,1.1-0.6,1.7l1.5,2.3l2.6,1.5c0.5,0.7,1.1,1.4,1.7,2l2.3,1.5l0.9,3.2c0.1,0.9,0.4,1.8,0.9,2.9
		c0.8,0.5,1.6,0.9,2.6,1.2l2-5.5l0.3-2.3v-0.9h-0.3c-0.6-0.5-1.2-1.2-1.7-2l0.3-3.8V127l0.3-3.5v-11.6l0.6-10.8l1.7-2.3
		c-0.1-0.9-0.4-1.8-0.9-2.6c-0.5-0.9-0.9-1.8-1.2-2.9V23.8l7-0.9l41.8-0.3c0.4,1,0.7,2.1,0.9,3.2V145l-0.3,3.2l-2.3-1.7l-1.2-0.6
		l-0.6,1.2c0,1,0.3,1.9,0.9,2.9l2.3-0.9c0.6,0.9,1,1.8,1.2,2.9v20.6l-5.5-0.9l-0.6-3.2l-0.9-0.3l-2.3,0.3l-0.9,3.2
		c0.4,0.6,1,1.2,1.7,1.7l2.3,0.3l0.9-0.3h2.3v1.7c0.3,0.5,0.8,0.8,1.5,0.9c0.4-0.4,0.9-0.7,1.5-0.9v40.4c0,1-0.3,1.9-0.9,2.9h-2.3
		c0-2.2-0.2-3.8-0.6-4.9l-1.2-2.9c0-0.2-0.2-0.4-0.6-0.6l-1.7,0.6c-0.6,0.5-1.2,1.2-1.7,2l1.5,2.3l0.9,3.2l-0.6,3.2
		c-0.9,0.5-1.8,0.9-2.9,1.2c-0.7-0.6-1.1-1.5-1.2-2.6c0-1.2-0.2-2.4-0.6-3.5c-0.6-0.4-1.4-0.8-2.3-1.2c-0.5,0.6-1,1.4-1.5,2.3
		l-0.3,2l1.2,0.3l0.6,2l-1.2,0.3c-0.8-0.4-1.5-1-2-1.7c-0.5-0.8-1.2-1.5-2-2c-0.1-0.9-0.4-1.9-0.9-2.9l-2.6-0.6l-1.2,2.6l-0.6,3.2
		l1.2,2.6l3.2,4.6l1.2,2.6l2.6,0.9c0.8,0.4,1.5,1.1,2,2l1.5,2.3l2.9,0.9c0.9-0.3,1.5-0.9,2-1.7l-1.5-6.1l-0.3-2.3
		c0.3-0.1,0.6-0.3,0.9-0.6l9-5.2v20.6l-38.4,0.3c-0.6-0.7-1.2-1.5-1.7-2.3l-0.9-2.9l-0.6-9.6c0.2-0.3,0.5-0.5,0.9-0.6l10.2-1.2
		l-0.6-3.2l-4.7-3.2c-0.6-0.1-1.4-0.2-2.3-0.3l-0.6,0.3l-6.4-1.5l-0.9-1.7c0.1-0.4,0.3-0.7,0.6-0.9l2.3-0.6l0.9,0.3
		c0.9,0.2,1.7,0.6,2.6,1.2l2.9,0.9l0.9-2.9c-0.6-0.4-1.4-0.8-2.3-1.2l-6.4-5.2c-1,0-2.1,0.2-3.2,0.6c-0.4,0.8-1.1,1.5-2,2l-5.2,1.5
		l-0.9-0.3c0.3-0.8,0.5-1.6,0.6-2.6l-1.2-0.6c0.1-0.6,0.3-1.2,0.6-1.7l0.6-1.2l-1.2-0.6c0.5-0.8,1.2-1.5,2-2l2.3,0.3h0.9v-0.3
		c0.6-0.6,1.4-1.2,2.3-1.7c0.6-0.6,1-1.4,1.2-2.3c-0.4-0.8-1-1.6-1.7-2.3l-1.7-0.6c-0.2,0-0.4,0.2-0.6,0.6l-0.6,3.2
		c-0.7,0.6-1.6,1.1-2.6,1.5c-1-0.1-2-0.4-3.2-0.9L464,199c-0.9-0.4-1.6-1-2.3-1.7l-18-39.8l-1.5-2.3l-4.7-10.8l-1.5-2.3l-10.8-23.8
		c-0.6-0.5-1.4-0.9-2.3-1.2l-1.2,37.5l-2,5.5c-0.5,0.7-1.2,1.4-2,2c0.5,0.5,1.2,0.8,2,0.9l1.5-0.9l0.9,4.6v4.1l0.3,1.7l-0.3,0.6
		l0.3,4.4c-0.4,0.8-1.1,1.5-2,2c0.2,0.9,0.6,1.7,1.2,2.6l0.6,3.2l0.3,15.1l-2.9,1.2c-0.3,0.7-0.5,1.5-0.6,2.3l3.2,0.6l0.3,0.9
		l-0.3,2.6v11.6c0,1.1-0.6,1.7-1.7,2c-0.8,0.2-1.6,0.7-2.3,1.5c0,1.1,0.6,1.8,1.7,2l2.3-1.5l1.5,2.3l0.9,3.2v3.8l-0.6,3.5
		c-0.8,0.5-1.6,0.9-2.6,1.2c-0.7-0.3-1.4-0.7-2-1.2c0.6-0.6,1.1-1.3,1.5-2c-0.4-0.8-1.1-1.4-2-1.7c-0.5,0.6-0.8,1.4-0.9,2.3
		c-1,0.4-2.1,0.7-3.2,0.9l-1.5-1.7l-1.5-2.3c-0.8,0-1.6,0.3-2.3,0.9c-0.6,0.6-1.4,1.2-2.3,1.7l-3.5-0.3c-0.7,0.4-1.3,1.1-1.7,2
		l-1.2,1.2l-0.9-0.9l-0.9-2.9l-0.6,1.2c-0.8,0.5-1.6,0.8-2.6,0.9c-1,0-2,0.2-3.2,0.6c-1,0.4-2.1,0.7-3.2,0.9l-2.6-1.2l-2-1.7l-1.7-2
		l-0.6-0.9l-1.7,0.6l-0.9,2.9l-2.9,0.9l-2,0.3v-59c0-1.2,0.2-2.3,0.6-3.5l7-0.6c0.4,1,0.7,2.1,0.9,3.2l-0.3,2.3l0.9,0.3l0.9-2.3
		c0.1-0.7,0.4-1.3,0.9-1.7l2.6-0.3l0.9,0.3l2.3,0.3l0.9-0.3l2.3-1.5l2.6-0.6c0.9,0.2,1.9,0.6,2.9,1.2l5.2,2.3V173
		c1.1-0.4,2.1-0.7,3.2-0.9l2.9,0.9c0.7-0.3,1.3-0.8,1.7-1.5c-0.1-0.7-0.5-1.3-1.2-1.7l-2.9-1.2l-3.5,0.3L403,170l-6.1-1.7l-9,2.3
		l-3.8-0.3l-6.1-1.5c-1.1,0.1-1.7,0.7-2,1.7c-0.5-0.7-0.9-1.5-1.2-2.3v-15.4l0.3-3.8c0.6-0.7,1.1-1.5,1.5-2.3c-1-0.2-1.6-0.9-1.7-2
		v-34.6l0.3-3.5c0.5,0.8,0.9,1.8,1.2,2.9l1.2-1.7l0.9-7l-1.2-20.6l1.2,0.6c0.6,0.5,1.3,0.9,2,1.2l0.6-2l-0.3-0.9l-2.3-0.9l-1.2-2.6
		l-0.9,1.2l-0.6,10.8l-0.9,1.7V41.5l0.3-3.5v-4l0.3-2.6v11.3l0.9,7V61l0.3,1.7c0.4-0.2,0.7-0.5,0.9-0.9l1.5-2.6l1.7-2l2.3-1.5
		l2.6-0.3l0.3-3.2l-0.3-3.8c0.7-0.4,1.5-0.6,2.3-0.6l0.6-1.7l-0.3-0.9l-2-1.7l-3.8-11.6l-1.2-2.6l-1.7-2c-0.6-0.8-1.1-1.6-1.5-2.6
		L377.4,21.5z M375.1,91.8l0.3,8.7l-0.3,0.9l-0.3-8.7L375.1,91.8z M376.5,68.8l-0.6,0.9c0.2,0.7,0.5,1.5,0.9,2.3
		c0.3-0.8,0.5-1.6,0.6-2.6L376.5,68.8z M376.2,111.8l-0.3,2.9h1.2C377,113.8,376.7,112.8,376.2,111.8z M376.2,117.7v2.9l0.6-0.3
		C376.8,119.3,376.6,118.5,376.2,117.7z M376.5,131l-0.3,10.5l3.5-4.6c0-0.6-0.2-1.2-0.6-1.7C378.6,133.8,377.7,132.5,376.5,131z
		 M376.2,156v2.6h1.2V156H376.2z M376.2,177.2v1.5l1.7-0.3C377.6,178,377,177.6,376.2,177.2z M378,38.3l0.3,2l-0.6,0.6L378,38.3z
		 M380,73.5l-0.6,0.9c0.1,0.4,0.4,0.8,0.9,1.2v-2L380,73.5L380,73.5z M379.7,85.4l-0.3,2c0.2,0.3,0.5,0.5,0.9,0.6l0.6-1.7
		L379.7,85.4z M381.2,128.1l-0.3,2h2l0.3-2H381.2z M381.5,223.7l-0.6,2.6h1.5l0.3-2.6H381.5z M381.5,218.5v1.7l0.6-1.2L381.5,218.5z
		 M382.6,67.4l0.9,7l-0.3,3.8c0.7,0.3,1.5,0.5,2.3,0.6l0.3-7.3l-0.9-2.9C384.3,68.1,383.6,67.7,382.6,67.4z M382.6,101.4v1.5
		l1.7-0.6L382.6,101.4z M383.2,107.2l-0.3,0.9l0.3,4.9h1.5v-3.8C384.4,108.4,383.9,107.8,383.2,107.2z M384.1,86.6
		c-0.4,0.8-0.7,1.8-0.9,2.9l1.5-0.3c0.4-0.8,0.7-1.6,0.9-2.6H384.1z M383.2,95.6l0.9,2.9l1.7-0.6C385.5,96.6,384.7,95.9,383.2,95.6z
		 M383.2,144.7c0.2,0.5,0.6,0.8,1.2,0.9C384.1,145.1,383.8,144.8,383.2,144.7z M383.2,183.6v1.7c0.6-0.5,1.1-1.1,1.5-1.7H383.2z
		 M390.2,76.7c-0.6,1.1-1.1,2.5-1.5,4.1l-0.9,1.5l-1.5,0.3l-0.6-0.3h-2c0.5,0.6,1.2,1.1,2,1.5c1.1,0.8,1.8,1.9,2,3.5v2.3
		c0.8,0,1.5-0.2,2.3-0.6l1.7-11.6L390.2,76.7z M384.4,164.7c0,1,0.2,2,0.6,3.2l0.9,0.3l2-0.3c0-0.8-0.3-1.5-0.9-2.3L384.4,164.7z
		 M384.7,239.7l2,0.3l-2,1.2V239.7z M385.3,23.8l1.2,4.4l1.7,3.5l2.3,3.2l1.2,1.2l2-0.6c0.2-0.7,0.3-1.5,0.3-2.3l-0.3-0.6l-0.3-0.9
		l-4.7-6.1C387.7,24.8,386.6,24.3,385.3,23.8z M388.7,136l-0.6,2l0.3,0.6l0.3,0.9h1.5c0.3-1.1,0.5-2.2,0.6-3.5H388.7z M388.5,95
		v11.6l1.7,0.6l0.9-0.3l0.3-3.8l-0.9-6.7C390,95.8,389.3,95.3,388.5,95z M389,115.6l-0.3,1.2l0.3,3.2h1.5l0.3-4.1L389,115.6z
		 M389.3,153.4l-0.6,4.4c0.1,1,0.7,1.7,1.7,2c0.3-1.2,0.5-2.5,0.6-3.8C391,154.8,390.4,153.9,389.3,153.4z M389.3,67.7l0.3,3.5h1.5
		C390.8,69.9,390.2,68.8,389.3,67.7z M390.2,179.6l0.6,9.9c0.5,0,1.1-0.2,1.7-0.6l0.6-4.6l-0.3-1.2
		C392.6,181.4,391.7,180.3,390.2,179.6z M390.2,205.4c0.1,1.3,0.8,2.4,2,3.2C392.1,207.3,391.5,206.2,390.2,205.4z M390.5,219.4v4.4
		c0.3,0.6,0.8,1.2,1.5,1.7l0.3-4.1C392.2,220.3,391.7,219.6,390.5,219.4z M393.1,140.9c-0.9,0.4-1.7,1.1-2.3,2h1.2
		C392.7,142.4,393.1,141.7,393.1,140.9z M391.9,49.6c0.5,0.5,1.1,0.8,1.7,0.9L391.9,49.6z M396,57.5l-1.5,0.9l0.6,1.7
		C395.6,59.3,395.9,58.5,396,57.5z M394.6,239.1h3.2l-0.6,1.5l-2,0.6L394.6,239.1z M396.6,187.7l0.3,2.3l2-0.3l0.3-2H396.6z
		 M403.9,190.3c-0.7,0.9-1.7,1.9-2.9,2.9c-0.9,0.7-1.8,1.6-2.6,2.6l-1.7,7.8l0.9,0.3l1.5-4.1c0.6-1.1,1.3-2.2,2-3.2l2.3-2.9
		c0.5-0.8,0.9-1.6,1.2-2.6L403.9,190.3z M396.9,77.5c0,1,0.6,1.6,1.7,1.7C398.6,78.3,398,77.7,396.9,77.5z M397.8,207.7l0.3,2.3
		l0.6,0.3l1.5-0.6C399.8,208.7,399,208,397.8,207.7z M398,213.3c0.1,1,0.3,2.1,0.6,3.2l2.3-0.6l0.3-2.3L398,213.3z M398.3,118.5
		l0.6,0.9C398.9,119,398.7,118.7,398.3,118.5z M398.9,159.2l0.3,1.5l0.3-1.2L398.9,159.2z M400.1,220.5c-0.4,0.6-0.7,1.4-0.9,2.3
		l0.3,2.6c0.6,1.1,1.4,2.3,2.3,3.5l0.6-2.3l-0.3-2.3C401.9,223,401.2,221.7,400.1,220.5z M399.5,100.8c0.2,0.8,0.7,1.6,1.5,2.3
		C400.9,102.2,400.4,101.4,399.5,100.8z M401.2,182.5c-0.4,0.2-0.7,0.6-0.9,1.2c0.7,0.1,1.5,0.2,2.3,0.3l0.6-1.5H401.2z
		 M401.8,177.8l-0.9,0.9h1.7C402.6,178.2,402.3,178,401.8,177.8z M402.1,71.2l-0.3,2h2C403.6,72.3,403,71.6,402.1,71.2z M403.3,32.2
		l-0.9,1.7l0.9,0.6c1,0.4,2.1,0.7,3.2,0.9c0.3-0.1,0.5-0.3,0.6-0.6l-0.6-1.5v-0.6L403.3,32.2z M402.4,52.6c0.1,0.5,0.4,0.8,0.9,0.9
		L402.4,52.6z M403,238.3c1.8,0.1,2.9,1.1,3.2,2.9h-3.5L403,238.3z M403.6,81.3l0.9,3.5l1.5-0.6l0.3-2.3L403.6,81.3z M403.6,115.6
		c0.2,0.8,0.7,1.5,1.5,2C404.8,116.8,404.3,116.1,403.6,115.6z M405,135.4l-0.6,2.3h2C406.3,136.8,405.8,136,405,135.4z M405.6,93.8
		c-0.4,1.7-0.6,3.6-0.6,5.8l0.3,3.8l1.2,0.3c0.5-0.5,0.8-1,0.9-1.5l-0.6-8.1L405.6,93.8z M405,130.7c0.1,0.7,0.5,1.3,1.2,1.7
		C406.1,131.7,405.7,131.2,405,130.7z M407.1,52.6l-0.6,1.7L408,54l0.9-1.5L407.1,52.6L407.1,52.6z M407.3,106.6
		c-0.2,1-0.4,2.1-0.6,3.5v1.2l1.7-0.9l1.2-2.9L407.3,106.6z M406.8,141.5v2.6h1.5C408.1,143.1,407.6,142.2,406.8,141.5z
		 M409.4,177.5l-0.6,1.5c0.2,0.3,0.5,0.5,0.9,0.6l3.8,0.3l0.6-2L409.4,177.5z M409.1,72.6v3.5l1.7-0.6l0.3-1.5l-0.3-1.2L409.1,72.6z
		 M409.1,158.9c0,1.2,0.3,2.3,0.9,3.5C410,161.2,409.7,160.1,409.1,158.9z M412.6,186.5c-0.7,1.1-1.6,2.1-2.6,3.2l0.6,3.8h0.9
		c1.3-0.5,2-1.5,2.3-2.9l-0.3-4.1H412.6z M410.5,215.6c0.1,0.5,0.4,1,0.9,1.5C411.4,216.4,411.1,215.9,410.5,215.6z M412.9,135.4
		l-0.6,1.5l2,2c0.3,1.3,1.1,2.4,2.3,3.2l0.6-2.3l-0.6-2.3C415.8,136.3,414.5,135.6,412.9,135.4z M412.9,54.9l0.3,1.2l1.2-0.6
		L412.9,54.9z M414.6,148.2c0.8,0.8,1.6,1.3,2.6,1.5C416.6,148.7,415.8,148.2,414.6,148.2z M416.6,175.5l-1.5,0.3l-0.3,1.7h0.9
		l1.5-0.3l0.3-1.7H416.6z M415.5,182.2c0.2,0.7,0.7,1.3,1.5,1.7C416.7,183.2,416.3,182.6,415.5,182.2z M415.8,154.9l0.3,1.5l1.7-0.3
		c0-0.9-0.6-1.5-1.7-1.7L415.8,154.9z M416.1,169.1l-0.3,1.5l0.3,0.6l1.7-0.3l0.3-1.7h-2V169.1z M417.8,113.6l-0.3,0.9h0.6l0.3-0.6
		L417.8,113.6z M419,64.5c0.3,0.6,0.8,1.1,1.5,1.5C420.1,65.3,419.6,64.9,419,64.5z M420.7,72.6c0.2,0.9,0.5,1.7,0.9,2.6
		C421.6,74.3,421.3,73.4,420.7,72.6z M422.7,41.2c1.5,0.1,2.4,1,2.6,2.6C424.2,43.4,423.3,42.6,422.7,41.2z M424.2,77.3l0.6,4.6h9
		l-4.7-2.6C427.8,78.5,426.2,77.8,424.2,77.3z M425.9,59.8c0.4,1,0.9,2,1.5,3.2c0.9,0.4,1.8,0.7,2.9,0.9c-0.1-1.1-0.5-2.1-1.2-3.2
		L425.9,59.8z M427.4,49.4l2,0.9l-2,0.3V49.4z M429.7,67.1l-0.3,2.9c1,0.2,2.2,0.4,3.5,0.6C432.5,68.9,431.4,67.7,429.7,67.1z
		 M432.6,75.5l-1.7,0.9l1.5,0.3h1.5C433.7,76.1,433.3,75.8,432.6,75.5z M431.2,86.6c0.6,0.5,1.4,0.9,2.3,1.2
		C432.9,87.1,432.1,86.7,431.2,86.6z M435.5,92.4c-0.9,0.2-1.8,0.6-2.9,1.2l1.5,1.7l2.3-1.5C436.4,93.2,436.1,92.8,435.5,92.4z
		 M434.1,98.5l0.3,3.8l1.2,0.3c1.4,0.1,2.8,0.6,4.1,1.5l1.2,2.3v-3.5l5.5-0.6l-0.3-2.6c-1.3-0.4-2.6-0.6-4.1-0.6
		c-1.3,0.4-2.6,0.7-4.1,0.9C436.8,99.4,435.5,98.9,434.1,98.5z M437,127.2c0.3,1.2,0.9,2.2,1.7,3.2l-0.6-2.9L437,127.2z M441.1,136
		l-1.2,0.6l1.7,2.6l3.2,2.6c0.4-0.3,0.6-0.7,0.6-1.2l-0.9-2.6C443.5,137.2,442.4,136.5,441.1,136z M443.7,111l-0.3,2.3l0.3,0.9
		l3.8,4.1c0.7,0.5,1.5,0.9,2.3,1.2l0.3-2l-3.2-2.3l-1.2-2.3C445.2,112,444.5,111.5,443.7,111z M444.3,144.7c0.6,1.3,1.4,2.5,2.3,3.8
		c0.7,1.1,1.6,2.3,2.6,3.5l2.6,3.5c1,1.1,2.1,1.6,3.5,1.7l0.3-2.9l-0.9-2c-0.6-1.3-1.4-2.6-2.3-3.8c-1-0.9-2.2-1.8-3.5-2.6
		C447.6,145.4,446,145,444.3,144.7z M450.6,120.6c0.2,1.2,0.5,2.3,0.9,3.5l1.2-0.3C452.6,122.4,452,121.3,450.6,120.6z M454.1,126.1
		c0.1,1.4,0.8,2.4,2,3.2v-2.6L454.1,126.1z M454.7,142.6l0.6,3.5c0.4,0.8,0.9,1.6,1.5,2.3l1.7,2c0.7,0.4,1.5,0.7,2.3,0.9
		c0-1.1-0.2-2.1-0.6-3.2l-1.2-2.6l-1.7-1.7L454.7,142.6z M457.3,133.9c0.5,0.7,1.2,1.2,2,1.5C458.9,134.7,458.2,134.2,457.3,133.9z
		 M457.6,180.1v1.5h1.7C458.9,181,458.3,180.5,457.6,180.1z M458.5,164.7c0,1.9,1.1,3.1,3.2,3.5v-2.6
		C460.7,165.2,459.6,164.9,458.5,164.7z M462.6,170c0.1,0.8,0.3,1.6,0.6,2.3l2.3-0.3C465,170.8,464,170.1,462.6,170z M473.3,168.5
		l-1.7,0.9c0.1,0.6,0.2,1.4,0.3,2.3l0.3,8.7l-0.3,0.9c-0.3,1.2-1.2,2-2.6,2.3c-1,0.7-1.6,1.7-1.7,3.2c-0.5,1.1-1.2,2.1-2,3.2
		l-0.9,4.1v1.5l1.7,0.3l0.6-0.6l0.9-4.4l5.5,1.5l0.9-12.2v-4.1l0.6-0.6l0.6-1.2l-0.3-2.9C474.7,170.4,474.1,169.4,473.3,168.5z
		 M470.4,185.1l2,1.5l-2.6,0.6C469.9,186.4,470.1,185.8,470.4,185.1z M471.3,160.1L471,161l0.9,3.5c0.5,1.1,1.5,1.6,2.9,1.7l0.3-1.2
		l-0.3-3.2C474,160.7,472.8,160.1,471.3,160.1z M478,137.4l-0.3,1.5h0.9C478.5,138.3,478.3,137.8,478,137.4z M487.6,166.5
		c-0.7,0.8-1.6,1.6-2.6,2.3l-2.6,2.3c-1.3,0.4-2.6,0.7-4.1,0.9c0.1,1.2,0.8,1.9,2,2.3l3.5-1.5c0.9-0.5,1.8-1.2,2.6-2l2.9-2.3l0.3-2
		H487.6z M480,157.8c0.5,0.7,1.2,1.4,2,2l2.9,0.6c-0.3-0.9-0.9-1.5-1.7-2L480,157.8z M488.1,39.2l-1.2,3.5c0.1,1,0.4,2.1,0.9,3.2
		c-0.6,0.8-1.4,1.6-2.3,2.3h-2.9c-0.4,0-0.7,0.2-0.9,0.6h6.7v-2.3l0.6-6.7C488.9,39.5,488.6,39.3,488.1,39.2z M487.8,219.9l0.3,3.2
		l-2-0.3l-0.3-2.3L487.8,219.9z M490.2,77l-0.6,3.2c-0.4,0.7-1,1.4-1.7,2c-0.8,0.4-1.4,1.1-1.7,2c0.1,0.8,0.5,1.6,1.2,2.3l3.2-0.3
		l0.6-3.2v-4.4l-0.3-0.9L490.2,77z M488.1,51.7l-0.9,2.6l0.3,2.6c-0.4,1.6-0.6,3.6-0.6,5.8c0.2,1.5,0.6,3.2,1.2,5.2
		c0.3,1.5,0.8,3.1,1.5,4.9l1.2-0.3V63l-0.3-1.2l-0.6-5.8C489.9,54.4,489.3,53,488.1,51.7z M487,133.1l1.2,0.6l0.6-0.6H487z
		 M489.3,172.9c0.2,0.7,0.7,1.3,1.5,1.7C490.6,173.8,490.1,173.3,489.3,172.9z M491.9,89.5l-0.3,9l0.6,4.1c0.4,0.7,1,1.2,1.7,1.5
		l0.9-3.8l-0.3-4.4c-0.1-1.3-0.4-2.5-0.9-3.8C493.3,91.1,492.7,90.2,491.9,89.5z M491.6,139.7l2.6,24.4c0.7,0.5,1.5,0.8,2.3,0.9
		l-2.3-24.4C493.5,140.2,492.6,139.9,491.6,139.7z M493.4,106l-1.5,0.6l0.9,16l0.9,5.5c0.8,0.2,1.7,0.4,2.9,0.6l1.7,4.4l3.5,21.8
		c0.1,1.6,0.5,3.2,1.2,4.9h1.7l1.2,9.9c0.3,1.6,0.5,3.5,0.6,5.5c0.1,0.8,0.4,1.6,0.9,2.3c0.6-0.3,1.1-0.8,1.5-1.5l0.6-2.6L507,154
		c-1,0.3-1.9,0.9-2.9,1.7c-0.6-1.5-1-3.3-1.2-5.2l0.6-2.9l1.7,1.2c0.3,0.6,0.7,1.3,1.2,2l0.3-2.6v-2l-2.6,0.3l-0.9-0.3
		c-1.4-0.9-2.1-2.2-2.3-4.1l-0.3-9.6l-0.3-2.3l-2.3-3.8l-1.7-4.6l-2-15.4L493.4,106z M492.2,195c0.1,0.6,0.4,1.1,0.9,1.5
		C493,195.8,492.7,195.3,492.2,195z M493.9,168.8l-0.6,0.9h0.9v-0.9H493.9z M493.7,216.5c0.2,0.8,0.6,1.6,1.2,2.3l1.2-0.6l0.3-0.6
		l-0.3-1.2h-2.4V216.5z M494.8,59.5l0.3,5.2c0.1,1.3,0.4,2.5,0.9,3.8l0.3-5.2C496.1,62,495.6,60.7,494.8,59.5z M495.1,75.5l0.3,2.3
		c0.7-0.1,1.4-0.3,2-0.6l0.3-1.5L495.1,75.5z M498,40.1c-1,0.7-1.8,1.7-2.6,2.9v11c1,0.4,1.9,1.1,2.9,2l1.5,9.6L501,70
		c0.5,1.1,1.2,2.2,2,3.2l-0.6-10.5l-2-9c-0.5-1.2-1.3-2.2-2.3-3.2V45c0.2-1.7,1.2-2.6,2.9-2.6C500.5,41.1,499.5,40.3,498,40.1z
		 M495.7,132.8l0.3,3.5l0.3-2.6C496.2,133.2,496,133,495.7,132.8z M501.8,86c-1.4,0.4-2.6,1.2-3.8,2.3c0.9,1.4,1.5,3.1,1.7,5.2
		l-0.6,6.4v1.7l2.6-2.3c1.6,0,2.6-0.7,2.9-2l-1.5-0.3l-0.6,0.3h-0.6v-3.5c0.6-1.5,1.4-3,2.3-4.6C504.1,87.8,503.2,86.7,501.8,86z
		 M499.5,169.7c-0.4,1.6-0.7,3.4-0.9,5.5l-0.3,4.6l0.9,0.3l0.6,2l-0.6,3.5c0,1.4,0.2,2.9,0.6,4.4l3.8,15.4c0.4,1.3,1.3,1.9,2.6,2
		v-4.9l-3.2-17.1c-0.1-1.7-0.5-3.4-1.2-5.2c-0.6-1.4-1.2-3-1.7-4.6c1.2-0.8,2.1-1.8,2.9-3.2C502.2,170.9,501.1,170,499.5,169.7z
		 M498.9,33.7V36l0.6-1.7C499.5,34,499.3,33.8,498.9,33.7z M500.3,209.2l0.3,3.5c0.5,0.5,1.2,0.8,2,0.9l0.3-3.5L500.3,209.2z
		 M500.9,76.4v5.5h0.3l0.6,1.7l2-1.2l1.2-2.3c0-0.5-0.2-1.1-0.6-1.7C503.5,77.6,502.3,76.9,500.9,76.4z M502.4,104.3l0.3,16l0.9,3.5
		l1.2,2.9l0.6,3.8v1.5l2.3-0.3l0.3-3.8l-1.2-11.3l-2.9-9.9C503.5,105.8,503,105.1,502.4,104.3z M522.4,128.4v2.6l-1.5,0.3l-8.7,3.5
		l-3.5,0.9c-0.7,0.4-1.3,1.1-1.7,2l-1.5,2c0.1,1,0.6,1.8,1.5,2.6l0.3-3.2l9.6-2.6l2.9-1.2c0.7-0.6,1.4-1.3,2-2
		c0.6-0.8,1.1-1.6,1.5-2.6l0.3-2.3H522.4z M507.6,181.3c0,1.8-0.3,3.7-0.9,5.8l-0.9,0.6l1.2,4.1c0.6,1.5,1.1,3.2,1.5,5.2
		c0.3,1.6,0.8,3.3,1.5,5.2h1.5l-2.3-16c-0.1-1.4-0.2-3-0.3-4.6L507.6,181.3z M507.3,211.2l-0.9,1.5h1.5
		C507.9,212.2,507.7,211.7,507.3,211.2z M507.3,74.3l0.3,1.2c0.6-0.3,1.1-0.7,1.5-1.2H507.3z M508.2,48.5l0.6,1.2l2.6-0.3
		C510.4,48.9,509.3,48.6,508.2,48.5z M509.4,204.8l0.6,4.6c0.4,1,1.2,1.8,2.3,2.3l-0.6-4.6C511.5,205.9,510.8,205.1,509.4,204.8z
		 M510.8,87.7c-0.5,0.9-0.9,2-1.2,3.2c0.3,1,0.9,1.8,1.7,2.6c0.4-1,0.6-1.9,0.6-2.9C511.9,89.6,511.5,88.6,510.8,87.7z M510.5,99.3
		l-0.3,0.9l0.3,2.3h2l0.3-3.2C512.8,99.3,510.5,99.3,510.5,99.3z M512.8,113.3c-0.4,0.3-0.8,0.8-1.2,1.5
		C512.4,114.5,512.7,114,512.8,113.3z M512.8,120.3l-0.6,3.2l1.2-0.3c0.3-0.1,0.5-0.3,0.6-0.6l-0.3-1.7L512.8,120.3z M517.5,54.6
		l-4.9,0.3c0.2,0.4,0.6,0.7,1.2,0.9l3.5,0.3l1.2-0.3C518.3,55.2,518,54.8,517.5,54.6z M514.3,127.2c-0.5,0.8-0.8,1.8-0.9,2.9h1.5
		c0.4-0.6,0.7-1.3,0.9-2L514.3,127.2z M513.7,138.9l0.3,4.4c0.8,0.6,1.6,0.9,2.6,0.9l0.6-2.6l-0.6-0.9
		C515.8,139.8,514.9,139.3,513.7,138.9z M515.5,156.6l-0.6,2.9l1.7,0.6l0.6-3.5H515.5z M517.8,194.1l-1.2,0.6l0.3,4.9
		c0.2,1.6,1,3.1,2.3,4.4c0.5-1,0.9-2,1.2-3.2l-0.3-2.3C520,196.7,519.2,195.3,517.8,194.1z M518.1,176.1l-0.6,4.1v4.4
		c0.1,0.4,0.3,0.7,0.6,0.9c0.4-1.3,0.7-2.9,0.9-4.6l-0.3-4.1L518.1,176.1z M517.8,118.2c0.1,0.7,0.3,1.4,0.6,2v-1.7L517.8,118.2z
		 M518.7,127.8c0.4,0.4,0.9,0.7,1.5,0.9C519.8,128.2,519.3,127.9,518.7,127.8z M520.4,226.3l-0.3,3.8l0.3,0.9l3.2,2.3l-0.3-4.9
		C522.8,227.2,521.8,226.5,520.4,226.3z M521,138.6l-0.6,2.3l0.9-0.6v-1.5L521,138.6z M521.3,159.2l-0.6,2.9l1.2,7.3h1.7
		c0-1.5-0.4-3.1-1.2-4.9L521.3,159.2z M521,155.7l0.6,0.9l0.6-1.2l-0.9-0.3L521,155.7z M522.1,235.9l0.3,2.9l1.2-0.3l0.3-2.6
		L522.1,235.9L522.1,235.9z"/>
</g>
</svg>
