<?xml version="1.0" encoding="utf-8"?>
<!-- Generator: Adobe Illustrator 26.2.1, SVG Export Plug-In . SVG Version: 6.00 Build 0)  -->
<svg version="1.1" xmlns="http://www.w3.org/2000/svg" xmlns:xlink="http://www.w3.org/1999/xlink" x="0px" y="0px"
	 viewBox="0 0 362 422.9" style="enable-background:new 0 0 362 422.9;" xml:space="preserve">
<style type="text/css">
	.st0{fill:none;}
	.st1{fill:#392652;}
	.st2{fill:#8FAE7A;}
	.st3{fill:#7A9CA2;}
	.st4{fill:#DCE9C7;}
	.st5{fill:#A6D1B9;}
	.st6{fill:#DE9F38;}
	.st7{fill:#DBE4C5;}
	.st8{fill:#DDE7C6;}
	.st9{fill:#D3933B;}
	.st10{fill:#96A473;}
	.st11{fill:#75939C;}
	.st12{fill:#BED072;}
	.st13{fill:#C0A555;}
	.st14{fill:#92868C;}
	.st15{fill:#65648A;}
	.st16{fill:#BFD573;}
</style>
<g id="Layer_1">
	<path class="st0" d="M213.5,319.1c1.3-1.1,2.1-1.8,3-2.5c-0.9-2.5-1.8-4.7-3-7.9C213.5,312.6,213.5,315.5,213.5,319.1z"/>
	<path class="st0" d="M148.2,268.6L148.2,268.6L148.2,268.6C148.2,268.6,148.2,268.6,148.2,268.6z"/>
	<path class="st0" d="M194.3,333.4c1,1,1.9,2,2.9,3c-0.3,0.2-0.5,0.4-0.8,0.6c0.2-0.2,0.5-0.4,0.8-0.6
		C196.2,335.4,195.2,334.4,194.3,333.4z"/>
	<path class="st0" d="M148.7,268.5c0,0-0.1,0-0.2,0L148.7,268.5z"/>
	<path class="st1" d="M229,299c3.4,1.1,7.3,1.1,9.9,3.9c0.2,0.2,0.1,0.9,0.1,1.7c-2.2-0.7-4.2-1.4-6.6-2.2c-0.4,0.4-1,0.9-1.7,1.6
		c3,4.5,6.6,8.5,5.1,14.3c-0.6,0.1-1.3,0.3-2.3,0.5c-2.2-4.1-4.3-8.2-6.7-12.7c-1.5,0.7-2.6,1.2-3.7,1.7c1.1,4.8,3.3,8.8,3.9,13.3
		c-2.3,1.2-3.3,0.2-3.9-1.6c-1-2.6-2.1-5.1-2.9-7.8c-2.7-8.4-6.4-16.4-11.1-23.9c-0.7-1.2-1.7-2.2-2.5-3.2c-2.7,0.7-2.9,2.4-2.4,4
		c2,7.7,2.4,15.5,3.1,23.3c1.5,16.3,0.3,32.5,0.8,48.8c0,0.8,0,1.6,0,2c2,3.4,5.2,1.2,7.6,2.6c2.2,1.3,4.8,1.8,7.2,3.2
		c-6.6,0-13.2,0-19.8,0c-0.7,0-1.3,0-2,0c-1.5,0-2.9,0-4.5,0c-0.6-9.9-1.2-19.6-1.9-30.3c0.2-0.2,0.8-0.6,1.6-1.2
		c0.2-0.2,0.5-0.4,0.8-0.6c-1-1-1.9-2-2.9-3c-9.8,0-19.6,0-29.7,0c-0.6,1.2-1.1,2.3-1.7,3.5c1.7,1.2,3,2.1,4,2.8
		c-0.6,9.7-1.1,19-1.7,28.8c-2.4,0-4.7,0-6.9,0c-6.8,0-13.6,0-20.8,0c4.5-4.2,10.6-3.3,15.7-6.1c0-1.8,0.1-3.6,0.1-5.3
		c0-14,0.1-28,0-42c-0.1-7.8,1.3-15.5,2.2-23.2c0-0.3,0.4-0.5,0.6-0.7c0-1.7,0-3.5,0-5.7c-0.8-0.3-1.8-0.6-2.7-0.9
		c-5.5,12.5-9.5,25.7-15.7,38.9c-1.7-4-1.7-4,1.5-15c-0.3-0.7-0.7-1.4-1-2.2c-0.8,0.1-1.6,0.2-2.6,0.3c-2.2,4.3-4.3,8.5-6.6,13.1
		c-1.1-0.7-1.9-1.2-2.5-1.6c-1.2-5.6,1.9-9.4,4.8-13.5c-0.3-0.6-0.7-1.3-1-1.9c-2.8-0.4-4.8,3-7.9,1.3c2.2-4.9,7.7-3.7,11.5-6.4
		c3.4-10.1,8.4-19.9,14.5-29.1l0,0h0c0.5-0.6,1-1.3,1.4-1.9c0.2,0.2,0.4,0.3,0.6,0.5c-0.4,0.5-0.7,0.9-1.1,1.4
		c0.3,1.6,0.6,3.3,0.9,4.9c0,0,0,0,0,0c0,0,0,0,0,0c0.5,0.1,0.9,0.2,1.4,0.3c0.6,3.3,0.6,3.3-2.4,4.8c0.3-1.9,0.6-3.6,0.9-5.2
		c0,0,0,0,0,0c0,0,0,0,0,0c-2.6,0-2.9,2.1-3.9,4.1c0.6,1.2,1.2,2.5,1.8,3.8c1.2,0.1,2.2,0.2,3.1,0.3c2.3-1.4,3.6-3.5,4-6.1
		c-0.6-1.9-1.2-3.7-1.8-5.9c1.7-0.4,3.6-0.8,6.1-1.4c-0.6,2.6-0.9,4.5-1.3,6.3c1.1,3.9,4.5,5.4,7.9,7.1c-1.4,2.4-3.1,4.5-3.8,6.9
		c-0.6,2.5-0.1,5.3-0.1,7.9c1.6,5.4,5.6,7.9,10.7,9.5c0.1,1.9,0.2,3.9,0.3,6.2c1.9,1.8,3.9,3.7,5.9,5.7c2-0.5,4-0.9,5.6-1.3
		c0.9-1.6,1.4-2.6,2-3.8c6.8-0.3,11.3-3.6,13.6-11c1.1-6.5-4-13.6-10.8-15.5c-1.5-6.7-4.3-12.3-12.5-13.1c-0.5-2.4-1-4.7-1.5-7.4
		H162c0,0.2,0,0.5,0,0.7c-0.9,0-1.9,0-2.8,0c-2.6,0-5.2,0-7.8,0c0-0.2,0-0.5,0-0.7h-7.2c-6.8,8.7-10.6,18.8-15,28.2
		c-5.4,1.4-9.9,3.4-11.7,8.7c-0.7,3.9,1.7,5.8,4.1,7.1c-0.2,3-0.4,5.8-0.5,8.2c2.2,5.2,5.4,7.4,10.6,5.6c1.2,1,2.3,2,3.3,2.8
		c2.1,0,3.9,0,5.7,0c1.2-1.1,2.3-2.1,3.5-3.2c1.1,0.4,2.1,0.9,3,1.3c1.3,4.1,1.2,8.1,0.9,12c0,0.4,0,0.7,0,1.1c0,2.3,0,4.6,0,6.9
		c0,2.7,0,5.4,0,8.1c-0.2,1-0.4,2-0.6,3.1c0,0.8,0,1.6,0,2.7c-0.9,0.4-1.7,1.1-2.6,1.2c-4.5,0.6-8.3,2.9-12,5.4
		c-2.4,1.7-3.4,4.4-4.5,7c0.5,0.6,0.9,1,1.4,1.6c13,0,25.9,0,39.4,0c0.6-0.6,1.5-1.3,2.3-2.1c0-5.3,0-10.3,0-15.3
		c0-0.9,0.4-1.8,0.7-2.7c0.1-4.5,0.2-8.9,0.3-13.6c5.6,0,10.9,0,16.5,0c1.9,5,1.5,10.5,1.5,15.8c0.5,5.1,1,10.2,1.5,15.8
		c0.3,0.4,1.1,1.2,1.9,2.1c12.7,0,25.3,0,38.1,0c1.2-2.8-0.1-4.8-1.9-6.6c-3.8-3.8-8.5-6.1-13.7-7.2c-0.6-0.1-1.3-0.2-2.2-0.4
		c-0.2-0.9-0.3-1.8-0.4-2.7c0-10.6,0-21.3,0-32c1.8-0.7,3.4-1.4,5-2c5,5.5,7.9,5.7,12.8,1.1c1.6,0,3.3,0,4.9,0
		c5.5-3.2,6.2-5,4.8-13.7c0.4-0.3,0.9-0.6,1.4-1.1c3.8-4,3.7-7.4-0.6-10.9c-1-0.8-2.2-1.6-3.4-2.1c-1.8-0.7-3.7-1.2-5.5-1.8
		c-4-9.9-9.1-19-15.2-28.1h-7.1C218.7,275.9,223.9,287.4,229,299z M183.1,313.3c-1.8,0-3.4,0-5.8,0c-0.8-1.7-1.6-3.3-2.4-5
		c2.6-1.6,2.6-1.6,5.6-1.8c0.8,0.7,1.8,1.6,2.6,2.4C183.1,310.5,183.1,311.8,183.1,313.3z M176.5,276.6c1.2,0,2.1,0,3.2,0
		c1.5,1.9,4.4,2.8,4.5,5.9c0,0,0,0,0,0c1.9,2.4,1,5.1,0.6,7.8c-0.1,1.1-0.5,2.2-0.7,3.3c0.5,0,1-0.1,1.5-0.1
		c0.7-1.3,1.4-2.5,2.2-3.8c6.9,1.6,8.8,5,8.3,13.7c-3.2,5-4.6,5.9-9.8,5.7c-1.4-2.2-2.8-4.5-4.1-6.7c-3.3,0-6.1,0.1-8.9,0
		c-0.7,0-1.4-0.5-2.1-0.8c-1-0.7-2.1-1.3-3.1-2c-3.1-3.4-3.1-3.4-2.9-10.6c0.8-0.9,1.9-2.2,3.1-3.5c0.4-1.6,0.8-3.2,1.2-5
		c1.5-0.4,3.1-0.8,4.7-1.2C174.9,278.4,175.8,277.5,176.5,276.6z M166.2,268.6c0.2-0.1,0.5-0.2,0.8-0.2c0.1-0.5,0.3-0.9,0.4-1.4
		c2.7-1.2,4.3,0.2,5.8,2.3c0,1.9,0,3.8,0,5.9c-1.1,0.4-2.1,0.8-3.1,1.3c-2.3,1.4-4.6,2-7,0.2c-0.6-0.9-1.3-1.7-1.9-2.6
		C162.3,271.4,162.7,268.6,166.2,268.6z M146.3,318.2c0-0.7,0-1.5,0-2.2c0.2,0,0.3,0,0.5,0c0.1,0.7,0.3,1.5,0.4,2.2
		C146.9,318.1,146.6,318.1,146.3,318.2z M213.5,319.1c0-3.6,0-6.5,0-10.5c1.2,3.2,2,5.4,3,7.9C215.6,317.3,214.8,318,213.5,319.1z"
		/>
	<path class="st2" d="M147.9,352.6c0-2.7,0-5.4,0-8.1C146.9,347.8,146.9,349.2,147.9,352.6z"/>
	<path class="st2" d="M147.3,337.1c0.2,0.2,0.4,0.4,0.6,0.5c0-0.4,0-0.7,0-1.1C147.7,336.7,147.5,336.9,147.3,337.1z"/>
	<path class="st3" d="M189.4,286.2c6.9,1.9,11.9,9,10.8,15.5c-2.3,7.4-6.8,10.8-13.6,11c-0.6,1.1-1.1,2.1-2,3.8
		c-1.6,0.4-3.6,0.8-5.6,1.3c0.4,0.9,0.8,1.7,1.2,2.6c2.2,0,4.2,0,6.6,0c0.8-1,1.9-2.2,3.4-4c2.6-0.3,5.9-0.7,9.9-1.2
		c-0.7,4.6-0.8,8.6-4.6,11.3c-5.1,0-10.3,0-15.4,0c-3.1,0-6.3,0.2-9.4,0c-3.5-0.2-6.8,0.6-10.2,2.3c-1.5,2.8-2.4,6-2.4,9.4
		c0,10.1,0,20.2,0,30.3c2.3,0,4.5,0,6.9,0c0.6-9.8,1.1-19.1,1.7-28.8c-1-0.7-2.3-1.6-4-2.8c0.6-1.2,1.1-2.3,1.7-3.5
		c10.1,0,19.9,0,29.7,0c1.1-0.4,2.2-0.8,3.3-1.1c1.3,1.4,2.3,2.5,3.3,3.5c1.9,5.8,1.1,11.7,1.4,17.6c0.2,5,0.6,10.1,0.9,15.1
		c6.6,0,13.2,0,19.8,0c-2.4-1.4-5.1-1.9-7.2-3.2c-2.3-1.4-5.6,0.8-7.6-2.6c0-0.4,0-1.2,0-2c-0.4-16.3,0.7-32.5-0.8-48.8
		c-0.7-7.8-1.1-15.7-3.1-23.3c-0.4-1.7-0.2-3.4,2.4-4c0.8,1,1.7,2,2.5,3.2c4.7,7.5,8.4,15.5,11.1,23.9c0.8,2.6,1.9,5.2,2.9,7.8
		c0.7,1.8,1.6,2.8,3.9,1.6c-0.6-4.5-2.8-8.5-3.9-13.3c1-0.5,2.1-1,3.7-1.7c2.4,4.5,4.5,8.6,6.7,12.7c1-0.2,1.7-0.3,2.3-0.5
		c1.6-5.8-2.1-9.7-5.1-14.3c0.7-0.6,1.2-1.2,1.7-1.6c2.4,0.8,4.4,1.4,6.6,2.2c0-0.9,0.1-1.5-0.1-1.7c-2.6-2.8-6.5-2.8-9.9-3.9
		c-5.1-11.6-10.4-23.1-18.4-33.2h-35.3c0.6,2.6,1,5,1.5,7.4C185.1,273.9,188,279.5,189.4,286.2z"/>
	<path class="st4" d="M160.5,328.8c3.4-1.7,6.7-2.5,10.2-2.3c3.1,0.2,6.3,0,9.4,0c0-0.7,0-1.3,0-2.6c-1.1-0.8-2.5-1.9-3.9-2.8
		c-4.7-3-8.5-6.7-10.7-11.8c-0.4-0.9-0.4-1.9-0.6-3.1c-5.3-3.4-8.9-8.1-8.9-15c-0.2,0.2-0.6,0.4-0.6,0.7c-0.9,7.7-2.3,15.4-2.2,23.2
		c0.1,14,0,28,0,42c0,1.8-0.1,3.6-0.1,5.3c-5.1,2.8-11.2,1.9-15.7,6.1c7.2,0,14,0,20.8,0c0-10.1,0-20.2,0-30.3
		C158.2,334.8,159,331.6,160.5,328.8z"/>
	<path class="st5" d="M165,306.2c0.2,1.2,0.2,2.2,0.6,3.1c2.2,5.1,6,8.9,10.7,11.8c1.5,0.9,2.8,2,3.9,2.8c0,1.3,0,1.9,0,2.6
		c5.2,0,10.3,0,15.4,0c3.8-2.7,3.9-6.8,4.6-11.3c-4,0.5-7.3,0.9-9.9,1.2c-1.6,1.9-2.6,3.1-3.4,4c-2.4,0-4.4,0-6.6,0
		c-0.4-0.9-0.8-1.8-1.2-2.6c-2-1.9-4-3.9-5.9-5.7c-0.1-2.3-0.2-4.3-0.3-6.2c-5.1-1.6-9.2-4.2-10.7-9.5c0-2.6-0.5-5.4,0.1-7.9
		c0.6-2.4,2.4-4.5,3.8-6.9c-3.4-1.7-6.8-3.2-7.9-7.1c-1,0.3-2,0.7-3,1c-0.5,2.6-1.8,4.7-4,6.1c0,0.6,0,1.3,0,1.9
		c0.7,0.4,1.4,0.8,2.2,1.1c1,0.3,1.9,0.6,2.7,0.9c0,2.2,0,4,0,5.7C156,298.1,159.7,302.8,165,306.2z"/>
	<path class="st6" d="M168.2,285.5c1.3,1.4,2.6,2.7,3.9,4.1c0.9,0.6,1.8,1.3,2.8,1.9c0.5,0.3,1.2,0.2,2,0.3c0,1.9,0,3.6,0,5.3
		c-1.2,2.1-3.2,1.4-4.9,1.4c-0.6,0.1-1.2,0.1-1.8,0.2c0.3,1,0.6,2,0.8,3c0.7,0.3,1.4,0.8,2.1,0.8c2.8,0.1,5.6,0,8.9,0
		c1.3,2.2,2.8,4.5,4.1,6.7c5.2,0.1,6.6-0.7,9.8-5.7c0.6-8.8-1.4-12.1-8.3-13.7c-0.7,1.2-1.4,2.5-2.2,3.8c-0.5,0-1,0.1-1.5,0.1
		c-0.5,0-1-0.1-1.9-0.2c2-3.5,2.1-7.1,1.9-10.9c-0.5,0-1.2,0.2-1.4-0.1c-2.4-2.5-5.4-3.1-8.7-3c-1.6,0.4-3.1,0.8-4.7,1.2
		C169,282.4,168.6,283.9,168.2,285.5z"/>
	<path class="st7" d="M151.1,283.5c0-0.6,0-1.3,0-1.9c-1-0.1-1.9-0.2-3.1-0.3c-0.6-1.3-1.3-2.6-1.8-3.8c0.9-2,1.3-4.1,3.9-4.1
		c-0.3-1.6-0.6-3.3-0.9-4.9l-0.5,0l-0.2,0c-0.1,0-0.1,0-0.2,0l-0.1,0c-6.1,9.3-11.1,19-14.5,29.1c-3.8,2.7-9.3,1.4-11.5,6.4
		c3.2,1.6,5.1-1.7,7.9-1.3c0.4,0.7,0.7,1.3,1,1.9c-2.9,4.1-6,7.9-4.8,13.5c0.6,0.4,1.4,0.9,2.5,1.6c2.3-4.6,4.5-8.8,6.6-13.1
		c1-0.1,1.8-0.2,2.6-0.3c3.3-6.6,6.6-13.2,10-19.8C148.8,285.4,150.1,284.5,151.1,283.5z"/>
	<path class="st7" d="M150.1,273.4C150.1,273.4,150.1,273.4,150.1,273.4C150.1,273.5,150.1,273.5,150.1,273.4L150.1,273.4z"/>
	<path class="st3" d="M148.2,286.6c-3.4,6.5-6.7,13.2-10,19.8c0.3,0.7,0.7,1.5,1,2.2c-3.3,11-3.3,11-1.5,15
		c6.2-13.2,10.1-26.4,15.7-38.9c-0.7-0.4-1.4-0.8-2.2-1.1C150.1,284.5,148.8,285.4,148.2,286.6z"/>
	<path class="st5" d="M200.9,335.8c-1-1-2-2.1-3.3-3.5c-1.1,0.4-2.2,0.8-3.3,1.1c1,1,1.9,2,2.9,3c0,2.2,0.1,4.3,0,6.5
		c0,2.1,0,4.2,1,6.2c1,2,1.1,4.1,1,6.2c-0.1,3.5,0,7,0,10.5c0.7,0.9,1.3,1.9,2,2.8c0.7,0,1.3,0,2,0c-0.3-5-0.7-10.1-0.9-15.1
		C202,347.5,202.8,341.6,200.9,335.8z"/>
	<path class="st7" d="M199.2,355.3c0-2.1,0-4.2-1-6.2c-1-2-1.1-4.1-1-6.2c0-2.2,0-4.3,0-6.5c-0.3,0.2-0.5,0.4-0.8,0.6
		c-0.7,0.6-1.4,1.1-1.6,1.2c0.7,10.7,1.3,20.4,1.9,30.3c1.6,0,3.1,0,4.5,0c-0.7-0.9-1.3-1.9-2-2.8
		C199.2,362.2,199.2,358.8,199.2,355.3z"/>
	<path class="st8" d="M170.3,298.7c0.6-0.1,1.2-0.1,1.8-0.2c0-3,0-5.9,0.1-8.9c-1.3-1.4-2.6-2.7-3.9-4.1c-1.2,1.3-2.3,2.6-3.1,3.5
		c-0.2,7.2-0.2,7.2,2.9,10.6C168.4,298.3,169.4,298.6,170.3,298.7z"/>
	<path class="st6" d="M163.1,276.5c2.4,1.9,4.7,1.3,7-0.2c0.3-1.7,0.5-3.4,0.8-5.4c-0.8-1.2-1.8-2.6-3.9-2.6c-0.3,0-0.5,0.1-0.8,0.2
		c-0.4,0.9-0.7,1.8-1.2,2.6C163.9,272.8,162.9,274.5,163.1,276.5z"/>
	<path class="st9" d="M174.9,308.4c0.8,1.6,1.6,3.3,2.4,5c2.4,0,4,0,5.8,0c0-1.6,0-2.8,0-4.4c-0.8-0.7-1.8-1.6-2.6-2.4
		C177.4,306.8,177.4,306.8,174.9,308.4z"/>
	<path class="st10" d="M170.9,270.9c-0.3,2-0.5,3.7-0.8,5.4c1-0.4,2-0.8,3.1-1.3c0-2.1,0-4,0-5.9c-1.5-2.1-3.1-3.5-5.8-2.3
		c-0.1,0.4-0.3,0.9-0.4,1.4C169.1,268.3,170.1,269.8,170.9,270.9z"/>
	<path class="st11" d="M159.5,268.2c-2.6,0.6-4.4,1-6.1,1.4c0.7,2.2,1.3,4,1.8,5.9c1-0.3,2-0.7,3-1
		C158.5,272.7,158.9,270.9,159.5,268.2z"/>
	<path class="st10" d="M182.8,282.4c0.2,0.2,0.9,0.1,1.4,0.1c0,0,0,0,0,0c0,0,0,0,0,0c0,0,0,0,0,0c-0.1-3-3-3.9-4.5-5.9
		c-1.1,0-2,0-3.2,0c-0.7,0.9-1.6,1.8-2.4,2.8C177.4,279.3,180.4,279.9,182.8,282.4z"/>
	<path class="st12" d="M165,271.1c0.5-0.8,0.8-1.7,1.2-2.6c-3.5,0-3.9,2.8-5,5.3c0.6,0.9,1.3,1.8,1.9,2.6
		C162.9,274.5,163.9,272.8,165,271.1z"/>
	<path class="st10" d="M184.2,282.5c0.2,3.7,0.1,7.4-1.9,10.9c0.9,0.1,1.4,0.1,1.9,0.2c0.2-1.1,0.6-2.2,0.7-3.3
		C185.2,287.6,186.2,284.9,184.2,282.5C184.2,282.5,184.2,282.5,184.2,282.5C184.2,282.5,184.2,282.5,184.2,282.5z"/>
	<path class="st13" d="M151.5,273.8c-0.5-0.1-1-0.2-1.4-0.3c-0.3,1.6-0.6,3.2-0.9,5.2C152.2,277.1,152.2,277.1,151.5,273.8z"/>
	<path class="st13" d="M150.1,273.5C150.1,273.5,150.1,273.5,150.1,273.5L150.1,273.5C150.1,273.5,150.1,273.5,150.1,273.5z"/>
	<path class="st14" d="M159.1,266.5c0-0.2,0-0.5,0-0.7h-7.8c0,0.2,0,0.5,0,0.7C153.9,266.5,156.5,266.5,159.1,266.5z"/>
	<path class="st12" d="M168.1,299.6c1,0.7,2.1,1.3,3.1,2c-0.3-1-0.6-2-0.8-3C169.4,298.6,168.4,298.3,168.1,299.6z"/>
	<path class="st15" d="M148.4,268.5c0.1,0,0.2,0,0.2,0l0.5,0c0.4-0.5,0.7-0.9,1.1-1.4c-0.2-0.2-0.4-0.3-0.6-0.5
		c-0.5,0.6-1,1.3-1.4,1.9h0c0,0,0,0,0.1,0C148.3,268.6,148.4,268.5,148.4,268.5z"/>
	<path class="st15" d="M161.9,266.5c0-0.2,0-0.5,0-0.7h-2.8c0,0.2,0,0.5,0,0.7C160.1,266.5,161,266.5,161.9,266.5z"/>
	<path class="st15" d="M146.3,315.9c0,0.7,0,1.5,0,2.2c0.3,0,0.6,0,0.9-0.1c-0.1-0.7-0.3-1.5-0.4-2.2
		C146.6,315.9,146.5,315.9,146.3,315.9z"/>
	<path class="st12" d="M177,297c0-1.7,0-3.4,0-5.3c-0.8-0.1-1.5,0-2-0.3c-1-0.5-1.9-1.2-2.8-1.9c0,3,0,5.9-0.1,8.9
		C173.8,298.4,175.8,299.1,177,297z"/>
</g>
<g id="Layer_2">
	<path class="st16" d="M340,364.4c-1.5-2.5-4.3-6-9.9-7.6c-1.8-0.5-3.5-0.9-5.2-1.3c-1.1-0.3-2.3-0.5-3.4-0.8
		c-7.7-2.1-15.4-3.1-22.5-3.8c-3.4-0.4-6.7-0.7-10-1c-3.8-0.3-7.7-0.7-11.4-1.1c-3.4-0.4-6.8-0.6-10.1-0.7c-1.4-0.1-2.8-0.1-4.2-0.2
		c-9.8-0.6-19.6-0.8-29.1-1c-3.3-0.1-6.7-0.1-10-0.2c-0.2,0-0.5,0-0.7,0v-9.9c0.6,0.1,1.2,0.1,1.8,0.1c3.8,0,7-1.5,9.5-3.2h4
		l2.3-1.3c8.7-5,10.9-10.5,10.3-18.7c2.7-3.5,3.9-7.2,3.7-11c-0.3-4.6-2.6-8.8-6.9-12.4c-1.9-1.6-3.9-2.8-5.9-3.7
		c-0.7-0.3-1.3-0.5-2-0.7c-2-4.4-4.2-8.7-6.7-13.2c6.9-0.4,13.9-1.6,21.3-3.4c13-3.3,23-8.7,30.6-16.5c8.1-8.4,11.9-18.6,14.1-25.5
		c1.3-4.1,2.3-8.1,3.3-11.9c0.1-0.2,0.1-0.5,0.2-0.7c6.1-4,10.2-10.3,11.7-18c2.1-10.3-0.3-17.5-3.8-22.4c2-7.7,4-17.3,4.2-27.3
		c0.1-5.8-0.2-11.1-0.9-16.5c-1.3-9-3.8-17.5-7.7-26.3c-6.9-15.3-17.2-28.5-30.6-39.4c-13.8-11.2-29.7-19.3-48.6-24.7
		c-11-3.2-22.3-4.6-31.9-5.6c-4.6-0.5-9.4-0.7-14.2-0.7c-6.2,0-12.7,0.4-19.7,1.2c-8.8,1-17.5,2.8-25.9,5.3
		c-15.7,4.7-29.8,11.6-42,20.4c-8.9,6.4-16.3,13.1-22.7,20.4c-9.7,11.1-17.3,23.6-22.4,37.3c-5,13.5-7.6,28-7.6,43.2
		c0,1.8,0.9,10,1.5,15.5c-4.7,6.1-6.6,13.5-5.3,21.4c1.1,7.4,5.1,13.8,11.7,18.9c0.2,0.7,0.3,1.3,0.5,1.9
		c2.7,10.9,5.9,19.5,10.1,26.9c5.5,9.8,13.7,17.3,24.2,22.3c9.4,4.5,19.2,5.5,27.5,6.1c5.2,0.4,10.4,0.6,15.5,0.8
		c-1.5,3.1-2.9,6.2-4.3,9.2c-0.2,0.5-0.5,1-0.7,1.5c-4.8,1.8-11.1,5.6-13.9,13.6l-0.3,0.7l-0.1,0.8c-0.5,2.7-0.8,8.4,3.7,13.4
		l-0.3,5.4l0.9,2.1c4.5,10.8,12.3,12.4,16.5,12.4c0.1,0,0.2,0,0.3,0c0,0,1.7,2,2.6,2.2c1.7,0.5,6.9-1.2,6.9-1.2l-0.1,7l0,0.8
		c-0.3,1.2-0.5,2.3-0.6,3.4c-0.3,0-0.7,0-1,0c-1.1,0-2.1,0-3.2,0c-1.1,0-2.2,0-3.3,0c-2.1,0-3.8,0-5.4,0.1c-3.4,0.1-6.8,0.3-10,0.6
		c-2.1,0.1-4.3,0.3-6.4,0.4c-5.3,0.3-10.5,0.5-15.8,0.7l-5.9,0.3c-0.2,0-0.5,0-0.7,0c-1.7,0-20.5,2.8-22.9,2.9
		c-1.4,0-6.4,0.5-6.9,0.6l-0.2,0c-1,0.2-2,0.4-3,0.7c-1.6,0.4-3,0.7-4.1,0.8c-4.8,0.2-8.8,1.5-12.4,2.7l-0.6,0.2
		c-2.8,0.9-8.5,2.6-11.6,9.1c0,0-3.4,4.7-3.1,6.4c0.3,1.8,5.1,5,5.1,5c5,4.9,10.9,6.6,15.5,7.5c4,0.8,8.1,1.5,12.7,2.3l0.5,0.1
		c3.7,0.6,7.6,1.3,11.6,1.7c1.9,0.2,3.6,0.3,5.4,0.4c2.3,0.1,4.4,0.2,6.1,0.6c2.9,0.7,5.5,0.8,7.6,0.9c0.7,0,1.4,0.1,2.1,0.1
		c1.1,0.1,2.3,0.2,3.5,0.4c1.7,0.2,3.5,0.4,5.4,0.6c2,0.1,3.8,0.1,5.4,0.1l3.1,0c3,0,5.3,0.1,7.4,0.5c1.9,0.4,3.8,0.6,6.1,0.6
		c1.3,0,2.4-0.1,3.6-0.1c1,0,1.9-0.1,2.7-0.1c0.3,0,0.5,0,0.8,0c1.4,0.1,2.8,0.2,4.4,0.4c2.3,0.2,4.9,0.5,7.6,0.5l0.3,0
		c3.5,0,7.1,0,10.6,0c7.5,0,15,0,22.4,0.1c7.4,0,15,0.1,22.5,0.1c13.2,0,30.5-0.1,48.3-1.1c1.4-0.1,2.9-0.1,4.4-0.1
		c3.3-0.1,7-0.1,10.9-0.8c2.2-0.4,4.8-0.4,7.6-0.5c3-0.1,6.5-0.1,10-0.6c3.5-0.5,7.3-0.7,11.2-0.8c1.7-0.1,3.5-0.1,5.2-0.2
		c0.1,0,0.1,0,0.2,0c1,0,2-0.1,3-0.4c2.3-0.7,5-1,7.9-1.3c3-0.3,6.4-0.7,9.9-1.5c1.4-0.4,3.2-0.6,5-0.8c2.7-0.3,5.7-0.7,8.8-1.6
		c0.3-0.1,0.6-0.2,0.9-0.3c3.4-1,9.2-2.6,13.2-8.1c0,0,4-3.8,4-5.4C343.6,368.5,340,364.4,340,364.4z M322.5,374.4
		c-4.3,1.3-9,1.2-13.4,2.3c-6,1.5-12.3,1.1-18.2,2.9c-0.2,0-0.3,0-0.5,0c-5.9,0.3-11.9,0.3-17.7,1.1c-5.9,0.9-11.9,0.2-17.7,1.1
		c-4.8,0.8-9.5,0.5-14.3,0.8c-34.4,1.9-68.9,0.7-103.3,0.9c-3.9,0-7.8-0.7-11.7-0.9c-3.8-0.2-7.8,0.6-11.5-0.2
		c-5.8-1.2-11.5-0.5-17.3-0.9c-2.9-0.2-5.8-0.7-8.7-1c-2.8-0.2-5.5-0.1-8.3-0.8c-4.1-1-8.5-0.7-12.7-1.2c-3.9-0.4-7.7-1.1-11.5-1.7
		c-4.1-0.7-8.3-1.4-12.4-2.3c-3.8-0.8-7.5-1.9-10.4-4.8c1.3-2.8,4-3.3,6.1-4c3.2-1,6.4-2.1,9.9-2.3c2.9-0.1,5.7-1.1,8.5-1.6
		c0.5-0.1,1-0.2,1.4-0.3c4.2-0.3,26.9-3,27.2-3c7.4-0.3,14.8-0.6,22.2-1c5.4-0.3,10.8-0.8,16.2-0.9c5.3-0.2,10.7,0,16-0.1
		c2.3-0.1,4.5-0.6,6.7-0.9c0.2-1,0.4-2,0.6-3.1c-1-3.4-1-4.8,0-8.1c0-2.3,0-4.6,0-6.9c-0.2-0.2,0.4-9-0.9-13.1
		c-0.9-0.4-1.9-0.8-3-1.3c-1.2,1.1-2.3,2.1-3.5,3.2c-1.8,0-3.6,0-5.7,0c-1-0.8-2.1-1.8-3.3-2.8c-5.2,1.8-8.4-0.4-10.6-5.6
		c0.1-2.4,2-5.6,0.5-8.2c-1.4-2.4-4.8-3.3-4.1-7.1c1.8-5.3,6.3-7.3,11.7-8.7c4.5-9.5,8.3-19.6,15.1-28.3c-1.2-0.1-2-0.1-2.8-0.2
		c-9.8-0.4-19.6-0.5-29.4-1.2c-8.2-0.6-16.3-1.6-24-5.2c-8.6-4-15.1-10-19.7-18.2c-4.3-7.7-7-15.9-9.1-24.4
		c-0.4-1.8-0.8-3.5-1.3-5.6c-5.3-3.3-9.6-7.7-10.6-14.4c-1-6.5,1-12.1,6-16.6c-0.5-3.2-2-17.4-2-18.8c0-13.6,2.2-26.9,7-39.7
		c4.7-12.7,11.5-24,20.5-34.2C84.9,80.1,92,74,99.7,68.4c11.9-8.6,25-14.7,39-18.9c7.9-2.4,16-4,24.1-4.9
		c10.5-1.2,21.1-1.5,31.8-0.4c10.2,1.1,20.3,2.4,30.1,5.3c16.5,4.8,31.6,12,45.1,22.9c12.1,9.8,21.4,21.6,27.8,35.7
		c3.4,7.5,5.8,15.3,6.9,23.5c0.7,5,0.9,9.9,0.8,14.9c-0.2,9.6-2.2,18.9-4.8,28.2c-0.2,0.6-0.3,1.3-0.5,2.2c5.7,4.6,6.3,11.1,5,17.6
		c-1.2,5.8-4.3,10.7-10.5,13.3c-1.4,5.3-2.7,10.9-4.4,16.4c-2.5,7.9-5.9,15.5-11.7,21.5c-7.1,7.4-16.1,11.3-25.9,13.8
		c-6.6,1.6-13.2,2.8-20,3.2c-5.1,0.3-10.1,1.2-15.7,1.9c6.5,9.6,11.9,19.1,16.1,29.4c1.8,0.6,3.7,1.1,5.5,1.8
		c1.2,0.5,2.4,1.2,3.4,2.1c4.3,3.6,4.4,6.9,0.6,10.9c-0.5,0.5-1,0.8-1.4,1.1c1.3,8.7,0.7,10.5-4.8,13.7c-1.6,0-3.3,0-4.9,0
		c-4.9,4.6-7.8,4.3-12.8-1.1c-1.6,0.7-3.2,1.3-5,2c0,10.8,0,21.4,0,32c3.5,0,7,0,10.5,0.1c12.9,0.3,25.9,0.3,38.7,1.2
		c4.6,0.3,9.2,0.4,13.7,0.9c7.2,0.8,14.3,1.3,21.5,2.1c7,0.8,14.1,1.7,21,3.6c2.8,0.7,5.6,1.3,8.4,2.1c2,0.6,4.2,1.3,4.1,3.3
		C331.3,373.5,325.6,373.5,322.5,374.4z"/>
	<path class="st2" d="M327.3,366.4c-2.8-0.8-5.6-1.4-8.4-2.1c-6.9-1.9-14-2.8-21-3.6c-7.1-0.8-14.3-1.3-21.5-2.1
		c-4.5-0.5-9.2-0.6-13.7-0.9c-12.9-0.8-25.8-0.9-38.7-1.2c-3.5-0.1-7,0-10.5-0.1c0.1,0.9,0.3,1.8,0.4,2.7c0.9,0.2,1.6,0.3,2.2,0.4
		c5.3,1.1,9.9,3.5,13.7,7.2c1.8,1.8,3.1,3.8,1.9,6.6c-12.8,0-25.4,0-38.1,0c-0.8-0.9-1.6-1.7-1.9-2.1c-0.5-5.7-1-10.8-1.5-15.8
		c-5.8,0-11.5,0-17.6,0c-0.2-0.8-0.4-1.5-0.7-2.3c-0.2,0.9-0.7,1.8-0.7,2.7c-0.1,5,0,10,0,15.3c-0.9,0.8-1.7,1.5-2.3,2.1
		c-13.4,0-26.4,0-39.4,0c-0.5-0.6-0.9-1.1-1.4-1.6c1.2-2.6,2.1-5.3,4.5-7c3.7-2.5,7.5-4.7,12-5.4c0.9-0.1,1.7-0.8,2.6-1.2
		c0-1,0-1.8,0-2.7c-2.2,0.3-4.5,0.8-6.7,0.9c-5.3,0.1-10.7-0.1-16,0.1c-5.4,0.2-10.8,0.7-16.2,0.9c-7.4,0.4-14.8,0.7-22.2,1
		c-0.3,0-0.7-0.1-1,0c-4.3,2.2-9,0.4-13.5,1.8c-4,1.2-8.4,0.8-12.7,1.2c-0.5,0-1,0.2-1.4,0.3c-2.8,0.6-5.7,1.5-8.5,1.6
		c-3.5,0.2-6.7,1.2-9.9,2.3c-2.1,0.7-4.8,1.3-6.1,4c2.9,2.9,6.6,4.1,10.4,4.8c4.1,0.8,8.3,1.6,12.4,2.3c3.8,0.6,7.7,1.3,11.5,1.7
		c4.2,0.5,8.6,0.2,12.7,1.2c2.8,0.7,5.5,0.6,8.3,0.8c2.9,0.3,5.8,0.8,8.7,1c5.7,0.4,11.5-0.4,17.3,0.9c3.7,0.8,7.6,0,11.5,0.2
		c3.9,0.2,7.8,0.9,11.7,0.9c34.4-0.3,68.9,1,103.3-0.9c4.8-0.3,9.5,0,14.3-0.8c5.8-0.9,11.8-0.2,17.7-1.1c5.8-0.9,11.8-0.8,17.7-1.1
		c0.2,0,0.3,0,0.5,0c5.9-1.7,12.2-1.4,18.2-2.9c4.4-1.1,9.1-1,13.4-2.3c3.1-0.9,6.7-1.6,8.9-4.7C330.4,368,329.3,367,327.3,366.4z"
		/>
	<g>
	</g>
	<g>
	</g>
	<g>
	</g>
	<g>
	</g>
	<g>
	</g>
	<g>
	</g>
</g>
</svg>
