<?xml version="1.0" encoding="utf-8"?>
<!-- Generator: Adobe Illustrator 26.2.1, SVG Export Plug-In . SVG Version: 6.00 Build 0)  -->
<svg version="1.1" xmlns="http://www.w3.org/2000/svg" xmlns:xlink="http://www.w3.org/1999/xlink" x="0px" y="0px"
	 viewBox="0 0 362 422.9" style="enable-background:new 0 0 362 422.9;" xml:space="preserve">
<style type="text/css">
	.st0{fill:#392652;}
	.st1{fill:#8FAE7A;}
	.st2{fill:#A8D4BA;}
	.st3{fill:#7B9DA3;}
	.st4{fill:#E0EAC9;}
	.st5{fill:#7A9CA2;}
	.st6{fill:#DCE9C7;}
	.st7{fill:#A6D1B9;}
	.st8{fill:#DE9F38;}
	.st9{fill:#DBE4C5;}
	.st10{fill:#DDE7C6;}
	.st11{fill:#D3933B;}
	.st12{fill:#96A473;}
	.st13{fill:#75939C;}
	.st14{fill:#BED072;}
	.st15{fill:#321E43;}
	.st16{fill:#C0A555;}
	.st17{fill:#92868C;}
	.st18{fill:#65648A;}
	.st19{fill:#3A2653;}
	.st20{fill:#3C2952;}
	.st21{fill:#3D2D56;}
	.st22{fill:#382553;}
	.st23{fill:#CDDCBF;}
	.st24{fill:#372453;}
	.st25{fill:#D5D8C2;}
	.st26{fill:#FAFBF8;}
	.st27{fill:#FAF9FA;}
	.st28{fill:#E4E0E7;}
	.st29{fill:#BFD573;}
</style>
<g id="Layer_1">
	<path class="st0" d="M147.9,336.5c0.3-4,0.4-7.9-0.9-12c-0.9-0.4-1.9-0.8-3-1.3c-1.2,1.1-2.3,2.1-3.5,3.2c-1.8,0-3.6,0-5.7,0
		c-1-0.8-2.1-1.8-3.3-2.8c-5.2,1.8-8.4-0.4-10.6-5.6c0.1-2.4,0.3-5.2,0.5-8.2c-2.5-1.3-4.8-3.3-4.1-7.1c1.8-5.3,6.3-7.3,11.7-8.7
		c4.5-9.5,8.3-19.6,15.1-28.3c-1.2-0.1-2-0.1-2.8-0.2c-9.8-0.4-19.6-0.5-29.4-1.2c-8.2-0.6-16.3-1.6-24-5.2
		c-8.6-4-15.1-10-19.7-18.2c-4.3-7.7-7-15.9-9.1-24.4c-0.4-1.8-0.8-3.5-1.3-5.6c-5.3-3.3-9.6-7.7-10.6-14.4c-1-6.5,1-12.1,6-16.6
		c-0.5-3.2-2-17.4-2-18.8c0-13.6,2.2-26.9,7-39.7c4.7-12.7,11.5-24,20.5-34.2C84.9,80.1,92,74,99.7,68.4c11.9-8.6,25-14.7,39-18.9
		c7.9-2.4,16-4,24.1-4.9c10.5-1.2,21.1-1.5,31.8-0.4c10.2,1.1,20.3,2.4,30.1,5.3c16.5,4.8,31.6,12,45.1,22.9
		c12.1,9.8,21.4,21.6,27.8,35.7c3.4,7.5,5.8,15.3,6.9,23.5c0.7,5,0.9,9.9,0.8,14.9c-0.2,9.6-2.2,18.9-4.8,28.2
		c-0.2,0.6-0.3,1.3-0.5,2.2c5.7,4.6,6.3,11.1,5,17.6c-1.2,5.8-4.3,10.7-10.5,13.3c-1.4,5.3-2.7,10.9-4.4,16.4
		c-2.5,7.9-5.9,15.5-11.7,21.5c-7.1,7.4-16.1,11.3-25.9,13.8c-6.6,1.6-13.2,2.8-20,3.2c-5.1,0.3-10.1,1.2-15.7,1.9
		c6.5,9.6,11.9,19.1,16.1,29.4c1.8,0.6,3.7,1.1,5.5,1.8c1.2,0.5,2.4,1.2,3.4,2.1c4.3,3.6,4.4,6.9,0.6,10.9c-0.5,0.5-1,0.8-1.4,1.1
		c1.3,8.7,0.7,10.5-4.8,13.7c-1.6,0-3.3,0-4.9,0c-4.9,4.6-7.8,4.3-12.8-1.1c-1.6,0.7-3.2,1.3-5,2c0,10.8,0,21.4,0,32
		c0.1,0.9,0.3,1.8,0.4,2.7c0.9,0.2,1.6,0.3,2.2,0.4c5.3,1.1,9.9,3.5,13.7,7.2c1.8,1.8,3.1,3.8,1.9,6.6c-12.8,0-25.4,0-38.1,0
		c-0.8-0.9-1.6-1.7-1.9-2.1c-0.5-5.7-1-10.8-1.5-15.8c0-5.4,0.5-10.8-1.5-15.8c-5.6,0-10.9,0-16.5,0c-0.1,4.7-0.2,9.1-0.3,13.6
		c-0.2,0.9-0.7,1.8-0.7,2.7c-0.1,5,0,10,0,15.3c-0.9,0.8-1.7,1.5-2.3,2.1c-13.4,0-26.4,0-39.4,0c-0.5-0.6-0.9-1.1-1.4-1.6
		c1.2-2.6,2.1-5.3,4.5-7c3.7-2.5,7.5-4.7,12-5.4c0.9-0.1,1.7-0.8,2.6-1.2c0-1,0-1.8,0-2.7c0.2-1,0.4-2,0.6-3.1c0-2.7,0-5.4,0-8.1
		c0-2.3,0-4.6,0-6.9C147.9,337.2,147.9,336.9,147.9,336.5z M159.1,266.5c0.9,0,1.9,0,2.8,0c0-0.3,0-0.5,0-0.8
		c-0.9,0-1.9-0.1-2.8-0.1c-2.6,0-5.2,0-7.8,0c0,0.3,0,0.6,0,0.9C153.9,266.5,156.5,266.5,159.1,266.5z M184.2,282.5L184.2,282.5
		c-0.1-3-2.9-3.9-4.5-5.9c-1.1,0-2,0-3.2,0c-0.7,0.9-1.6,1.8-2.4,2.8c-1.6,0.4-3.1,0.8-4.7,1.2c-0.4,1.8-0.8,3.4-1.2,5
		c-1.2,1.3-2.3,2.6-3.1,3.5c-0.2,7.2-0.2,7.2,2.9,10.6c1,0.7,2.1,1.3,3.1,2c0.7,0.3,1.4,0.8,2.1,0.8c2.8,0.1,5.6,0,8.9,0
		c1.3,2.2,2.8,4.5,4.1,6.7c5.2,0.1,6.6-0.7,9.8-5.7c0.6-8.8-1.4-12.1-8.3-13.7c-0.7,1.2-1.4,2.5-2.2,3.8c-0.5,0-1,0.1-1.5,0.1
		c0.2-1.1,0.6-2.2,0.7-3.3C185.2,287.6,186.2,284.9,184.2,282.5z M166.2,268.6c-3.5,0-3.9,2.8-5,5.3c0.6,0.9,1.3,1.8,1.9,2.6
		c2.4,1.9,4.7,1.3,7-0.2c1-0.4,2-0.8,3.1-1.3c0-2.1,0-4,0-5.9c-1.5-2.1-3.1-3.5-5.8-2.3c-0.1,0.4-0.3,0.9-0.4,1.4
		C166.7,268.4,166.4,268.5,166.2,268.6z M197.1,336.4c-1,0.8-2.1,1.6-2.4,1.8c0.7,10.7,1.3,20.4,1.9,30.3c1.6,0,3.1,0,4.5,0
		c0.7,0,1.3,0,2,0c6.6,0,13.2,0,19.8,0c-2.4-1.4-5.1-1.9-7.2-3.2c-2.3-1.4-5.6,0.8-7.6-2.6c0-0.4,0-1.2,0-2
		c-0.4-16.3,0.7-32.5-0.8-48.8c-0.7-7.8-1.1-15.7-3.1-23.3c-0.4-1.7-0.2-3.4,2.4-4c0.8,1,1.7,2,2.5,3.2c4.7,7.5,8.4,15.5,11.1,23.9
		c0.8,2.6,1.9,5.2,2.9,7.8c0.7,1.8,1.6,2.8,3.9,1.6c-0.6-4.5-2.8-8.5-3.9-13.3c1-0.5,2.1-1,3.7-1.7c2.4,4.5,4.5,8.6,6.7,12.7
		c1-0.2,1.7-0.3,2.3-0.5c1.6-5.8-2.1-9.7-5.1-14.3c0.7-0.6,1.2-1.2,1.7-1.6c2.4,0.8,4.4,1.4,6.6,2.2c0-0.9,0.1-1.5-0.1-1.7
		c-2.6-2.8-6.5-2.8-9.9-3.9c-5.4-12.2-10.9-24.2-19.6-34.7c-4.1,0.4-8.2,1-12.3,1.1c-6,0.2-12,0.1-18,0.1c-1.3,0-2.6,0.1-3.8,0.2
		c0.6,2.6,1,5,1.5,7.4c8.2,0.7,11.1,6.4,12.5,13.1c6.9,1.9,11.9,9,10.8,15.5c-2.3,7.4-6.8,10.8-13.6,11c-0.6,1.1-1.1,2.1-2,3.8
		c-1.6,0.4-3.6,0.8-5.6,1.3c-2-1.9-4-3.9-5.9-5.7c-0.1-2.3-0.2-4.3-0.3-6.2c-5.1-1.6-9.2-4.2-10.7-9.5c0-2.6-0.5-5.4,0.1-7.9
		c0.6-2.4,2.4-4.5,3.8-6.9c-3.4-1.7-6.8-3.2-7.9-7.1c0.4-1.8,0.8-3.7,1.3-6.3c-2.6,0.6-4.4,1-6.1,1.4c0.7,2.2,1.3,4,1.8,5.9
		c-0.5,2.6-1.8,4.7-4,6.1c-1-0.1-1.9-0.2-3.1-0.3c-0.6-1.3-1.3-2.6-1.8-3.8c0.9-2,1.3-4.1,3.9-4.1c-0.3,1.6-0.6,3.3-0.9,5.2
		c3-1.5,3-1.5,2.4-4.8c-0.5-0.1-1-0.2-1.5-0.3c-0.3-1.7-0.6-3.3-0.9-5c0.4-0.5,0.7-0.9,1.1-1.4c-0.2-0.2-0.4-0.3-0.6-0.5
		c-0.5,0.6-1,1.3-1.4,1.9c-6.1,9.3-11.1,19-14.5,29.1c-3.8,2.7-9.3,1.4-11.5,6.4c3.2,1.6,5.1-1.7,7.9-1.3c0.4,0.7,0.7,1.3,1,1.9
		c-2.9,4.1-6,7.9-4.8,13.5c0.6,0.4,1.4,0.9,2.5,1.6c2.3-4.6,4.5-8.8,6.6-13.1c1-0.1,1.8-0.2,2.6-0.3c0.3,0.7,0.7,1.5,1,2.2
		c-3.3,11-3.3,11-1.5,15c6.2-13.2,10.1-26.4,15.7-38.9c1,0.3,1.9,0.6,2.7,0.9c0,2.2,0,4,0,5.7c-0.2,0.2-0.6,0.4-0.6,0.7
		c-0.9,7.7-2.3,15.4-2.2,23.2c0.1,14,0,28,0,42c0,1.8-0.1,3.6-0.1,5.3c-5.1,2.8-11.2,1.9-15.7,6.1c7.2,0,14,0,20.8,0
		c2.3,0,4.5,0,6.9,0c0.6-9.8,1.1-19.1,1.7-28.8c-1-0.7-2.3-1.6-4-2.8c0.6-1.2,1.1-2.3,1.7-3.5c10.1,0,19.9,0,29.7,0
		C195.2,334.4,196.2,335.4,197.1,336.4z M62.2,189.4L62.2,189.4c0.3-2.4-1-3.7-2.7-4.7c-1.2,0-2.2,0-3,0c-6,6.2-5,15.6,2,20
		c1.4,0.9,2.8,1.8,4.2,2.7c1,4.1,1.8,8.1,2.9,12c1.2,4,2,8.3,4.5,11.9c5-0.3,9.9-0.7,15.3-1.1c0.3,1.7,0.5,3,0.7,4.2
		c-0.7,0.4-1.4,0.9-2.1,1c-3.7,0.5-7.4,1-11.4,1.5c3.5,6.5,7.5,11.9,14.3,14.6c2.6,1.3,5,2.8,7.7,3.9c5.2,2.2,10.9,2.2,16.4,2.8
		c7.5,0.9,15.2,1.2,22.8,1.1c23.9-0.2,47.9,1.1,71.8-0.8c4.3-0.4,8.7,0.1,13-0.2c5.1-0.4,10.1-1.5,15.1-1.7c5-0.3,9.8-1.1,14.6-2.2
		c5.7-1.3,11.4-2.9,16.5-5.9c5.9-3.4,11-7.6,14.3-14.1c-5.7,0-11.2,0-16.8,0c-0.5-1.1-0.9-2.1-1.3-3c1.8-2.4,4.1-2.9,6.7-3
		c5.1-0.2,10.1-0.7,15.4-1.1c2.2-7.9,4.4-15.6,6.5-23.1c5.6-2.4,8.7-6.6,10.3-12.1c0.8-2.8-0.3-5.2-1.1-7.6
		c-0.6-1.9-2.2-2.7-4.4-3.1c-0.8,0.4-1.8,0.9-2.7,1.3c-1.7,2-1.7,5.3-5.3,5.8c0-1.8,0-3.4,0-5.3c1.7-2.9,3.5-6.2,7.6-7
		c2.8-7.8,4.5-15.8,5.1-23.9c0.5-7.2,0.6-14.5-0.6-21.8c-1.8-10.7-5.7-20.4-11.2-29.6c-4.7-7.8-10.4-14.8-17.5-20.6
		c-4.1-3.3-8.1-6.9-12.4-9.8c-4.3-2.9-8.9-5.6-13.7-7.8c-4.3-1.9-8.5-4.4-13.4-4.5c-4.4-2.7-9.2-3.7-14.2-4.7
		c-0.6-0.3-1.1-0.8-1.8-0.9c-9.1-1.4-18.1-2.9-27.3-3.3c-0.3-0.3-0.6-0.9-1-0.9c-4-0.1-8.1-0.1-12.1,0c-0.3,0-0.6,0.6-0.9,0.9
		c-6.2,0.7-12.6,1-18.7,2.3c-7.1,1.5-14,3.4-20.9,5.8c-22.3,7.7-40.9,20.8-55.4,39.4c-6.3,8.1-11.1,16.9-14.9,26.8
		c4.8,1,9.3,1.9,13.8,2.9c0.7,0.6,1.4,1.2,2.3,2c-0.4,1.4-0.8,2.7-1.3,4.3c-3-0.5-5.5-1-8-1.4c-2.8-0.7-5.5-1.4-8.5-2.2
		c-1.9,6.2-3.5,11.9-3.7,18.5c2.3,0.7,4.5,1.2,6.7,1.9c3,0.9,6.1,1.7,7.5,5c-0.2,0.6-0.3,1.2-0.6,2.3c-2.2-0.3-4.2-0.5-6.3-0.9
		c-1.7-0.3-3.4-0.9-5.1-1.4c-0.7-1.3-1.7-1.2-2.8-0.6c0,4,0,7.8,0,11.7c1.1,0.1,1.9,0.1,2.7,0.2c0.7,1.1,1.9,2,0.6,3.4
		c-0.9,0.3-1.8,0.6-3,1c0.5,3.2,1,6.2,1.5,9.4c4,0.4,5,3.7,6.8,6.1c0,1.6,0,3.2,0,5.5C64.3,190.3,63.3,189.8,62.2,189.4z
		 M177.3,313.3c2.4,0,4,0,5.8,0c0-1.6,0-2.8,0-4.4c-0.8-0.7-1.8-1.6-2.6-2.4c-3,0.1-3,0.1-5.6,1.8
		C175.7,310,176.5,311.7,177.3,313.3z M213.5,319.1c1.3-1.1,2.1-1.8,3-2.5c-0.9-2.5-1.8-4.7-3-7.9
		C213.5,312.6,213.5,315.5,213.5,319.1z M146.3,318.2c0.3,0,0.6,0,0.9-0.1c-0.1-0.7-0.3-1.5-0.4-2.2c-0.2,0-0.3,0-0.5,0
		C146.3,316.7,146.3,317.4,146.3,318.2z"/>
	<path class="st1" d="M147.9,344.5c0,2.7,0,5.4,0,8.1C146.9,349.2,146.9,347.8,147.9,344.5z"/>
	<path class="st1" d="M147.9,336.5c0,0.4,0,0.7,0,1.1c-0.2-0.2-0.4-0.3-0.6-0.5C147.5,336.9,147.7,336.7,147.9,336.5z"/>
	<path class="st2" d="M60.1,154.5c1.7,0.5,3.4,1.1,5.1,1.4c2,0.4,4.1,0.6,6.3,0.9c0.3-1.1,0.5-1.7,0.6-2.3c2-1.5,0.5-3.6,1.2-5.8
		c-2.8-1.7-5.5-3.4-8.3-5.1c0.8-4.5,2.9-8.5,5.2-12.3c2.5,0.4,5,0.9,8,1.4c0.5-1.6,0.9-2.8,1.3-4.3c-0.9-0.8-1.6-1.4-2.3-2
		c1.2-1.4,2.4-2.7,3.6-4.1c0.9-1.1,1.9-2.3,2.6-3.5c4.4-7.5,9.4-14.6,15.6-20.7c2.4-2.3,5.1-4.2,7.4-6.5c5.1-4.9,11-8.7,17.2-11.9
		c9.6-5,19.2-10,30.2-11.6c7.3-3.4,15.5-2.9,23.2-4.7c3-0.7,6.3,0,9.5-0.2c3.1-0.2,6.1-0.8,9.2-0.9c3.3-0.2,6.6,0,9.7,0
		c7-3.7,7-3.7,10.8-8.9c4.9,1,9.8,2,14.2,4.7c0.6,0.9,1.2,1.8,1.8,2.7c1.5,2.1,2.9,4.1,1.4,7c-0.6,1.3-0.2,3.1-0.2,4.7
		c-0.7,0.3-1.4,0.7-2.1,1c-1.2-0.9-2.3-1.6-3.1-2.2c-2,0-3.7,0-6.1,0c-1.1,1.1-2.4,2.6-3.5,3.8c-0.2,1.6-0.4,2.8-0.5,3.4
		c-2.1,3.3-3.9,6.2-5.8,9.1c-1.5-0.4-2.9-0.8-4.1-1.2c-10.3,1.5-14.7,8.1-15.9,17.5c0.4,1.8,0.9,3.5,1.3,5.4c1.4,1.3,2.8,2.7,4.2,4
		c2.7,0,5.1,0,7.7,0c1.8-1.1,3.7-2.1,5.3-3.5c5.7-4.9,7.3-11.1,5.9-18.3c0.8-0.8,1.5-1.5,2.3-2.3c1.2-1.3,2.3-2.9,3.8-3.8
		c2.2-1.3,4.6-2.1,7-3.1c2.1-0.9,4.2-1.7,5.2-4.1c0-0.6,0-1.3,0-1.9l0,0c0.7,0,1.4,0,2.1-0.1l0.4,0l0.4,0.1c1,0.8,2.1,1.5,3,2.4
		c3.8,3.8,8.4,6.8,11.5,11.4c2.4,3.7,5.5,7,7.5,10.8c4.9,9.3,7.6,19.2,7.3,29.9c-0.2,6-1.7,11.5-3.5,17.1c-0.4,1.3-1.5,2.4-2.4,3.7
		c-3.8-2.2-7.4-4.1-11.4-4.9c-4.4-0.8-9-2.5-13.3-2.2c-4.9,0.3-10.1,0.4-14.8,2.3c-0.9,0.4-1.9,0.3-2.9,0.4c0.3-0.6,0.5-1.2,0.9-1.9
		c-1.5-4.7-5-7-10-7c-4.7,0-7.5,3-9.5,6.7c-0.5,1-0.1,2.5-0.1,4c1.5,0.1,2.8,0.2,4,0.2c2.1-2.9,4.3-5.4,8.3-3.9
		c1.7,0.9,2.7,3.5,5.4,2.7c-0.3,0.7-0.7,1.3-1,2c-1.6,0.3-3.3,0.4-4.8,0.8c-9,2.4-16,7.4-21.3,15.1c-6.4,9.3-8.4,19.8-6.4,30.6
		c2,10.8,8.2,19.6,17.4,25.9c0.2,0.6,0.3,1.4,0.7,1.8c3.3,3.7,7.4,6.3,12.1,8.1c5.9,2.2,11.9,3.4,18.2,3c3.2-0.2,6.4,0.4,9.5-0.2
		c4.9-1,9.7-2.8,14.1-4.1c1.2,2.6,2.4,5.1,3.7,8c-1.3,1.1-2.6,2.4-4.2,3.3c-7.7,4.4-16,6.8-24.7,8.1c-3.1,0.5-6.3,0.3-9.2,1.1
		c-2.8,0.8-5.5,0.5-8.3,0.8c-2.9,0.3-5.8,0.6-8.7,0.9c0-1.7,0-3.3,0-5c0-4-1.4-7.5-3.4-10.9c-4-6.6-10-10.6-17.2-13.1
		c-4.7-1.7-9.5-3.4-14.6-3c-4.7-2.5-9.1,0.3-13.7,0.6c-0.1,0-0.1,0.3-0.2,0.5c-3.3,0.1-6.5,0.3-9.7,0.8c-5,0.8-9.8,1.9-14.3,4.2
		c-7.1,3.7-10.8,9.6-11,17.6c-0.1,2.8,0.4,5.6-0.3,8c-3.7-0.2-7.1-0.4-10.5-0.7c-5.2-0.3-10.5-0.7-15.7-1c-0.6,0-1.2-0.6-1.8-0.6
		c-2-0.2-4.1-1.5-5.7,0.7c-6.9-2.7-10.8-8.1-14.3-14.6c4.1-0.5,7.8-0.9,11.4-1.5c0.7-0.1,1.4-0.7,2.1-1c2.8-1.2,1.6-3.5,1.7-4.8
		c-1.4-1.8-2.4-3.2-3.4-4.5c-5,0.5-9.7,0.9-14.6,1.4c-2.1-5.1-2.8-10.3-3.8-15.2c-0.6-3.2-1.8-5.8-4.3-7.3c-2.4-1.5-3.9-3.3-4.9-5.8
		c0-1.2,0-2.4,0-3.5c0-1.3,0-2.6,0-3.7c2.2-1.5,2.2-1.5,5.2-1.7l0,0c-0.1,4.7,1.8,9,4.3,9.1c0.4-0.4,1-0.9,1.6-1.5c0-2,0-4,0-6
		c0-1.7-0.8-3.6-2.1-5.4c-1.8-2.4-2.8-5.7-6.8-6.1c-0.5-3.2-1-6.2-1.5-9.4c1.2-0.4,2.1-0.7,3-1c1.3-1.4,0.1-2.4-0.6-3.4
		C58.9,161.9,58.6,158.2,60.1,154.5z M152,78.5c-3.5,2.9-7,5.8-8.6,9.9c1.2,4.3,1.2,4.3-0.8,8c-4.8-0.6-6.2,2.8-7.3,6.4
		c0.7,3.7,3.5,5.3,5.7,7.6c1.5-1.4,2.8-2.6,4.2-3.9c0-2-0.1-4,0.1-6c0.1-1.1,0.8-2.1,1.2-3.1c3.3-0.7,4.5-3.2,4.7-6
		c0.2-2.7,1.3-4.6,3-6.5c2.8-3.1,5.5-6.4,8.2-9.6c-1.9-1.8-1.9-1.8-4.5-1.7C155.7,75.4,153.8,76.9,152,78.5z M129.1,185.5
		c-0.4-0.3-0.9-0.5-1.2-0.8c-5.8-4.7-13.8-4.5-18.8,0.7c-2.6,2.7-4.6,6-5.7,9.7c-3.3,11.3,2,24.1,12.7,25.4c0.1,0.5,0.1,1,0.2,1.6
		c2.6,0.8,5.2,2.1,7.8,2.2c7.5,0.3,13.2-2.9,17.1-9.3c4-6.6,3.8-13.5,0.6-20C139.3,190.1,135.5,185.8,129.1,185.5z M130.4,177.3
		c3.8-2.7,4.2-6.1,3.4-11c-0.6-0.7-1.8-2-3.2-3.4c-2.8,0.9-4.9,1.6-7.3,2.4c-0.5,2.6-1,4.9-1.4,6.8
		C124.1,175.6,126.5,177.6,130.4,177.3z M114.5,180.5c2.9-0.7,2.9-2.5,2.4-4.1c-1.9-3.3-4.6-4.3-7.5-4.8c-5.1,1.8-7.5,3.9-8.2,7.1
		c-0.4,1.7,0.2,2.9,2.1,3.7c1.9-1.7,3.9-3.5,6.1-5.4C111.4,178.4,113,179.5,114.5,180.5z M87.1,159.6c1.4-0.1,3.1-0.2,4.4-0.3
		c4.9-5.2,4.8-8.2,0-12.7c-1.6,0-3.2,0-4.7,0C81.7,151.5,81.8,155,87.1,159.6z M167,213.2c0.2-5.5-1.1-7-7.3-8.7
		c-0.7,0.3-1.6,0.7-2.5,0.9c-3.3,1-4.7,3.4-4.9,6.6c0,0.4,0.4,0.9,0.6,1.4c0.8,0.1,1.6,0.1,3,0.2c0.7-1,1.5-2.2,2.1-3.1
		c1.7,0,2.6,0,3.7,0c0.9,1,1.7,2,2.7,3C165.1,213.4,165.9,213.3,167,213.2z"/>
	<path class="st3" d="M87.1,251.6c1.7-2.2,3.8-0.9,5.7-0.7c0.6,0,1.2,0.6,1.8,0.6c5.2,0.4,10.5,0.7,15.7,1c3.4,0.2,6.8,0.4,10.5,0.7
		c0.6-2.5,0.2-5.3,0.3-8c0.3-8,4-13.9,11-17.6c4.5-2.3,9.3-3.4,14.3-4.2c3.3-0.5,6.5-0.7,9.7-0.8c2,0,4,0,6,0c0,0.3,0.1,0.6,0.1,0.8
		c-2.4,0.4-4.8,0.9-7.3,1.1c-7.2,0.7-13.7,3.2-19.4,7.5c-5.4,4-8.1,9.7-7.2,16.4c0.4,3.1,1.9,6.1,2.8,8.8c2.6,0.9,4.3,0.6,5.1-1.6
		c4.2,0.1,8.5,0.7,12.7,0.8c14.7,0.5,29.5,0.2,44.2,0.2c1,0,2,0,2.4-1.2c0.7,0.7,1.4,1.3,2.1,2c1.2-0.7,3-0.7,2.6-2.8
		c0.2-2.4,0.3-4.7,0.5-7.1c0.4,2,0.7,4,1.1,6.1c1.2,0,2.4,0,3.5,0c2.9-0.3,5.8-0.6,8.7-0.9c2.7-0.3,5.4,0,8.3-0.8
		c2.9-0.8,6.1-0.6,9.2-1.1c8.7-1.4,17.1-3.7,24.7-8.1c1.5-0.9,2.8-2.2,4.2-3.3c-1.3-2.8-2.5-5.4-3.7-8c-4.4,1.3-9.2,3-14.1,4.1
		c-3,0.6-6.3,0-9.5,0.2c-6.3,0.4-12.3-0.8-18.2-3c-4.7-1.8-8.8-4.3-12.1-8.1c-0.4-0.4-0.4-1.2-0.7-1.8c1.9,0.9,3.7,1.9,5.7,2.7
		c3,1.2,6,2.6,9.4,2.1c0.5,0.3,1,0.8,1.5,0.9c4.1,0.5,8.2-0.2,12.1-1.4c3.3-1,7-1.6,9.5-4.4c0.6-0.2,1.3-0.3,1.8-0.6
		c7.5-4.6,11.9-11.7,15-19.6c2.5-6.1,2.9-12.6,1.8-19c-1.6-10.4-6.7-19.1-15.1-25.7c-5.8-4.5-12.4-7.2-19.8-7.4
		c-2.3-0.1-4.6-0.1-7-0.1c0.3-0.7,0.7-1.3,1-2c0.3-0.3,0.6-0.6,0.9-0.9c1-0.1,2,0,2.9-0.4c4.8-1.9,9.9-2,14.8-2.3
		c4.4-0.3,8.9,1.4,13.3,2.2c4,0.7,7.6,2.7,11.4,4.9c0.9-1.3,2-2.4,2.4-3.7c1.8-5.5,3.3-11,3.5-17.1c0.3-10.7-2.4-20.6-7.3-29.9
		c-2-3.9-5.1-7.2-7.5-10.8c-3-4.6-7.7-7.6-11.5-11.4c-0.9-0.9-2-1.6-3-2.4c0.9-0.1,1.9-0.1,3.1-0.2c-0.1-1-0.1-1.8-0.2-2.9
		c-2.7-0.3-5.2-0.5-7.7-0.8c0-1.6-0.4-3.5,0.2-4.7c1.5-2.9,0.1-4.9-1.4-7c-0.6-0.9-1.2-1.8-1.8-2.7c4.9,0.1,9.1,2.6,13.4,4.5
		c4.8,2.2,9.3,4.9,13.7,7.8c4.3,3,8.3,6.5,12.4,9.8c7.1,5.8,12.8,12.9,17.5,20.6c5.5,9.1,9.5,18.9,11.2,29.6
		c1.2,7.3,1.2,14.6,0.6,21.8c-0.6,8.1-2.3,16.1-5.1,23.9c-4.1,0.8-5.8,4.1-7.6,7c0,1.8,0,3.4,0,5.3c3.6-0.5,3.6-3.8,5.3-5.8
		c0.9-0.4,1.9-0.9,2.7-1.3c2.2,0.4,3.8,1.2,4.4,3.1c0.8,2.5,1.9,4.9,1.1,7.6c-1.6,5.5-4.7,9.7-10.3,12.1c-2.1,7.6-4.3,15.2-6.5,23.1
		c-5.2,0.4-10.3,0.9-15.4,1.1c-2.6,0.1-4.9,0.6-6.7,3c0.4,0.9,0.8,1.9,1.3,3c5.6,0,11.1,0,16.8,0c-3.3,6.5-8.4,10.7-14.3,14.1
		c-5.2,3-10.8,4.5-16.5,5.9c-4.8,1.1-9.6,1.9-14.6,2.2c-5.1,0.3-10.1,1.4-15.1,1.7c-4.3,0.3-8.7-0.1-13,0.2
		c-23.9,2-47.9,0.6-71.8,0.8c-7.6,0.1-15.3-0.2-22.8-1.1c-5.5-0.6-11.2-0.6-16.4-2.8C92.1,254.4,89.6,252.9,87.1,251.6z"/>
	<path class="st4" d="M216.2,53.5c-3.9,5.2-3.9,5.2-10.8,8.9c-3.1,0-6.4-0.1-9.7,0c-3.1,0.2-6.1,0.7-9.2,0.9
		c-3.2,0.2-6.5-0.5-9.5,0.2c-7.7,1.8-15.9,1.2-23.2,4.7c-10.9,1.6-20.6,6.6-30.2,11.6c-6.2,3.2-12.1,7-17.2,11.9
		c-2.4,2.3-5.1,4.2-7.4,6.5c-6.3,6.1-11.2,13.2-15.6,20.7c-0.7,1.3-1.7,2.4-2.6,3.5c-1.1,1.4-2.4,2.7-3.6,4.1
		c-4.5-0.9-9-1.9-13.8-2.9c3.8-9.9,8.7-18.7,14.9-26.8c14.5-18.6,33.1-31.7,55.4-39.4c6.8-2.3,13.8-4.3,20.9-5.8
		c6.1-1.3,12.5-1.6,18.7-2.3c4.7,0,9.3,0,14,0c9.2,0.4,18.2,1.9,27.3,3.3C215.1,52.7,215.6,53.2,216.2,53.5z"/>
	<path class="st5" d="M179.1,317.8c2-0.5,4-0.9,5.6-1.3c0.9-1.6,1.4-2.6,2-3.8c6.8-0.3,11.3-3.6,13.6-11c1.1-6.5-4-13.6-10.8-15.5
		c-1.5-6.7-4.3-12.3-12.5-13.1c-0.5-2.4-1-4.7-1.5-7.4c1.2-0.1,2.5-0.2,3.8-0.2c6,0,12,0.1,18-0.1c4.1-0.1,8.2-0.7,12.3-1.1
		c8.7,10.4,14.2,22.5,19.6,34.7c3.4,1.1,7.3,1.1,9.9,3.9c0.2,0.2,0.1,0.9,0.1,1.7c-2.2-0.7-4.2-1.4-6.6-2.2c-0.4,0.4-1,0.9-1.7,1.6
		c3,4.5,6.6,8.5,5.1,14.3c-0.6,0.1-1.3,0.3-2.3,0.5c-2.2-4.1-4.3-8.2-6.7-12.7c-1.5,0.7-2.6,1.2-3.7,1.7c1.1,4.8,3.3,8.8,3.9,13.3
		c-2.3,1.2-3.3,0.2-3.9-1.6c-1-2.6-2.1-5.1-2.9-7.8c-2.7-8.4-6.4-16.4-11.1-23.9c-0.7-1.2-1.7-2.2-2.5-3.2c-2.7,0.7-2.9,2.4-2.4,4
		c2,7.7,2.4,15.5,3.1,23.3c1.5,16.3,0.3,32.5,0.8,48.8c0,0.8,0,1.6,0,2c2,3.4,5.2,1.2,7.6,2.6c2.2,1.3,4.8,1.8,7.2,3.2
		c-6.6,0-13.2,0-19.8,0c-0.3-5-0.7-10.1-0.9-15.1c-0.2-5.9,0.6-11.8-1.4-17.6c-1-1-2-2.1-3.3-3.5c-1.1,0.4-2.2,0.8-3.3,1.1
		c-9.8,0-19.6,0-29.7,0c-0.6,1.2-1.1,2.3-1.7,3.5c1.7,1.2,3,2.1,4,2.8c-0.6,9.7-1.1,19-1.7,28.8c-2.4,0-4.7,0-6.9,0
		c0-10.1,0-20.2,0-30.3c0-3.4,0.9-6.7,2.4-9.4c3.4-1.7,6.7-2.5,10.2-2.3c3.1,0.2,6.3,0,9.4,0c5.2,0,10.3,0,15.4,0
		c3.8-2.7,3.9-6.8,4.6-11.3c-4,0.5-7.3,0.9-9.9,1.2c-1.6,1.9-2.6,3.1-3.4,4c-2.4,0-4.4,0-6.6,0C179.9,319.5,179.5,318.7,179.1,317.8
		z"/>
	<path class="st6" d="M180.2,326.5c-3.1,0-6.3,0.2-9.4,0c-3.5-0.2-6.8,0.6-10.2,2.3c-1.5,2.8-2.4,6-2.4,9.4c0,10.1,0,20.2,0,30.3
		c-6.8,0-13.6,0-20.8,0c4.5-4.2,10.6-3.3,15.7-6.1c0-1.8,0.1-3.6,0.1-5.3c0-14,0.1-28,0-42c-0.1-7.8,1.3-15.5,2.2-23.2
		c0-0.3,0.4-0.5,0.6-0.7c0,6.9,3.6,11.6,8.9,15c0.2,1.2,0.2,2.2,0.6,3.1c2.2,5.1,6,8.9,10.7,11.8c1.5,0.9,2.8,2,3.9,2.8
		C180.2,325.2,180.2,325.8,180.2,326.5z"/>
	<path class="st7" d="M180.2,326.5c0-0.7,0-1.3,0-2.6c-1.1-0.8-2.5-1.9-3.9-2.8c-4.7-3-8.5-6.7-10.7-11.8c-0.4-0.9-0.4-1.9-0.6-3.1
		c-5.3-3.4-8.9-8.1-8.9-15c0-1.7,0-3.5,0-5.7c-0.8-0.3-1.8-0.6-2.7-0.9c-0.7-0.4-1.4-0.8-2.2-1.1c0-0.6,0-1.3,0-1.9
		c2.3-1.4,3.6-3.5,4-6.1c1-0.3,2-0.7,3-1c1.1,3.9,4.5,5.4,7.9,7.1c-1.4,2.4-3.1,4.5-3.8,6.9c-0.6,2.5-0.1,5.3-0.1,7.9
		c1.6,5.4,5.6,7.9,10.7,9.5c0.1,1.9,0.2,3.9,0.3,6.2c1.9,1.8,3.9,3.7,5.9,5.7c0.4,0.9,0.8,1.7,1.2,2.6c2.2,0,4.2,0,6.6,0
		c0.8-1,1.9-2.2,3.4-4c2.6-0.3,5.9-0.7,9.9-1.2c-0.7,4.6-0.8,8.6-4.6,11.3C190.5,326.5,185.3,326.5,180.2,326.5z"/>
	<path class="st8" d="M184.2,293.6c0.5,0,1-0.1,1.5-0.1c0.7-1.3,1.4-2.5,2.2-3.8c6.9,1.6,8.8,5,8.3,13.7c-3.2,5-4.6,5.9-9.8,5.7
		c-1.4-2.2-2.8-4.5-4.1-6.7c-3.3,0-6.1,0.1-8.9,0c-0.7,0-1.4-0.5-2.1-0.8c-0.3-1-0.6-2-0.8-3c0.6-0.1,1.2-0.1,1.8-0.2
		c1.7-0.1,3.7,0.6,4.9-1.4c0-1.7,0-3.4,0-5.3c-0.8-0.1-1.5,0-2-0.3c-1-0.5-1.9-1.2-2.8-1.9c-1.3-1.4-2.6-2.7-3.9-4.1
		c0.4-1.6,0.8-3.2,1.2-5c1.5-0.4,3.1-0.8,4.7-1.2c3.3-0.1,6.3,0.5,8.7,3c0.2,0.3,0.9,0.1,1.4,0.1l0,0c0.2,3.7,0.1,7.4-1.9,10.9
		C183.2,293.5,183.7,293.5,184.2,293.6z"/>
	<path class="st9" d="M151.1,281.6c0,0.6,0,1.3,0,1.9c-1,1-2.3,1.9-2.9,3.1c-3.4,6.5-6.7,13.2-10,19.8c-0.8,0.1-1.6,0.2-2.6,0.3
		c-2.2,4.3-4.3,8.5-6.6,13.1c-1.1-0.7-1.9-1.2-2.5-1.6c-1.2-5.6,1.9-9.4,4.8-13.5c-0.3-0.6-0.7-1.3-1-1.9c-2.8-0.4-4.8,3-7.9,1.3
		c2.2-4.9,7.7-3.7,11.5-6.4c3.4-10.1,8.4-19.9,14.5-29.1l0.5-0.1l0.5,0c0.3,1.7,0.6,3.3,0.9,5l0,0c-2.6-0.1-3,2.1-3.9,4.1
		c0.6,1.2,1.2,2.5,1.8,3.8C149.2,281.4,150.2,281.5,151.1,281.6z"/>
	<path class="st9" d="M62.2,189.3c-2.9,0.2-2.9,0.2-5.2,1.7c0,1.1,0,2.4,0,3.7c0,1.2,0,2.3,0,3.5c1,2.5,2.4,4.3,4.9,5.8
		c2.5,1.5,3.7,4.1,4.3,7.3c0.9,5,1.7,10.1,3.8,15.2c4.9-0.5,9.6-0.9,14.6-1.4c1,1.3,2,2.6,3.4,4.5c-0.1,1.2,1,3.6-1.7,4.8
		c-0.2-1.2-0.4-2.5-0.7-4.2c-5.4,0.4-10.3,0.7-15.3,1.1c-2.5-3.6-3.3-7.8-4.5-11.9c-1.2-3.9-2-7.9-2.9-12c-1.4-0.9-2.8-1.8-4.2-2.7
		c-7-4.5-8-13.9-2-20c0.8,0,1.8,0,3,0C61.2,185.6,62.5,187,62.2,189.3z"/>
	<path class="st5" d="M138.1,306.4c3.3-6.6,6.6-13.2,10-19.8c0.6-1.2,1.9-2.1,2.9-3.1c0.7,0.4,1.4,0.8,2.2,1.1
		c-5.5,12.5-9.5,25.7-15.7,38.9c-1.7-4-1.7-4,1.5-15C138.8,307.9,138.5,307.1,138.1,306.4z"/>
	<path class="st10" d="M70.2,131.3c-2.2,3.9-4.3,7.8-5.2,12.3c2.8,1.7,5.5,3.4,8.3,5.1c-0.7,2.2,0.8,4.2-1.2,5.8
		c-1.4-3.3-4.6-4-7.5-5c-2.2-0.7-4.3-1.2-6.7-1.9c0.3-6.5,1.8-12.3,3.7-18.5C64.6,129.9,67.4,130.6,70.2,131.3z"/>
	<path class="st7" d="M194.3,333.4c1.1-0.4,2.2-0.8,3.3-1.1c1.3,1.4,2.3,2.5,3.3,3.5c1.9,5.8,1.1,11.7,1.4,17.6
		c0.2,5,0.6,10.1,0.9,15.1c-0.7,0-1.3,0-2,0c-0.7-0.9-1.3-1.9-2-2.8c0-3.5,0-7,0-10.5c0-2.1,0-4.2-1-6.2c-1-2-1.1-4.1-1-6.2
		c0-2.2,0-4.3,0-6.5C196.2,335.4,195.2,334.4,194.3,333.4z"/>
	<path class="st9" d="M197.1,336.4c0,2.2,0.1,4.3,0,6.5c0,2.1,0,4.2,1,6.2c1,2,1.1,4.1,1,6.2c-0.1,3.5,0,7,0,10.5
		c0.7,0.9,1.3,1.9,2,2.8c-1.5,0-2.9,0-4.5,0c-0.6-9.9-1.2-19.6-1.9-30.3C195,338,196.1,337.2,197.1,336.4z"/>
	<path class="st10" d="M172.1,298.5c-0.6,0.1-1.2,0.1-1.8,0.2c-0.9-0.1-1.9-0.4-2.3,1c-3.1-3.4-3.1-3.4-2.9-10.6
		c0.8-0.9,1.9-2.2,3.1-3.5c1.3,1.4,2.6,2.7,3.9,4.1C172.1,292.5,172.1,295.5,172.1,298.5z"/>
	<path class="st8" d="M170.1,276.4c-2.3,1.4-4.6,2-7,0.2c-0.2-2.1,0.7-3.8,1.9-5.4c0.5-0.8,0.8-1.7,1.2-2.6c0.2-0.1,0.5-0.2,0.8-0.2
		c2.1-0.1,3.1,1.4,3.9,2.6C170.6,273,170.3,274.7,170.1,276.4z"/>
	<path class="st11" d="M177.3,313.3c-0.8-1.7-1.6-3.3-2.4-5c2.6-1.6,2.6-1.6,5.6-1.8c0.8,0.7,1.8,1.6,2.6,2.4c0,1.5,0,2.8,0,4.4
		C181.3,313.3,179.7,313.3,177.3,313.3z"/>
	<path class="st9" d="M65.9,185.5c1.3,1.8,2.1,3.7,2.1,5.4c0,2,0,3.9,0,6c-0.6,0.6-1.2,1.1-1.6,1.5c-2.5,0-4.4-4.4-4.3-9.1
		c1.1,0.5,2.1,1,3.7,1.7C65.9,188.7,65.9,187.1,65.9,185.5z"/>
	<path class="st12" d="M170.1,276.4c0.3-1.7,0.5-3.4,0.8-5.4c-0.8-1.2-1.8-2.6-3.9-2.6c0.1-0.5,0.3-0.9,0.4-1.4
		c2.7-1.2,4.3,0.2,5.8,2.3c0,1.9,0,3.8,0,5.9C172.1,275.6,171.1,276,170.1,276.4z"/>
	<path class="st13" d="M158.1,274.5c-1,0.3-2,0.7-3,1c-0.6-1.9-1.2-3.7-1.8-5.9c1.7-0.4,3.6-0.8,6.1-1.4
		C158.9,270.9,158.5,272.7,158.1,274.5z"/>
	<path class="st9" d="M60.1,154.5c-1.4,3.7-1.2,7.4-0.1,11.2c-0.8,0-1.6-0.1-2.7-0.2c0-3.9,0-7.7,0-11.7
		C58.4,153.3,59.3,153.2,60.1,154.5z"/>
	<path class="st12" d="M184.2,282.5c-0.5,0-1.2,0.2-1.4-0.1c-2.4-2.5-5.4-3.1-8.7-3c0.8-1,1.7-1.9,2.4-2.8c1.2,0,2.1,0,3.2,0
		C181.3,278.6,184.1,279.5,184.2,282.5z"/>
	<path class="st14" d="M166.2,268.6c-0.4,0.9-0.7,1.8-1.2,2.6c-1.1,1.6-2.1,3.3-1.9,5.4c-0.6-0.9-1.3-1.7-1.9-2.6
		C162.3,271.4,162.7,268.6,166.2,268.6z"/>
	<path class="st15" d="M187.2,49.3c-4.7,0-9.3,0-14,0c0.3-0.3,0.6-0.9,0.9-0.9c4-0.1,8.1-0.1,12.1,0C186.5,48.4,186.9,49,187.2,49.3
		z"/>
	<path class="st12" d="M184.2,293.6c-0.5,0-1-0.1-1.9-0.2c2-3.5,2.1-7.2,1.9-10.9c1.9,2.4,1,5.1,0.7,7.8
		C184.7,291.4,184.4,292.5,184.2,293.6z"/>
	<path class="st16" d="M150.1,273.5c0.5,0.1,1,0.2,1.5,0.3c0.6,3.3,0.6,3.3-2.4,4.8C149.5,276.7,149.8,275.1,150.1,273.5
		L150.1,273.5z"/>
	<path class="st17" d="M159.1,266.5c-2.6,0-5.2,0-7.8,0c0-0.3,0-0.6,0-0.9c2.6,0,5.2,0,7.8,0C159.2,265.9,159.2,266.2,159.1,266.5z"
		/>
	<path class="st14" d="M168.1,299.6c0.3-1.3,1.3-1.1,2.3-1c0.3,1,0.6,2,0.8,3C170.1,301,169.1,300.3,168.1,299.6z"/>
	<path class="st18" d="M149.1,268.5l-0.5,0c0,0-0.5,0.1-0.5,0.1c0.5-0.6,1-1.3,1.4-1.9c0.2,0.2,0.4,0.3,0.6,0.5
		C149.9,267.6,149.5,268.1,149.1,268.5z"/>
	<path class="st18" d="M159.1,266.5c0-0.3,0-0.6,0-0.9c0.9,0,1.9,0.1,2.8,0.1c0,0.3,0,0.5,0,0.8C161,266.5,160.1,266.5,159.1,266.5z
		"/>
	<path class="st18" d="M146.3,318.2c0-0.7,0-1.5,0-2.2c0.2,0,0.3,0,0.5,0c0.1,0.7,0.3,1.5,0.4,2.2
		C146.9,318.1,146.6,318.1,146.3,318.2z"/>
	<path class="st19" d="M116.1,220.6c-10.7-1.4-16.1-14.2-12.7-25.4c1.1-3.7,3.1-7,5.7-9.7c5.1-5.3,13-5.5,18.8-0.7
		c0.4,0.3,0.8,0.5,1.2,0.8c2.9,3.7,4.7,7.9,4.9,12.6C134.5,207.1,129.3,219.3,116.1,220.6z M128,203.8c0.5-6.8,0.6-13.1-6.8-16.3
		c-1.6,0-3.3,0-5,0c-7.9,4.2-8.6,11.4-7.8,19.1c0.7,1.4,1.2,2.8,2,4.1c1.6,2.5,5.7,4.4,8.2,3.5c2.7-0.9,5.2-2.2,6.6-4.9
		C126.1,207.4,127.1,205.5,128,203.8z"/>
	<path class="st20" d="M233.4,72.6c2.5,0.3,5,0.5,7.7,0.8c0.1,1.1,0.1,1.9,0.2,2.9c-1.2,0.1-2.2,0.1-3.1,0.2l-0.4-0.1l-0.4,0
		c-0.7-1.3-1.4-1-2.1,0.1l0,0c-1.5,0.2-3.1,0.5-4.7,0.8c-1.1,1.2-2.2,2.6-3.5,3.9c-2.5,0.6-4.9,1.1-7.7,1.8
		c-1.8,2.3-4.4,4.8-2.4,8.7c1.4,7.2-0.3,13.5-5.9,18.3c-1.6,1.4-3.6,2.3-5.3,3.5c-2.6,0-5.1,0-7.7,0c-1.4-1.3-2.8-2.7-4.2-4
		c-0.5-1.9-0.9-3.6-1.3-5.4c1.2-9.4,5.6-16,15.9-17.5c1.2,0.3,2.6,0.7,4.1,1.2c1.9-2.9,3.7-5.8,5.8-9.1c0.1-0.6,0.2-1.7,0.5-3.4
		c1.1-1.2,2.5-2.7,3.5-3.8c2.4,0,4.1,0,6.1,0c0.8,0.6,1.8,1.3,3.1,2.2C232,73.3,232.7,73,233.4,72.6z M223.2,75.4
		c-0.7,0.7-1.4,1.4-2.3,2.3c1.1,0.3,1,2.3,2.4,0.9c0.8-0.1,1.6-0.2,2.5-0.3c0.4-0.9,0.9-1.8,1.2-2.7
		C225.6,74.1,224.4,73.8,223.2,75.4z M203.1,92.3c-4,1.2-5,4.7-6,8.1c-1.8,2-0.5,4.3-0.9,6.6c1.3,1.2,2.5,2.4,3.7,3.6
		c7-0.7,10.8-5,13.1-10.6c0-2.7,0-4.9,0-7C208.6,89.8,208.6,89.8,203.1,92.3z"/>
	<path class="st3" d="M116.1,220.6c13.2-1.3,18.4-13.5,18-22.5c-0.2-4.7-2-8.9-4.9-12.6c6.4,0.3,10.2,4.6,12.7,9.6
		c3.3,6.5,3.5,13.4-0.6,20c-3.9,6.4-9.7,9.7-17.1,9.3c-2.6-0.1-5.2-1.5-7.8-2.2C116.2,221.6,116.1,221.1,116.1,220.6z"/>
	<path class="st10" d="M205.2,253.5c-1.1,0-2.3,0-3.5,0c-0.4-2.1-0.7-4.1-1.1-6.1c-0.1-0.6-0.3-1.3-0.4-1.9c-1.2-5.6-4.5-9.7-9-13
		c-7.7-5.7-16.7-8.1-26-9.3c-1-0.2-2-0.5-3-0.7c-2,0-4,0-6,0c0.1-0.2,0.1-0.5,0.2-0.5c4.6-0.3,9-3.1,13.7-0.6
		c5.2-0.4,9.9,1.4,14.6,3c7.1,2.5,13.2,6.4,17.2,13.1c2,3.4,3.4,6.9,3.4,10.9C205.2,250.2,205.2,251.8,205.2,253.5z"/>
	<path class="st21" d="M146.4,97.4c-0.4,1-1.1,2-1.2,3.1c-0.2,2-0.1,4-0.1,6c-1.4,1.3-2.7,2.5-4.2,3.9c-2.2-2.3-5-3.9-5.7-7.6
		c1.1-3.5,2.5-7,7.3-6.4c2-3.7,2-3.7,0.8-8c1.6-4.2,5.1-7.1,8.6-9.9c0.5,1.7,0.3,3.1-0.9,4.5c-1.5,1.7-2.7,3.6-4.2,5.6
		C148.9,91.7,147.6,94.6,146.4,97.4z M139.9,105c1-1.5,1.7-2.6,2.4-3.7c-0.7-0.7-1.2-1.2-1.7-1.6C138.6,101.1,138.6,102.7,139.9,105
		z"/>
	<path class="st19" d="M219.1,147.5c-0.3,0.3-0.6,0.6-0.9,0.9c-2.7,0.8-3.7-1.8-5.4-2.7c-4-1.5-6.2,1-8.3,3.9
		c-1.3-0.1-2.5-0.1-4-0.2c0-1.5-0.4-3,0.1-4c2-3.8,4.9-6.7,9.5-6.7c4.9,0,8.4,2.3,10,7C219.7,146.3,219.4,146.9,219.1,147.5z"/>
	<path class="st21" d="M130.4,177.3c-3.8,0.3-6.3-1.7-8.4-5.3c0.4-1.9,0.9-4.2,1.4-6.8c2.4-0.8,4.5-1.5,7.3-2.4
		c1.3,1.4,2.6,2.8,3.2,3.4C134.6,171.1,134.2,174.6,130.4,177.3z M126.5,167.5c-0.5,1.8-2.1,3-0.8,4.7c0.9,0.4,1.8,0.8,2.9,1.3
		c1-1.2,1.8-2.3,2.8-3.5c-0.8-1-1.3-1.8-1.8-2.4C128.6,167.5,127.8,167.5,126.5,167.5z"/>
	<path class="st10" d="M146.4,97.4c1.2-2.8,2.5-5.7,0.5-8.8c1.4-2,2.7-3.8,4.2-5.6c1.2-1.4,1.4-2.9,0.9-4.5c1.9-1.6,3.8-3.1,5.8-4.8
		c2.6-0.1,2.6-0.1,4.5,1.7c-2.7,3.2-5.4,6.5-8.2,9.6c-1.7,1.9-2.8,3.8-3,6.5C150.9,94.3,149.7,96.8,146.4,97.4z"/>
	<path class="st21" d="M114.5,180.5c-1.5-1.1-3-2.2-5-3.5c-2.1,1.9-4.1,3.7-6.1,5.4c-2-0.8-2.5-2-2.1-3.7c0.7-3.2,3.1-5.3,8.2-7.1
		c2.9,0.6,5.6,1.5,7.5,4.8C117.4,178,117.3,179.8,114.5,180.5z"/>
	<path class="st20" d="M87.1,159.6c-5.3-4.5-5.4-8.1-0.3-13c1.4,0,3.1,0,4.7,0c4.9,4.6,4.9,7.5,0,12.7
		C90.2,159.4,88.5,159.5,87.1,159.6z M88.6,149.7c-2.2,1.3-3.1,2.9-2.1,5.4c1.7,0.8,3.2,0.7,4.4-1c0-1,0-2.1,0-3.1
		C89.9,150.4,89.2,150.1,88.6,149.7z"/>
	<path class="st20" d="M167,213.2c-1.1,0.1-1.9,0.2-2.7,0.2c-0.9-1-1.8-2-2.7-3c-1,0-2,0-3.7,0c-0.6,0.8-1.4,2.1-2.1,3.1
		c-1.4-0.1-2.2-0.1-3-0.2c-0.2-0.5-0.6-1-0.6-1.4c0.2-3.2,1.6-5.6,4.9-6.6c0.9-0.3,1.8-0.7,2.5-0.9
		C165.8,206.2,167.1,207.7,167,213.2z"/>
	<path class="st9" d="M216.9,91.6c-2-3.9,0.6-6.4,2.4-8.7c2.8-0.6,5.2-1.2,7.7-1.8c1.2-1.4,2.4-2.7,3.5-3.9c1.6-0.3,3.1-0.5,4.7-0.8
		c0,0.7,0,1.3,0,1.9c-1,2.4-3.1,3.2-5.2,4.1c-2.4,1-4.8,1.8-7,3.1c-1.5,0.9-2.5,2.5-3.8,3.8C218.5,90.1,217.7,90.8,216.9,91.6z"/>
	<path class="st9" d="M235.3,76.4c0.7-1.1,1.3-1.3,2.1-0.1C236.6,76.4,236,76.4,235.3,76.4z"/>
	<path class="st22" d="M165.2,223.2c9.3,1.2,18.3,3.6,26,9.3c4.5,3.3,7.8,7.4,9,13c-1.3,2.9-1.3,5.9,0,9c0.4,2.1-1.4,2.1-2.6,2.8
		c-0.7-0.7-1.4-1.3-2.1-2c-0.9-1.6-2.4-0.9-3.6-0.9c-11.1,0-22.3,0-33.4,0c-6.7,0-13.3,0-20,0c-0.9,0-2.1-0.5-2.3,1.1
		c-0.8,2.2-2.4,2.5-5.1,1.6c-0.9-2.7-2.5-5.7-2.8-8.8c-0.8-6.7,1.9-12.4,7.2-16.4c5.7-4.3,12.3-6.8,19.4-7.5
		c2.4-0.2,4.9-0.7,7.3-1.1C163.2,223.3,164.2,223.3,165.2,223.2z M181.5,233.3c-7.3-3.3-14.3-5.4-22.4-3.3c1.3,4.2,0.7,8.7,3.4,12.2
		c8.4,0.8,14,0.6,17.6-0.8C180.5,238.8,181,236.1,181.5,233.3z M154.8,245c-2.9-2.1-5.8-1.8-8.4,0c-1.5,1-1.8,2.7-0.6,4.3
		c3.1,0,6.1,0,9,0c0.4,0,0.8-0.4,1.2-0.6C155.5,247.4,155.1,246.2,154.8,245z M185.8,244.5c-3.2,0.4-6.1,0.7-8.9,1.3
		c-1.3,0.3-2.3,1.4-1.2,3.5c3.9-0.3,8.1,0.8,12.7-0.7C187.3,247,186.6,245.8,185.8,244.5z"/>
	<path class="st23" d="M136.2,255.5c0.2-1.6,1.4-1.1,2.3-1.1c6.7,0,13.3,0,20,0c11.1,0,22.3,0,33.4,0c1.2,0,2.7-0.7,3.6,0.9
		c-0.4,1.2-1.4,1.2-2.4,1.2c-14.7,0-29.5,0.3-44.2-0.2C144.7,256.2,140.4,255.6,136.2,255.5z"/>
	<path class="st24" d="M200.1,254.5c-1.3-3-1.2-6.1,0-9c0.1,0.6,0.3,1.3,0.4,1.9C200.4,249.8,200.2,252.1,200.1,254.5z"/>
	<path class="st25" d="M165.2,223.2c-1,0-1.9,0.1-2.9,0.1c-0.1-0.3-0.1-0.5-0.1-0.8C163.1,222.8,164.1,223,165.2,223.2z"/>
	<path class="st14" d="M172.1,298.5c0-3,0-5.9,0.1-8.9c0.9,0.6,1.8,1.3,2.8,1.9c0.5,0.3,1.2,0.2,2,0.3c0,1.9,0,3.6,0,5.3
		C175.8,299.1,173.8,298.4,172.1,298.5z"/>
	<path class="st26" d="M237,215.4c2.2-5,2.7-10.1,0.4-15.3c-2.4-5.4-8.9-10.1-14.5-9.5c-7.8,0.8-12.2,4.3-14.4,10.9
		c-2.4,7.2-0.1,13.2,5.7,18c-0.3,0.4-0.7,0.7-1,1.1c-12.8-4-20.3-13.1-22.5-25.9c-3.1-18.2,7.1-33.7,24.2-37.9
		c8.4-2.1,16.7-0.4,24.2,4.7c8.5,5.8,12.7,14.1,14.5,23.9c0,2.7,0,5.3,0,8c-0.8,2.7-1.5,5.3-2.3,8c-2.8,0.9-2.9,1-2.5,4.2l0,0.1
		c-1.8-0.1-2.4,1.4-3.2,2.6C243.1,211.4,240.8,214.3,237,215.4z"/>
	<path class="st25" d="M237,215.4c3.8-1.1,6.2-4,8.3-7.1c0.8-1.1,1.4-2.6,3.2-2.6c-0.8,4.2-3.9,6.7-6.7,9.4
		c-0.8,0.8-1.7,1.5-2.6,2.2c-2.1,1-4.2,2.1-6.3,3.1c-0.1-0.2-0.3-0.3-0.4-0.5C234,218.4,235.5,216.9,237,215.4z"/>
	<path class="st15" d="M259,183.5c-1.6-10.4-6.7-19.1-15.1-25.7c-5.8-4.5-12.4-7.2-19.8-7.4c-2.3-0.1-4.6-0.1-7-0.1
		c-1.6,0.3-3.3,0.4-4.8,0.8c-9,2.4-16,7.4-21.3,15.1c-6.4,9.3-8.4,19.8-6.4,30.6c2,10.8,8.2,19.6,17.4,25.9c1.9,0.9,3.7,1.9,5.7,2.7
		c3,1.2,6,2.6,9.4,2.1c0.5,0.3,1,0.8,1.5,0.9c4.1,0.5,8.2-0.2,12.1-1.4c3.3-1,7-1.6,9.5-4.4c0.6-0.2,1.3-0.3,1.8-0.6
		c7.5-4.6,11.9-11.7,15-19.6C259.6,196.3,260,189.8,259,183.5z M251.1,201.5c-0.8,1.4-1.7,2.8-2.5,4.2l0,0.1
		c-0.8,4.2-3.9,6.7-6.7,9.4c-0.8,0.8-1.7,1.5-2.6,2.2c-2.1,1-4.2,2.1-6.3,3.1c-0.1-0.2-0.3-0.3-0.4-0.5c1.5-1.5,3-3,4.5-4.5
		c2.2-5,2.7-10.1,0.4-15.3c-2.4-5.4-8.9-10.1-14.5-9.5c-7.8,0.8-12.2,4.3-14.4,10.9c-2.4,7.2-0.1,13.2,5.7,18
		c0.7,0.3,1.4,0.6,2.2,0.9c-0.9,1.9-2,1.4-3.2,0.2c-12.8-4-20.3-13.1-22.5-25.9c-3.1-18.2,7.1-33.7,24.2-37.9
		c8.4-2.1,16.7-0.4,24.2,4.7c8.5,5.8,12.7,14.1,14.5,23.9c0,2.7,0,5.3,0,8C252.6,196.1,251.8,198.8,251.1,201.5z"/>
	<path class="st25" d="M248.5,205.7c-0.3-3.2-0.3-3.3,2.5-4.2C250.2,202.9,249.4,204.3,248.5,205.7z"/>
	<path class="st3" d="M213.1,220.7c0.3-0.4,0.7-0.7,1-1.1c0.7,0.3,1.4,0.6,2.2,0.9C215.3,222.4,214.2,221.9,213.1,220.7z"/>
	<path class="st27" d="M128,203.8c-0.9,1.7-1.8,3.6-2.8,5.5c-1.4,2.7-4,4-6.6,4.9c-2.5,0.9-6.6-1-8.2-3.5c-0.8-1.2-1.3-2.7-2-4.1
		c-0.8-7.7-0.1-14.9,7.8-19.1c1.7,0,3.4,0,5,0C128.5,190.7,128.5,197,128,203.8z"/>
	<path class="st8" d="M203.1,92.3c5.5-2.5,5.5-2.5,9.9,0.6c0,2.1,0,4.4,0,7c-2.3,5.6-6.1,9.9-13.1,10.6c-1.3-1.2-2.4-2.3-3.7-3.6
		c0.4-2.2-0.9-4.5,0.9-6.6c0.1,0.9,0.2,1.9,0.3,2.9c1.2,0,2.2,0,3.8,0c1.1-1.9,2.6-3.9,3.7-6.2C205.7,95.2,205.5,93.2,203.1,92.3z"
		/>
	<path class="st14" d="M203.1,92.3c2.4,1,2.6,2.9,1.7,4.8c-1.1,2.3-2.6,4.4-3.7,6.2c-1.6,0-2.6,0-3.8,0c-0.1-1.1-0.2-2-0.3-2.9
		C198.1,97,199.1,93.5,203.1,92.3z"/>
	<path class="st16" d="M223.2,75.4c1.2-1.6,2.4-1.2,3.8,0.2c-0.4,0.8-0.8,1.7-1.2,2.7c-0.9,0.1-1.7,0.2-2.5,0.3
		C223.2,77.5,223.2,76.4,223.2,75.4z"/>
	<path class="st12" d="M223.2,75.4c0,1.1,0,2.1,0.1,3.2c-1.3,1.4-1.3-0.6-2.4-0.9C221.8,76.8,222.5,76.1,223.2,75.4z"/>
	<path class="st12" d="M139.9,105c-1.3-2.4-1.3-3.9,0.7-5.3c0.5,0.4,1,0.9,1.7,1.6C141.6,102.5,140.9,103.5,139.9,105z"/>
	<path class="st11" d="M126.5,167.5c1.3,0,2.1,0,3.1,0c0.5,0.7,1,1.4,1.8,2.4c-1,1.2-1.9,2.3-2.8,3.5c-1.1-0.5-2-0.9-2.9-1.3
		C124.3,170.5,126,169.3,126.5,167.5z"/>
	<path class="st11" d="M88.6,149.7c0.7,0.4,1.4,0.7,2.3,1.2c0,1,0,2.1,0,3.1c-1.2,1.8-2.7,1.8-4.4,1C85.5,152.6,86.4,151,88.6,149.7
		z"/>
	<path class="st27" d="M181.5,233.3c-0.5,2.8-1,5.5-1.4,8.1c-3.6,1.4-9.2,1.6-17.6,0.8c-2.7-3.5-2-8-3.4-12.2
		C167.1,227.9,174.2,230.1,181.5,233.3z"/>
	<path class="st28" d="M154.8,245c0.4,1.1,0.8,2.4,1.2,3.8c-0.4,0.2-0.8,0.6-1.2,0.6c-3,0-6,0-9,0c-1.1-1.7-0.9-3.3,0.6-4.3
		C149,243.3,151.9,242.9,154.8,245z"/>
	<path class="st28" d="M185.8,244.5c0.8,1.4,1.5,2.5,2.5,4.1c-4.6,1.5-8.8,0.4-12.7,0.7c-1-2.1-0.1-3.2,1.2-3.5
		C179.7,245.2,182.6,244.9,185.8,244.5z"/>
</g>
<g id="Layer_2">
	<path class="st29" d="M340,364.4c-1.5-2.5-4.3-6-9.9-7.6c-1.8-0.5-3.5-0.9-5.2-1.3c-1.1-0.3-2.3-0.5-3.4-0.8
		c-7.7-2.1-15.4-3.1-22.5-3.8c-3.4-0.4-6.7-0.7-10-1c-3.8-0.3-7.7-0.7-11.4-1.1c-3.4-0.4-6.8-0.6-10.1-0.7c-1.4-0.1-2.8-0.1-4.2-0.2
		c-9.8-0.6-19.6-0.8-29.1-1c-3.3-0.1-6.7-0.1-10-0.2c-0.2,0-0.5,0-0.7,0v-9.9c0.6,0.1,1.2,0.1,1.8,0.1c3.8,0,7-1.5,9.5-3.2h4
		l2.3-1.3c8.7-5,10.9-10.5,10.3-18.7c2.7-3.5,3.9-7.2,3.7-11c-0.3-4.6-2.6-8.8-6.9-12.4c-1.9-1.6-3.9-2.8-5.9-3.7
		c-0.7-0.3-1.3-0.5-2-0.7c-2-4.4-4.2-8.7-6.7-13.2c6.9-0.4,13.9-1.6,21.3-3.4c13-3.3,23-8.7,30.6-16.5c8.1-8.4,11.9-18.6,14.1-25.5
		c1.3-4.1,2.3-8.1,3.3-11.9c0.1-0.2,0.1-0.5,0.2-0.7c6.1-4,10.2-10.3,11.7-18c2.1-10.3-0.3-17.5-3.8-22.4c2-7.7,4-17.3,4.2-27.3
		c0.1-5.8-0.2-11.1-0.9-16.5c-1.3-9-3.8-17.5-7.7-26.3c-6.9-15.3-17.2-28.5-30.6-39.4c-13.8-11.2-29.7-19.3-48.6-24.7
		c-11-3.2-22.3-4.6-31.9-5.6c-4.6-0.5-9.4-0.7-14.2-0.7c-6.2,0-12.7,0.4-19.7,1.2c-8.8,1-17.5,2.8-25.9,5.3
		c-15.7,4.7-29.8,11.6-42,20.4c-8.9,6.4-16.3,13.1-22.7,20.4c-9.7,11.1-17.3,23.6-22.4,37.3c-5,13.5-7.6,28-7.6,43.2
		c0,1.8,0.9,10,1.5,15.5c-4.7,6.1-6.6,13.5-5.3,21.4c1.1,7.4,5.1,13.8,11.7,18.9c0.2,0.7,0.3,1.3,0.5,1.9
		c2.7,10.9,5.9,19.5,10.1,26.9c5.5,9.8,13.7,17.3,24.2,22.3c9.4,4.5,19.2,5.5,27.5,6.1c5.2,0.4,10.4,0.6,15.5,0.8
		c-1.5,3.1-2.9,6.2-4.3,9.2c-0.2,0.5-0.5,1-0.7,1.5c-4.8,1.8-11.1,5.6-13.9,13.6l-0.3,0.7l-0.1,0.8c-0.5,2.7-0.8,8.4,3.7,13.4
		l-0.3,5.4l0.9,2.1c4.5,10.8,12.3,12.4,16.5,12.4c0.1,0,0.2,0,0.3,0c0,0,1.7,2,2.6,2.2c1.7,0.5,6.9-1.2,6.9-1.2l-0.1,7l0,0.8
		c-0.3,1.2-0.5,2.3-0.6,3.4c-0.3,0-0.7,0-1,0c-1.1,0-2.1,0-3.2,0c-1.1,0-2.2,0-3.3,0c-2.1,0-3.8,0-5.4,0.1c-3.4,0.1-6.8,0.3-10,0.6
		c-2.1,0.1-4.3,0.3-6.4,0.4c-5.3,0.3-10.5,0.5-15.8,0.7l-5.9,0.3c-0.2,0-0.5,0-0.7,0c-1.7,0-20.5,2.8-22.9,2.9
		c-1.4,0-6.4,0.5-6.9,0.6l-0.2,0c-1,0.2-2,0.4-3,0.7c-1.6,0.4-3,0.7-4.1,0.8c-4.8,0.2-8.8,1.5-12.4,2.7l-0.6,0.2
		c-2.8,0.9-8.5,2.6-11.6,9.1c0,0-3.4,4.7-3.1,6.4c0.3,1.8,5.1,5,5.1,5c5,4.9,10.9,6.6,15.5,7.5c4,0.8,8.1,1.5,12.7,2.3l0.5,0.1
		c3.7,0.6,7.6,1.3,11.6,1.7c1.9,0.2,3.6,0.3,5.4,0.4c2.3,0.1,4.4,0.2,6.1,0.6c2.9,0.7,5.5,0.8,7.6,0.9c0.7,0,1.4,0.1,2.1,0.1
		c1.1,0.1,2.3,0.2,3.5,0.4c1.7,0.2,3.5,0.4,5.4,0.6c2,0.1,3.8,0.1,5.4,0.1l3.1,0c3,0,5.3,0.1,7.4,0.5c1.9,0.4,3.8,0.6,6.1,0.6
		c1.3,0,2.4-0.1,3.6-0.1c1,0,1.9-0.1,2.7-0.1c0.3,0,0.5,0,0.8,0c1.4,0.1,2.8,0.2,4.4,0.4c2.3,0.2,4.9,0.5,7.6,0.5l0.3,0
		c3.5,0,7.1,0,10.6,0c7.5,0,15,0,22.4,0.1c7.4,0,15,0.1,22.5,0.1c13.2,0,30.5-0.1,48.3-1.1c1.4-0.1,2.9-0.1,4.4-0.1
		c3.3-0.1,7-0.1,10.9-0.8c2.2-0.4,4.8-0.4,7.6-0.5c3-0.1,6.5-0.1,10-0.6c3.5-0.5,7.3-0.7,11.2-0.8c1.7-0.1,3.5-0.1,5.2-0.2
		c0.1,0,0.1,0,0.2,0c1,0,2-0.1,3-0.4c2.3-0.7,5-1,7.9-1.3c3-0.3,6.4-0.7,9.9-1.5c1.4-0.4,3.2-0.6,5-0.8c2.7-0.3,5.7-0.7,8.8-1.6
		c0.3-0.1,0.6-0.2,0.9-0.3c3.4-1,9.2-2.6,13.2-8.1c0,0,4-3.8,4-5.4C343.6,368.5,340,364.4,340,364.4z M322.5,374.4
		c-4.3,1.3-9,1.2-13.4,2.3c-6,1.5-12.3,1.1-18.2,2.9c-0.2,0-0.3,0-0.5,0c-5.9,0.3-11.9,0.3-17.7,1.1c-5.9,0.9-11.9,0.2-17.7,1.1
		c-4.8,0.8-9.5,0.5-14.3,0.8c-34.4,1.9-68.9,0.7-103.3,0.9c-3.9,0-7.8-0.7-11.7-0.9c-3.8-0.2-7.8,0.6-11.5-0.2
		c-5.8-1.2-11.5-0.5-17.3-0.9c-2.9-0.2-5.8-0.7-8.7-1c-2.8-0.2-5.5-0.1-8.3-0.8c-4.1-1-8.5-0.7-12.7-1.2c-3.9-0.4-7.7-1.1-11.5-1.7
		c-4.1-0.7-8.3-1.4-12.4-2.3c-3.8-0.8-7.5-1.9-10.4-4.8c1.3-2.8,4-3.3,6.1-4c3.2-1,6.4-2.1,9.9-2.3c2.9-0.1,5.7-1.1,8.5-1.6
		c0.5-0.1,1-0.2,1.4-0.3c4.2-0.3,26.9-3,27.2-3c7.4-0.3,14.8-0.6,22.2-1c5.4-0.3,10.8-0.8,16.2-0.9c5.3-0.2,10.7,0,16-0.1
		c2.3-0.1,4.5-0.6,6.7-0.9c0.2-1,0.4-2,0.6-3.1c-1-3.4-1-4.8,0-8.1c0-2.3,0-4.6,0-6.9c-0.2-0.2,0.4-9-0.9-13.1
		c-0.9-0.4-1.9-0.8-3-1.3c-1.2,1.1-2.3,2.1-3.5,3.2c-1.8,0-3.6,0-5.7,0c-1-0.8-2.1-1.8-3.3-2.8c-5.2,1.8-8.4-0.4-10.6-5.6
		c0.1-2.4,2-5.6,0.5-8.2c-1.4-2.4-4.8-3.3-4.1-7.1c1.8-5.3,6.3-7.3,11.7-8.7c4.5-9.5,8.3-19.6,15.1-28.3c-1.2-0.1-2-0.1-2.8-0.2
		c-9.8-0.4-19.6-0.5-29.4-1.2c-8.2-0.6-16.3-1.6-24-5.2c-8.6-4-15.1-10-19.7-18.2c-4.3-7.7-7-15.9-9.1-24.4
		c-0.4-1.8-0.8-3.5-1.3-5.6c-5.3-3.3-9.6-7.7-10.6-14.4c-1-6.5,1-12.1,6-16.6c-0.5-3.2-2-17.4-2-18.8c0-13.6,2.2-26.9,7-39.7
		c4.7-12.7,11.5-24,20.5-34.2C84.9,80.1,92,74,99.7,68.4c11.9-8.6,25-14.7,39-18.9c7.9-2.4,16-4,24.1-4.9
		c10.5-1.2,21.1-1.5,31.8-0.4c10.2,1.1,20.3,2.4,30.1,5.3c16.5,4.8,31.6,12,45.1,22.9c12.1,9.8,21.4,21.6,27.8,35.7
		c3.4,7.5,5.8,15.3,6.9,23.5c0.7,5,0.9,9.9,0.8,14.9c-0.2,9.6-2.2,18.9-4.8,28.2c-0.2,0.6-0.3,1.3-0.5,2.2c5.7,4.6,6.3,11.1,5,17.6
		c-1.2,5.8-4.3,10.7-10.5,13.3c-1.4,5.3-2.7,10.9-4.4,16.4c-2.5,7.9-5.9,15.5-11.7,21.5c-7.1,7.4-16.1,11.3-25.9,13.8
		c-6.6,1.6-13.2,2.8-20,3.2c-5.1,0.3-10.1,1.2-15.7,1.9c6.5,9.6,11.9,19.1,16.1,29.4c1.8,0.6,3.7,1.1,5.5,1.8
		c1.2,0.5,2.4,1.2,3.4,2.1c4.3,3.6,4.4,6.9,0.6,10.9c-0.5,0.5-1,0.8-1.4,1.1c1.3,8.7,0.7,10.5-4.8,13.7c-1.6,0-3.3,0-4.9,0
		c-4.9,4.6-7.8,4.3-12.8-1.1c-1.6,0.7-3.2,1.3-5,2c0,10.8,0,21.4,0,32c3.5,0,7,0,10.5,0.1c12.9,0.3,25.9,0.3,38.7,1.2
		c4.6,0.3,9.2,0.4,13.7,0.9c7.2,0.8,14.3,1.3,21.5,2.1c7,0.8,14.1,1.7,21,3.6c2.8,0.7,5.6,1.3,8.4,2.1c2,0.6,4.2,1.3,4.1,3.3
		C331.3,373.5,325.6,373.5,322.5,374.4z"/>
	<path class="st1" d="M327.3,366.4c-2.8-0.8-5.6-1.4-8.4-2.1c-6.9-1.9-14-2.8-21-3.6c-7.1-0.8-14.3-1.3-21.5-2.1
		c-4.5-0.5-9.2-0.6-13.7-0.9c-12.9-0.8-25.8-0.9-38.7-1.2c-3.5-0.1-7,0-10.5-0.1c0.1,0.9,0.3,1.8,0.4,2.7c0.9,0.2,1.6,0.3,2.2,0.4
		c5.3,1.1,9.9,3.5,13.7,7.2c1.8,1.8,3.1,3.8,1.9,6.6c-12.8,0-25.4,0-38.1,0c-0.8-0.9-1.6-1.7-1.9-2.1c-0.5-5.7-1-10.8-1.5-15.8
		c-5.8,0-11.5,0-17.6,0c-0.2-0.8-0.4-1.5-0.7-2.3c-0.2,0.9-0.7,1.8-0.7,2.7c-0.1,5,0,10,0,15.3c-0.9,0.8-1.7,1.5-2.3,2.1
		c-13.4,0-26.4,0-39.4,0c-0.5-0.6-0.9-1.1-1.4-1.6c1.2-2.6,2.1-5.3,4.5-7c3.7-2.5,7.5-4.7,12-5.4c0.9-0.1,1.7-0.8,2.6-1.2
		c0-1,0-1.8,0-2.7c-2.2,0.3-4.5,0.8-6.7,0.9c-5.3,0.1-10.7-0.1-16,0.1c-5.4,0.2-10.8,0.7-16.2,0.9c-7.4,0.4-14.8,0.7-22.2,1
		c-0.3,0-0.7-0.1-1,0c-4.3,2.2-9,0.4-13.5,1.8c-4,1.2-8.4,0.8-12.7,1.2c-0.5,0-1,0.2-1.4,0.3c-2.8,0.6-5.7,1.5-8.5,1.6
		c-3.5,0.2-6.7,1.2-9.9,2.3c-2.1,0.7-4.8,1.3-6.1,4c2.9,2.9,6.6,4.1,10.4,4.8c4.1,0.8,8.3,1.6,12.4,2.3c3.8,0.6,7.7,1.3,11.5,1.7
		c4.2,0.5,8.6,0.2,12.7,1.2c2.8,0.7,5.5,0.6,8.3,0.8c2.9,0.3,5.8,0.8,8.7,1c5.7,0.4,11.5-0.4,17.3,0.9c3.7,0.8,7.6,0,11.5,0.2
		c3.9,0.2,7.8,0.9,11.7,0.9c34.4-0.3,68.9,1,103.3-0.9c4.8-0.3,9.5,0,14.3-0.8c5.8-0.9,11.8-0.2,17.7-1.1c5.8-0.9,11.8-0.8,17.7-1.1
		c0.2,0,0.3,0,0.5,0c5.9-1.7,12.2-1.4,18.2-2.9c4.4-1.1,9.1-1,13.4-2.3c3.1-0.9,6.7-1.6,8.9-4.7C330.4,368,329.3,367,327.3,366.4z"
		/>
	<g>
	</g>
	<g>
	</g>
	<g>
	</g>
	<g>
	</g>
	<g>
	</g>
	<g>
	</g>
</g>
</svg>
